<svg width="174" height="175" viewBox="0 0 174 175" fill="none" xmlns="http://www.w3.org/2000/svg">
<path d="M87.6829 78.9662C87.7879 78.8917 87.9092 78.8273 88.023 78.7672C88.7038 78.407 90.6815 77.2875 91.3571 77.4916L91.5861 77.4556C91.7326 77.5808 91.7314 77.582 91.7499 77.766C91.9182 79.4345 91.3063 82.0696 90.1884 83.3568C89.9438 83.6383 89.6631 83.8873 89.3824 84.1318L89.3969 85.237C90.6672 86.117 92.0276 86.3839 93.5311 86.6213C94.3091 86.6789 95.103 86.7178 95.8716 86.8533C98.1042 87.6517 99.5788 90.7384 100.539 92.7747C101.004 93.7606 101.433 94.7638 101.878 95.7584C102.129 96.3075 102.483 96.9182 102.617 97.5035C102.803 98.2978 103.366 100.029 103.847 100.638L103.939 100.684C104.657 102.161 105.449 104.272 105.473 105.904C107.308 105.831 109.158 105.869 110.995 105.867L120.393 105.845C123.325 108.996 126.103 112.31 128.938 115.549C129.98 116.739 130.972 118.002 132.076 119.132C131.867 119.305 131.745 119.31 131.485 119.337C130.979 119.443 130.465 119.531 129.977 119.705C129.579 120.167 124.373 121.36 123.337 121.747C123.397 123.479 123.637 125.785 123.424 127.46L123.298 127.578C123.199 127.954 123.202 128.303 123.202 128.688C123.992 128.773 125.762 128.839 126.417 129.041C126.388 129.278 126.443 129.283 126.574 129.474C128.774 132.676 131.146 135.775 133.425 138.922L148.368 159.738L29.6987 159.747C33.2803 153.839 37.1545 148.107 40.8974 142.3C41.9655 140.643 43.2075 139.049 44.1982 137.353C39.3651 138.242 32.818 137.693 28.0253 136.622C27.4362 137.322 26.7511 137.959 26.1105 138.612L22.4621 142.316L12.8181 152.222L8.41668 156.751C7.87003 157.316 7.37394 157.965 6.7978 158.496C6.66674 158.617 6.58486 158.68 6.40294 158.707C6.30727 158.611 6.30561 158.648 6.30644 158.523C6.30756 158.358 6.3479 158.213 6.44946 158.082C6.90081 157.5 7.56121 156.972 8.08389 156.446C9.48204 155.047 10.8641 153.632 12.2302 152.201C11.2488 149.407 10.2864 146.62 9.56756 143.745C7.69028 136.234 2.80132 116.336 6.90237 109.628C7.43469 108.757 8.24447 107.968 9.26984 107.747C10.4023 107.503 11.2834 107.985 12.2082 108.559C13.4296 104.739 16.0935 101.877 19.4735 99.8198C18.0227 98.7436 16.1942 97.6295 15.1555 96.1225C14.7716 95.5655 14.3886 94.8019 14.5418 94.1081C14.7698 93.0751 15.9506 91.945 16.5029 91.0199C18.5024 87.6704 19.4393 83.8584 22.9894 81.6868C24.8318 80.5597 26.965 80.2097 29.0635 80.7038C29.7121 80.9184 30.4906 81.148 31.0567 81.5374C31.8921 81.5938 32.5539 81.761 33.3306 82.0681C34.1507 82.5118 34.7168 83.0093 35.3602 83.6827C36.6314 85.411 37.2093 87.2451 36.8686 89.3945C36.6137 91.0019 36.1257 91.5117 35.604 92.8673C34.9357 94.6046 35.1308 97.0605 33.4265 98.2773C32.6887 98.8042 31.8103 98.7996 30.9544 98.6326C30.7483 98.5917 30.5429 98.5473 30.3383 98.4995C30.1008 99.6108 29.8571 100.72 29.6731 101.842C30.1202 102.44 30.5521 103.048 30.9689 103.667C31.3858 104.286 31.7868 104.916 32.1721 105.555C32.5575 106.194 32.9267 106.843 33.2797 107.5C33.6325 108.158 33.9688 108.824 34.2885 109.499C34.6082 110.173 34.9108 110.855 35.1965 111.545C35.4821 112.234 35.7503 112.931 36.0011 113.634C36.2519 114.337 36.4851 115.046 36.7005 115.76C36.916 116.475 37.1134 117.194 37.2929 117.919C37.6424 119.286 37.89 120.669 38.1739 122.05C39.659 121.644 41.1083 121.416 42.6342 121.241C43.7781 120.14 44.7744 118.876 45.8209 117.682L52.0776 110.524C53.4383 108.967 54.7829 107.34 56.2735 105.907C60.7898 105.908 65.3361 105.769 69.848 105.904C69.7464 105.554 69.6305 105.188 69.6263 104.821C69.6091 103.278 70.7632 100.024 71.3163 98.4628L71.3219 98.6037C71.7819 97.9643 74.301 91.8512 74.284 91.3666C74.3018 91.3171 74.3188 91.2675 74.3375 91.2184C74.7713 90.0718 76.0091 88.0502 76.9506 87.2509C77.244 87.0016 77.6248 86.8448 77.9718 86.6837C78.2908 86.6159 78.5728 86.594 78.8986 86.6025C81.4343 86.3873 82.8967 86.2336 85.2754 85.2626L85.3298 83.6575C85.0457 83.2377 84.7943 82.7991 84.5757 82.3417C84.357 81.8842 84.1736 81.4132 84.0253 80.9284C83.9278 80.6025 83.7791 80.1825 83.9502 79.8625C84.382 79.6002 85.052 79.6698 85.5452 79.5616C86.2265 79.4119 86.9959 78.9419 87.6829 78.9662Z" fill="#4075D7"/>
<path d="M19.4735 99.8198C18.0227 98.7435 16.1942 97.6295 15.1555 96.1225C14.7716 95.5655 14.3886 94.8018 14.5418 94.108C14.7698 93.0751 15.9506 91.9449 16.5029 91.0199C18.5024 87.6704 19.4393 83.8583 22.9893 81.6867C24.8318 80.5597 26.965 80.2096 29.0635 80.7037C29.7121 80.9184 30.4906 81.1479 31.0567 81.5374C31.8921 81.5938 32.5539 81.761 33.3306 82.0681C34.1507 82.5117 34.7168 83.0092 35.3602 83.6827C36.6314 85.4109 37.2093 87.2451 36.8686 89.3944C36.6137 91.0019 36.1257 91.5116 35.604 92.8673C34.9357 94.6045 35.1308 97.0604 33.4265 98.2772C32.6887 98.8042 31.8103 98.7996 30.9544 98.6325C30.7483 98.5917 30.5429 98.5473 30.3383 98.4995C30.1007 99.6108 29.8571 100.72 29.6731 101.842C30.1202 102.44 30.5521 103.048 30.9689 103.667C31.3858 104.286 31.7868 104.916 32.1721 105.555C32.5575 106.194 32.9267 106.843 33.2796 107.5C33.6325 108.158 33.9688 108.824 34.2885 109.499C34.6082 110.173 34.9108 110.855 35.1965 111.545C35.4821 112.234 35.7503 112.931 36.0011 113.634C36.2519 114.337 36.4851 115.045 36.7005 115.76C36.916 116.475 37.1134 117.194 37.2929 117.919C37.6424 119.286 37.89 120.669 38.1739 122.05C39.659 121.644 41.1083 121.416 42.6342 121.241C43.7781 120.14 44.7744 118.876 45.8209 117.682L52.0776 110.524C53.4383 108.967 54.7829 107.34 56.2735 105.907C60.7898 105.908 65.3361 105.769 69.848 105.904C71.1316 106.239 72.3997 106.292 73.69 106.521C73.2465 106.535 72.7912 106.528 72.3503 106.576C71.4388 106.545 70.5377 106.414 69.6266 106.387C67.3344 106.317 65.0239 106.377 62.73 106.381C60.6067 106.384 58.4697 106.326 56.3484 106.395C53.6728 109.261 51.1974 112.33 48.6049 115.273L45.0377 119.262C44.4836 119.89 43.8614 120.515 43.3771 121.197C45.6899 121.173 47.9962 121.266 50.2508 121.839C51.9374 122.267 52.4771 122.776 54.377 122.914C55.6395 123.114 57.2216 123.253 58.0577 124.348C58.2777 124.637 58.4014 125.002 58.5321 125.338C59.2825 122.807 60.4965 120.351 61.5801 117.946C62.3492 116.239 63.0537 114.507 63.8141 112.798C65.3487 112.776 66.9362 112.688 68.4666 112.803C66.717 116.214 65.0841 119.689 63.3791 123.123C62.7883 124.313 62.3035 125.612 61.6255 126.749C61.44 127.06 61.2398 127.309 60.9688 127.547C58.5887 128.099 54.3829 127.723 51.6949 127.919C51.9683 128.233 52.2414 128.531 52.5479 128.814C54.3685 128.83 58.5217 129.185 59.8269 130.473C59.9956 130.64 60.1468 130.854 60.1666 131.097C60.1971 131.474 59.905 131.797 59.6468 132.033C58.2969 133.265 56.0516 134.041 54.2935 134.4C53.5141 134.559 52.707 134.632 51.9468 134.875C50.9403 135.196 49.9887 135.734 49.003 136.122C47.443 136.736 45.842 137.064 44.1981 137.352C39.3651 138.241 32.818 137.693 28.0253 136.622C27.4362 137.322 26.7511 137.959 26.1105 138.612L22.4621 142.316L12.8181 152.222L8.41668 156.751C7.87002 157.316 7.37394 157.965 6.7978 158.496C6.66674 158.617 6.58486 158.68 6.40294 158.707C6.30727 158.611 6.30561 158.648 6.30644 158.523C6.30756 158.358 6.3479 158.213 6.44946 158.082C6.90081 157.5 7.56121 156.972 8.08389 156.446C9.48204 155.047 10.8641 153.632 12.2302 152.201C11.2488 149.407 10.2864 146.62 9.56756 143.745C7.69028 136.234 2.80132 116.336 6.90237 109.628C7.43468 108.757 8.24446 107.968 9.26984 107.747C10.4023 107.503 11.2834 107.985 12.2082 108.559C13.4296 104.739 16.0935 101.877 19.4735 99.8198Z" fill="#090817"/>
<path d="M19.7596 100.169C20.4019 100.21 23.6445 102.452 24.3499 102.949C25.5439 103.79 27.1821 104.964 28.0209 106.184C29.9391 108.971 32.0652 118.894 32.6704 122.312C32.9941 124.141 33.1739 125.987 33.4917 127.813C34.9832 127.125 36.4577 126.608 38.0762 126.292C42.8155 125.365 47.8815 126.066 51.9372 128.772L51.9105 134.207C50.387 134.955 48.9063 135.655 47.2746 136.145C42.0766 137.709 35.9219 137.56 30.6083 136.63C29.1758 136.38 27.7702 136.008 26.3618 135.651C24.4228 130.676 23.0189 125.519 21.8952 120.303C21.5993 118.717 21.312 117.129 21.0332 115.54C20.9193 114.854 20.8904 114.124 20.7326 113.451C20.6808 113.23 20.6333 113.058 20.4843 112.88L20.3706 112.909C20.3356 113.002 20.3241 113.022 20.3037 113.112C20.1119 113.955 20.4767 115.263 20.6162 116.119C21.5416 121.795 22.9244 127.551 24.836 132.979C25.1937 133.994 25.5388 135.158 26.0851 136.087L27.4484 136.44C26.3247 137.95 24.3893 139.634 23.01 141.039C21.1657 142.918 19.3865 145.001 17.3996 146.724C14.4255 137.439 10.0995 120.575 12.0423 111.088C13.0379 106.227 15.663 102.871 19.7596 100.169Z" fill="white"/>
<path d="M31.6446 105.719C32.2425 106.348 32.7119 107.494 33.1108 108.272C35.8056 113.526 37.884 119.827 37.9903 125.774C36.8999 125.999 35.843 126.32 34.7955 126.694L33.8456 127.055C33.1511 121.84 32.2062 116.671 30.6898 111.622C30.1649 109.875 29.4218 108.213 28.8762 106.478L30.0483 106.757C30.7897 106.577 31.1612 106.292 31.6446 105.719Z" fill="white"/>
<path d="M32.7273 85.1975C33.2163 85.4546 33.6525 86.2126 33.9035 86.6971C35.2958 89.3856 35.3473 92.8572 34.4399 95.7073C34.1516 96.613 33.6965 97.6137 32.7975 98.0509C31.7963 98.5377 30.4558 98.1286 29.566 97.5705C29.2393 97.3656 28.946 97.0577 28.5837 96.9237L28.4544 96.9981L28.431 97.1643C28.6746 97.6922 29.3531 98.0363 29.8214 98.349C29.5813 99.5767 29.3498 100.806 29.127 102.037C29.7462 102.926 30.9191 103.879 31.2522 104.91C31.3465 105.202 31.2257 105.322 31.0987 105.575C30.8248 105.891 30.5382 106.084 30.1779 106.292L28.4507 105.84C27.3611 104.712 26.1868 103.723 24.9799 102.725C25.3923 101.388 26.5951 98.524 27.2945 97.3306C27.6293 96.7597 28.0629 96.2278 28.5141 95.7454C29.5066 94.6839 30.636 93.7444 31.4797 92.5509C33.0707 90.2999 33.1837 87.8316 32.7273 85.1975Z" fill="white"/>
<path d="M43.6062 121.727C46.1054 121.629 49.9435 121.69 52.0512 123.065C52.0163 123.947 52.0685 127.092 51.6117 127.606C51.4265 127.664 51.3507 127.689 51.1557 127.639C50.6344 127.504 50.0918 127.174 49.5977 126.953C49.0692 126.716 48.5212 126.528 47.9749 126.338C44.803 125.357 41.7666 125.269 38.5014 125.708C38.4297 124.662 38.3396 123.618 38.2311 122.576C39.9704 121.983 41.7819 121.792 43.6062 121.727Z" fill="white"/>
<path d="M64.1937 113.314C65.3531 113.292 66.5126 113.289 67.672 113.305C65.4829 117.467 63.4712 121.714 61.4369 125.953C61.2682 126.296 61.0994 126.659 60.7774 126.885C60.5468 127.046 60.2872 127.114 60.0092 127.048C59.4745 126.921 59.2206 126.427 58.9747 125.986C59.3392 124.11 60.313 122.211 61.0772 120.463C62.1331 118.087 63.1719 115.704 64.1937 113.314Z" fill="white"/>
<path d="M52.4894 129.385C53.9966 129.396 55.4935 129.503 56.9715 129.811C57.6437 129.951 59.1563 130.236 59.4797 130.925C59.5442 131.062 59.5504 131.184 59.5159 131.326C59.3653 131.949 58.4902 132.321 57.9811 132.608C56.2702 133.446 54.3353 133.91 52.4624 134.228C52.5227 132.619 52.4845 130.996 52.4894 129.385Z" fill="white"/>
<path d="M52.5254 123.198C53.9412 123.342 56.1157 123.375 57.3174 124.216C57.9931 124.688 57.8677 125.687 58.315 126.305C58.4963 126.555 59.0055 126.854 59.0495 127.126L58.8149 127.155L52.2358 127.257C52.5075 125.933 52.4945 124.545 52.5254 123.198Z" fill="white"/>
<path d="M87.6826 78.9662C87.7876 78.8917 87.909 78.8273 88.0228 78.7672C88.7035 78.407 90.6812 77.2875 91.3568 77.4916L91.5859 77.4556C91.7324 77.5808 91.7312 77.582 91.7497 77.766C91.9179 79.4345 91.306 82.0696 90.1881 83.3568C89.9436 83.6383 89.6629 83.8873 89.3822 84.1318L89.3966 85.237C90.667 86.117 92.0274 86.3839 93.5308 86.6213C94.3089 86.6789 95.1028 86.7178 95.8713 86.8533C98.1039 87.6517 99.5785 90.7384 100.539 92.7747C101.003 93.7606 101.432 94.7638 101.878 95.7584C102.129 96.3075 102.483 96.9182 102.617 97.5035C102.802 98.2978 103.366 100.029 103.847 100.638L103.939 100.684C104.657 102.161 105.448 104.272 105.473 105.904C107.308 105.831 109.157 105.869 110.995 105.867L120.393 105.845C123.325 108.996 126.102 112.31 128.938 115.549C129.979 116.739 130.971 118.002 132.076 119.132C131.867 119.305 131.745 119.31 131.485 119.337C129.728 117.016 127.683 114.864 125.758 112.681C123.913 110.588 122.137 108.414 120.215 106.391C117.627 106.29 115.028 106.332 112.439 106.334L96.8338 106.43C95.4193 106.436 93.9922 106.479 92.5789 106.433C91.7388 106.406 90.9049 106.265 90.0654 106.219C88.6799 106.142 87.2493 106.162 85.8612 106.185C84.9411 106.2 84.0271 106.312 83.1085 106.354C80.4391 106.47 77.7686 106.543 75.0969 106.573C74.3873 106.805 73.1042 106.645 72.3501 106.576C72.791 106.528 73.2462 106.535 73.6897 106.521C72.3995 106.292 71.1314 106.239 69.8478 105.904C69.7462 105.554 69.6303 105.188 69.626 104.821C69.6089 103.278 70.763 100.024 71.3161 98.4628L71.3217 98.6037C71.7817 97.9643 74.3008 91.8512 74.2838 91.3666C74.3016 91.3171 74.3186 91.2675 74.3373 91.2184C74.7711 90.0718 76.0088 88.0502 76.9504 87.2509C77.2438 87.0016 77.6246 86.8448 77.9716 86.6837C78.2905 86.6159 78.5726 86.594 78.8983 86.6025C81.4341 86.3873 82.8964 86.2336 85.2752 85.2626L85.3295 83.6575C85.0454 83.2377 84.7941 82.7991 84.5754 82.3417C84.3568 81.8842 84.1733 81.4132 84.0251 80.9284C83.9275 80.6025 83.7788 80.1825 83.95 79.8625C84.3817 79.6002 85.0517 79.6698 85.545 79.5616C86.2262 79.4119 86.9956 78.9419 87.6826 78.9662Z" fill="#090817"/>
<path d="M77.9716 86.6835C78.2905 86.6157 78.5726 86.5938 78.8983 86.6023C79.9304 86.8212 81.0162 86.7252 82.0633 86.681C82.1433 88.2207 82.1437 89.7743 82.2856 91.3086C82.4173 92.7323 83.6189 101.09 84.0577 101.827L84.1838 101.883L84.5751 101.848C84.6432 102 84.6951 102.13 84.7046 102.299C84.738 102.894 84.5941 103.505 84.5615 104.1C84.5296 104.686 84.6307 105.27 84.4947 105.847C83.8235 106.519 76.1573 105.97 75.0969 106.573C74.3873 106.805 73.1042 106.645 72.3501 106.576C72.791 106.528 73.2462 106.535 73.6897 106.521C72.3995 106.292 71.1314 106.239 69.8478 105.904C69.7462 105.554 69.6303 105.188 69.626 104.82C69.6089 103.278 70.763 100.024 71.3161 98.4627L71.3217 98.6036C71.7817 97.9641 74.3008 91.851 74.2838 91.3664C74.3016 91.317 74.3186 91.2674 74.3373 91.2183C74.7711 90.0716 76.0088 88.0501 76.9504 87.2507C77.2438 87.0015 77.6246 86.8446 77.9716 86.6835Z" fill="#15598A"/>
<path d="M76.7725 98.7339C77.0265 99.0744 76.8581 100.932 76.7998 101.406C76.5886 101.535 76.1211 101.404 75.8663 101.373L75.7334 101.344C75.6671 100.929 76.556 99.2188 76.7725 98.7339Z" fill="white"/>
<path d="M93.533 86.6213C94.3111 86.6789 95.1049 86.7179 95.8735 86.8533C98.1061 87.6517 99.5807 90.7384 100.541 92.7747C101.005 93.7606 101.435 94.7638 101.88 95.7584C102.131 96.3076 102.485 96.9183 102.619 97.5035C102.805 98.2979 103.368 100.029 103.849 100.638L103.941 100.684C104.659 102.161 105.451 104.272 105.475 105.904C105.117 106.081 104.639 106.09 104.243 106.113C102.874 106.191 91.8681 106.364 91.437 105.961C90.8628 105.426 91.0864 104.086 91.0717 103.351C90.7833 103.19 90.4788 103.058 90.1796 102.919C90.4277 100.655 91.0491 98.4068 91.4805 96.1723C91.7829 94.6112 92.0105 93.0392 92.1631 91.4563C92.3158 89.8734 92.3928 88.2869 92.3942 86.6968C92.7573 86.7365 93.0922 86.7658 93.458 86.7374L93.533 86.6213Z" fill="#15598A"/>
<path d="M96.0619 96.5928C96.695 97.1766 98.2447 100.976 98.7096 102.036C98.328 102.116 97.9429 102.159 97.5564 102.207C96.6787 102.314 95.8063 102.387 94.9244 102.444C95.231 100.488 95.6488 98.5297 96.0619 96.5928Z" fill="white"/>
<path d="M90.1264 86.2502C90.7719 86.4866 91.4083 86.7199 92.0778 86.882C92.0826 87.7281 92.0643 88.5738 92.0229 89.4189C91.9816 90.264 91.9173 91.1074 91.8301 91.9491C91.7427 92.7908 91.6326 93.6294 91.4997 94.4649C91.3667 95.3006 91.2111 96.132 91.0329 96.9592C90.6236 98.8822 89.9665 100.887 89.782 102.84C88.4654 102.593 86.1988 102.438 85.0852 101.86C84.9236 101.776 84.7458 101.803 84.5752 101.848L84.1839 101.883C84.0619 100.177 83.6602 98.4267 83.3834 96.7337C82.8456 93.4435 82.4016 90.0723 82.4164 86.7327C82.9018 86.6088 83.3892 86.4897 83.8729 86.3597C84.1729 87.4589 86.3217 93.0811 87.0456 93.5311C87.0668 93.5441 87.0913 93.5508 87.1142 93.5606C87.8622 92.5467 89.7347 87.6439 90.1264 86.2502Z" fill="white"/>
<path d="M87.6838 78.966C87.7888 78.8916 87.9101 78.8272 88.0239 78.7671C88.7047 78.4068 90.6824 77.2874 91.358 77.4915C91.3204 79.5783 91.1143 81.9259 89.4941 83.4511C89.0105 83.9063 88.3913 84.1935 87.7184 84.1558C87.6164 84.1491 87.5149 84.1373 87.4141 84.1203C87.3133 84.1033 87.2135 84.0813 87.1149 84.0543C87.0162 84.0274 86.9192 83.9955 86.8238 83.9587C86.7283 83.922 86.6349 83.8805 86.5438 83.8343C86.4525 83.7882 86.3638 83.7376 86.2777 83.6826C86.1915 83.6274 86.1083 83.5681 86.028 83.5046C85.9478 83.4412 85.871 83.3739 85.7976 83.3026C85.7243 83.2314 85.6547 83.1566 85.5888 83.0785C85.0583 82.4542 84.407 81.1483 84.4434 80.3004C84.5934 80.1181 84.8275 80.0957 85.0474 80.0462C85.9947 79.8331 86.8685 79.506 87.6838 78.966Z" fill="white"/>
<path d="M85.8409 83.9287C87.4958 85.2057 88.0871 84.2764 88.8235 84.6138C89.0108 84.8711 88.9467 85.2468 88.9399 85.5521C89.1906 85.7131 89.4509 85.8607 89.7068 86.013C89.1304 87.8386 88.3744 89.7283 87.5727 91.4663L87.0264 92.644C85.9532 90.61 84.9096 88.4075 84.2944 86.1876C84.6005 86.0687 85.001 85.9496 85.2569 85.7414C85.516 85.5307 85.6035 85.2189 85.6477 84.9022C85.6939 84.5705 85.7641 84.2541 85.8409 83.9287Z" fill="white"/>
<path d="M85.0914 102.618C86.7469 102.781 89.2446 103.007 90.7244 103.761C90.708 104.109 90.7498 104.943 90.5506 105.213C89.6461 105.213 85.3554 105.413 84.8105 104.97C84.7712 104.207 84.9755 103.374 85.0914 102.618Z" fill="white"/>
<path d="M75.0988 106.573C77.7705 106.543 80.4411 106.47 83.1104 106.354C84.029 106.312 84.943 106.2 85.8632 106.185C87.2513 106.162 88.6818 106.142 90.0674 106.219C90.9068 106.265 91.7408 106.406 92.5808 106.433C93.9941 106.479 95.4213 106.436 96.8357 106.43L112.44 106.334C115.03 106.332 117.629 106.29 120.217 106.391C122.139 108.414 123.915 110.588 125.76 112.681C127.685 114.864 129.73 117.016 131.487 119.337C130.981 119.443 130.466 119.531 129.979 119.705C128.239 119.977 126.464 120.487 124.745 120.883C123.118 120.301 121.584 119.277 120.004 118.553C119.233 117.715 118.642 116.611 118.048 115.643C116.972 113.891 115.939 112.09 114.762 110.405C97.1957 110.568 79.6291 110.608 62.0622 110.523C60.8457 112.559 59.5564 114.545 58.3253 116.57C57.0313 118.698 55.8004 120.866 54.3787 122.914C52.4788 122.776 51.9391 122.267 50.2525 121.839C47.9979 121.266 45.6916 121.173 43.3788 121.197C43.8631 120.515 44.4853 119.89 45.0394 119.262L48.6066 115.273C51.1991 112.33 53.6745 109.261 56.3501 106.395C58.4714 106.326 60.6084 106.384 62.7317 106.381C65.0256 106.377 67.3361 106.317 69.6283 106.387C70.5394 106.414 71.4405 106.545 72.352 106.576C73.1061 106.645 74.3892 106.805 75.0988 106.573Z" fill="white"/>
<path d="M106.332 112.918C107.72 112.805 109.162 112.877 110.559 112.853C112.208 115.409 113.175 118.357 114.735 120.953C115.121 120.516 115.437 120.037 115.869 119.639C117.087 118.518 118.456 118.486 120.003 118.553C121.583 119.277 123.117 120.301 124.744 120.883C126.463 120.487 128.238 119.977 129.978 119.705C129.58 120.167 124.373 121.36 123.337 121.747C123.397 123.479 123.637 125.785 123.424 127.46L123.298 127.579C121.745 127.154 120.022 127.296 118.428 127.301L113.193 127.314C112.346 125.782 111.655 124.141 110.903 122.558L106.332 112.918Z" fill="#090817"/>
<path d="M107.135 113.378L110.275 113.369C110.802 114.285 111.246 115.271 111.719 116.215C112.585 117.925 113.438 119.642 114.279 121.364C114.005 121.47 113.79 121.548 113.579 121.756C113.423 122.335 114.086 122.762 114.278 123.319C114.289 123.35 114.299 123.382 114.309 123.414C114.825 123.7 115.303 124.022 115.848 124.258C115.61 124.484 115.335 124.656 115.089 124.87C114.903 125.031 114.798 125.097 114.773 125.347C115.205 125.974 118.032 126.177 118.88 126.34C119.447 126.477 119.994 126.644 120.546 126.833C118.237 126.851 115.928 126.857 113.619 126.852C112.659 125.391 112.001 123.591 111.253 122.003L107.135 113.378Z" fill="white"/>
<path d="M122.777 121.961L122.869 121.982C123.105 122.6 123.064 126.101 123.093 127.011C120.865 126.599 118.82 125.742 116.546 125.503L115.41 125.325C115.837 124.93 116.258 124.556 116.595 124.079C116.185 123.89 115.778 123.696 115.373 123.496C116.264 123.37 117.124 123.103 118.003 122.916C119.589 122.577 121.185 122.277 122.777 121.961Z" fill="white"/>
<path d="M118.272 118.978C120.311 118.821 122.321 120.121 123.996 121.176C122.317 121.638 120.597 121.96 118.881 122.248L117.351 122.472C117.132 122.361 116.906 122.237 116.666 122.175C116.174 122.049 114.803 122.025 114.373 122.296C114.334 122.502 114.379 122.42 114.262 122.554C114.169 122.323 114.137 122.166 114.124 121.917C114.354 121.783 114.618 121.71 114.869 121.623C115.823 120.24 116.565 119.388 118.272 118.978Z" fill="white"/>
<path d="M114.846 122.557C115.409 122.512 116.071 122.433 116.614 122.611L116.65 122.727C116.433 122.889 116.25 122.944 115.995 123.01C115.789 123.092 115.544 123.212 115.319 123.215C115.053 123.219 114.881 123.189 114.688 123C114.703 122.782 114.726 122.742 114.846 122.557Z" fill="white"/>
<path d="M39.792 98.3469C39.583 89.4656 39.7519 80.5445 39.7626 71.6603V25.7478C39.7622 25.2899 39.8292 24.8532 40.1604 24.5191C40.3575 24.4661 40.3449 24.4569 40.5218 24.5556C40.6458 24.7356 40.6706 24.8771 40.6849 25.0892C40.8261 27.179 40.7078 29.3401 40.7043 31.4364L40.6976 43.2526C42.4557 43.2668 44.2137 43.2645 45.9717 43.2457L45.9679 58.2802C48.6179 58.2883 51.2802 58.3339 53.9295 58.2885C53.924 56.6914 53.7609 54.4486 53.967 52.9186C54.0258 50.9671 53.9799 49.0058 53.9776 47.0533L53.9869 36.949C53.9927 35.0111 53.9325 33.0458 54.0474 31.1114L119.71 31.1228C119.882 32.9586 119.77 34.8774 119.77 36.7229C119.77 41.2577 119.634 45.8322 119.78 50.3618C119.892 51.6886 119.829 53.0622 119.827 54.3944L119.814 61.15C122.654 61.195 125.503 61.1146 128.345 61.1141C128.421 55.6751 128.292 50.2301 128.401 44.7923C129.798 44.7926 131.196 44.8033 132.592 44.787C132.429 61.7571 132.435 78.727 132.61 95.6966C125.563 95.7592 118.516 95.7821 111.468 95.7653C108.277 95.7646 105.068 95.8349 101.88 95.7585C101.434 94.7639 101.005 93.7607 100.541 92.7748C99.5805 90.7385 98.1059 87.6519 95.8733 86.8534C95.1048 86.718 94.3109 86.6791 93.5328 86.6214C92.0294 86.3841 90.669 86.1171 89.3986 85.2371L89.3842 84.1319C89.6649 83.8874 89.9456 83.6385 90.1901 83.3569C91.308 82.0698 91.9199 79.4346 91.7517 77.7661C91.7332 77.5821 91.7344 77.5809 91.5879 77.4557L91.3588 77.4917C90.6832 77.2876 88.7055 78.4071 88.0248 78.7673C87.9109 78.8275 87.7896 78.8919 87.6846 78.9663C86.9976 78.942 86.2282 79.412 85.547 79.5617C85.0537 79.6699 84.3837 79.6003 83.9519 79.8626C83.7808 80.1826 83.9295 80.6026 84.0271 80.9286C84.1753 81.4133 84.3588 81.8844 84.5774 82.3418C84.7961 82.7992 85.0474 83.2379 85.3315 83.6577L85.2772 85.2628C82.8984 86.2337 81.4361 86.3875 78.9003 86.6026C78.5746 86.5941 78.2925 86.616 77.9736 86.6838C77.6266 86.8449 77.2458 87.0017 76.9524 87.251C76.0108 88.0503 74.7731 90.0719 74.3393 91.2185C74.3206 91.2676 74.3036 91.3172 74.2858 91.3667C74.3028 91.8513 71.7837 97.9644 71.3237 98.6038L71.3181 98.463C70.2692 98.1223 61.3612 98.3445 59.6584 98.3493L39.792 98.3469Z" fill="white"/>
<path d="M56.1527 33.1994C69.254 33.047 82.3723 33.1479 95.4745 33.162L109.861 33.1632C112.447 33.1625 115.062 33.0823 117.644 33.1916L117.656 79.3894L102.401 79.3988C99.7846 79.4018 97.1211 79.5199 94.5109 79.3901C94.4883 79.2922 94.4664 79.1938 94.437 79.0978C94.2293 78.4187 93.8684 77.7713 93.5467 77.1412C92.8438 75.7643 92.1303 74.2398 90.6768 73.5096C89.5004 72.9186 88.1351 72.9711 86.9125 73.3798C85.0989 73.9862 83.2218 75.443 82.1518 77.0214C81.6777 77.7208 81.3061 78.5184 80.9265 79.2717C80.6667 79.4039 80.3066 79.3767 80.0167 79.3874L56.1505 79.4608L56.1527 33.1994Z" fill="white"/>
<path d="M106.074 39.4831L107.733 39.469L107.689 57.3201C107.694 61.2372 107.821 65.1797 107.709 69.094L107.567 69.2002L105.667 69.1815L105.693 51.1595L105.705 42.3347C105.708 41.6399 105.653 40.9409 105.667 40.2489C105.672 39.9935 105.67 39.7635 105.792 39.5317L106.074 39.4831Z" fill="#FDCC33"/>
<path d="M94.7295 49.3032L96.8428 49.3122C96.8404 51.2594 96.9791 68.7261 96.7499 69.0991L94.7402 69.0944L94.7295 49.3032Z" fill="#FDCC33"/>
<path d="M83.8737 55.9466L85.8516 55.9338C85.9249 60.2699 85.8565 64.6162 85.8355 68.9527L83.8518 68.955C83.8825 64.6189 83.8898 60.2828 83.8737 55.9466Z" fill="#FDCC33"/>
<path d="M96.6793 38.7224C96.8224 38.7437 96.9184 38.7742 97.0516 38.8252L97.0805 38.9802C96.4705 39.9119 95.5021 40.7525 94.7351 41.5701C92.5873 43.8592 90.3905 46.1133 88.2085 48.3702C84.7255 46.0598 81.2087 43.8019 77.6581 41.5966C76.4967 42.6581 75.4325 43.8819 74.3348 45.0145C72.1103 47.3197 69.872 49.6117 67.6201 51.8903L67.3652 51.768L67.3127 51.5988C67.5933 50.9451 76.3779 42.1616 77.5527 40.875C79.3147 42.0593 81.1282 43.1596 82.9138 44.3071C84.6512 45.4236 86.3605 46.5895 88.1316 47.652C91.0106 44.7039 93.8599 41.7274 96.6793 38.7224Z" fill="#090817"/>
<path d="M73.1531 60.1797C73.8479 60.2002 74.5448 60.1996 75.2398 60.2091L75.2021 69.1706L73.1508 69.1539L73.1531 60.1797Z" fill="#FDCC33"/>
<path d="M62.6129 65.5896L64.46 65.5942C64.3864 66.8331 64.4025 68.0778 64.4002 69.3185C63.8472 69.4178 63.1799 69.3493 62.6133 69.3478L62.6129 65.5896Z" fill="#FDCC33"/>
<path d="M39.792 98.3469C39.583 89.4656 39.7519 80.5445 39.7626 71.6603V25.7478C39.7622 25.2899 39.8292 24.8532 40.1604 24.5191C40.3575 24.4661 40.3449 24.4569 40.5218 24.5556C40.6458 24.7356 40.6706 24.8771 40.6849 25.0892C40.8261 27.179 40.7078 29.3401 40.7043 31.4364L40.6976 43.2526C42.4557 43.2668 44.2137 43.2645 45.9717 43.2457L45.9679 58.2802C48.6179 58.2883 51.2802 58.3339 53.9295 58.2885C53.924 56.6914 53.7609 54.4486 53.967 52.9186C54.1167 55.7862 54.0076 58.6987 54.0177 61.5722L54.0372 81.431L69.1001 81.4557L73.7952 81.4625C74.5792 81.4636 75.3982 81.4147 76.176 81.4806C77.4514 81.5914 78.7712 81.5182 80.0516 81.4954C79.25 83.1348 78.6144 84.9712 77.9736 86.6838C77.6266 86.8449 77.2458 87.0017 76.9524 87.251C76.0108 88.0503 74.7731 90.0719 74.3393 91.2185C74.3206 91.2676 74.3036 91.3172 74.2858 91.3667C74.3028 91.8513 71.7837 97.9644 71.3237 98.6038L71.3181 98.463C70.2692 98.1223 61.3612 98.3445 59.6584 98.3493L39.792 98.3469Z" fill="#C3D1E2"/>
<path d="M39.792 98.3469C39.583 89.4656 39.7519 80.5445 39.7626 71.6603V25.7478C39.7622 25.2899 39.8292 24.8532 40.1604 24.5191C40.3575 24.4661 40.3449 24.4569 40.5218 24.5556C40.6458 24.7356 40.6706 24.8771 40.6849 25.0892C40.8261 27.179 40.7078 29.3401 40.7043 31.4364L40.6976 43.2526L40.6062 80.4555L40.6084 91.4364C40.6086 93.365 40.4791 95.4222 40.6854 97.333L40.7512 97.4861C41.6327 97.649 42.7428 97.5224 43.6505 97.5231L50.7337 97.5083L63.9744 97.5158C66.554 97.5199 69.1594 97.5981 71.7346 97.4745L72.4328 95.7597C72.8995 94.2754 73.5928 92.7592 74.2858 91.3667C74.3028 91.8513 71.7837 97.9644 71.3237 98.6038L71.3181 98.463C70.2691 98.1223 61.3612 98.3445 59.6584 98.3493L39.792 98.3469Z" fill="#090817"/>
<path d="M40.7219 95.853L58.0468 95.7825C62.8381 95.7784 67.6418 95.8808 72.4312 95.7595L71.733 97.4744C69.1578 97.5979 66.5524 97.5197 63.9728 97.5157L50.7322 97.5082L43.649 97.523C42.7413 97.5223 41.6312 97.6489 40.7496 97.4859L40.6838 97.3328C40.7433 96.8465 40.7195 96.3427 40.7219 95.853Z" fill="white"/>
<path d="M50.0392 61.5752C51.3279 61.5144 52.6453 61.5171 53.9348 61.5706C53.9367 62.1902 54.0876 64.7653 53.8314 65.1521C52.5558 65.2022 51.273 65.1755 49.9964 65.1738C50.0052 64.3211 49.782 62.28 50.0392 61.5752Z" fill="white"/>
<path d="M50.0475 68.1005C51.337 68.0337 52.632 68.0524 53.9231 68.0527C53.9347 69.2168 53.9304 70.3807 53.91 71.5446C52.5934 71.565 51.2752 71.5533 49.9586 71.5551C49.9627 70.7534 49.7867 68.7684 50.0475 68.1005Z" fill="white"/>
<path d="M50.0441 74.4425C51.3381 74.4261 52.6344 74.4445 53.9287 74.4476L53.9326 77.9225C52.637 77.9254 51.3398 77.8992 50.0439 77.8868L50.0441 74.4425Z" fill="white"/>
<path d="M128.4 44.7921C129.797 44.7925 131.194 44.8032 132.591 44.7869C132.428 61.757 132.433 78.7268 132.609 95.6965C125.562 95.759 118.514 95.7819 111.467 95.7651C108.276 95.7645 105.067 95.8348 101.879 95.7583C101.433 94.7638 101.004 93.7606 100.539 92.7747C99.5794 90.7383 98.1048 87.6517 95.8722 86.8532C95.6582 85.0409 95.4746 83.2011 95.1033 81.4137L119.712 81.4062L119.723 60.9351C119.731 57.4272 119.602 53.8609 119.779 50.3617C119.891 51.6884 119.827 53.0621 119.826 54.3942L119.812 61.1498C122.653 61.1949 125.502 61.1145 128.344 61.114C128.419 55.675 128.291 50.23 128.4 44.7921Z" fill="#C3D1E2"/>
<path d="M121.201 77.4846L124.011 77.5003L124.015 79.7934C123.129 79.8226 122.235 79.8032 121.348 79.8076C121.216 79.0335 121.212 78.2671 121.201 77.4846Z" fill="white"/>
<path d="M122.341 71.2311C122.592 71.2153 122.868 71.2102 123.116 71.2515C123.446 71.3062 123.758 71.5288 123.947 71.7995C124.141 72.0765 124.201 72.4097 124.132 72.739C124.018 73.2793 123.723 73.5347 123.283 73.8338C123.007 73.8605 122.703 73.9072 122.428 73.8525C122.112 73.7898 121.81 73.5546 121.633 73.2909C121.421 72.9745 121.374 72.6012 121.475 72.2365C121.615 71.7312 121.909 71.4941 122.341 71.2311Z" fill="white"/>
<path d="M122.51 65.2678C122.585 65.2741 122.659 65.2809 122.734 65.2906C123.194 65.3507 123.619 65.477 123.902 65.8731C124.104 66.1555 124.146 66.4768 124.071 66.8114C123.943 67.3837 123.563 67.6647 123.101 67.9776C122.885 67.9978 122.637 68.036 122.424 67.9874C122.081 67.9094 121.764 67.6184 121.609 67.3108C121.427 66.9512 121.423 66.5312 121.558 66.1555C121.736 65.6624 122.051 65.4736 122.51 65.2678Z" fill="white"/>
<path d="M80.0166 79.3874C80.3065 79.3767 80.6666 79.4039 80.9264 79.2717C81.306 78.5185 81.6776 77.7209 82.1517 77.0215C83.2217 75.4431 85.0988 73.9863 86.9124 73.3799C88.135 72.9712 89.5003 72.9187 90.6767 73.5097C92.1302 74.2398 92.8437 75.7644 93.5467 77.1412C93.8683 77.7713 94.2292 78.4187 94.4369 79.0979C94.4663 79.1939 94.4882 79.2923 94.5108 79.3902C94.5394 79.5959 94.5366 79.7871 94.6598 79.9591C94.7103 80.258 94.7704 80.5422 94.8539 80.8338C95.6522 81.0996 98.3278 80.887 99.3376 80.8858L112.751 80.8958C114.783 80.8989 117.216 80.7339 119.204 80.9273C117.052 81.0928 114.812 80.9772 112.652 80.9738L100.551 80.967L96.9533 80.9738C96.3008 80.9738 95.608 80.9244 94.9614 81.0024L94.9105 81.1577C94.9716 81.2447 95.0275 81.3392 95.1035 81.4136C95.4748 83.201 95.6585 85.0407 95.8724 86.8531C95.1038 86.7177 94.31 86.6788 93.5319 86.6212C92.0284 86.3838 90.668 86.1169 89.3977 85.2368L89.3832 84.1317C89.664 83.8871 89.9447 83.6382 90.1892 83.3567C91.3071 82.0695 91.919 79.4343 91.7508 77.7659C91.7322 77.5819 91.7334 77.5807 91.587 77.4554L91.3579 77.4915C90.6823 77.2874 88.7046 78.4068 88.0239 78.7671C87.91 78.8272 87.7887 78.8916 87.6837 78.966C86.9967 78.9417 86.2273 79.4117 85.5461 79.5614C85.0528 79.6697 84.3828 79.6 83.951 79.8624C83.7799 80.1823 83.9286 80.6024 84.0261 80.9283C84.1744 81.413 84.3579 81.8841 84.5765 82.3415C84.7951 82.799 85.0465 83.2376 85.3306 83.6574L85.2762 85.2625C82.8975 86.2334 81.4351 86.3872 78.8994 86.6023C78.5737 86.5938 78.2916 86.6158 77.9727 86.6836C78.6134 84.9709 79.2491 83.1346 80.0506 81.4952C78.7703 81.5179 77.4505 81.5912 76.175 81.4804C77.3297 81.3985 78.8058 81.5976 79.8967 81.4088C80.0867 81.3759 80.1475 81.3123 80.289 81.1907L80.2649 81.0493C79.7636 80.8474 77.3518 80.9837 76.5915 80.9701C77.8445 80.8338 79.1811 80.9098 80.4448 80.9025L80.7976 79.955L80.898 79.616L80.826 79.4848C80.557 79.4085 80.2936 79.4014 80.0166 79.3874Z" fill="#FDCC33"/>
<path d="M54.047 31.1111L119.71 31.1225C119.882 32.9583 119.769 34.8771 119.77 36.7226C119.77 41.2575 119.634 45.8319 119.78 50.3615C119.603 53.8607 119.732 57.4271 119.724 60.9349L119.713 81.4061L95.1041 81.4136C95.0281 81.3391 94.9722 81.2447 94.911 81.1577L94.962 81.0023C95.6086 80.9244 96.3013 80.9738 96.9538 80.9738L100.552 80.967L112.652 80.9738C114.812 80.9772 117.053 81.0928 119.205 80.9273L119.203 31.647L54.5459 31.6293L54.5563 80.9566C61.8957 81.0122 69.2535 81.0634 76.5921 80.9701C77.3523 80.9837 79.7642 80.8474 80.2655 81.0493L80.2896 81.1906C80.1481 81.3123 80.0872 81.3758 79.8973 81.4088C78.8064 81.5976 77.3302 81.3984 76.1756 81.4804C75.3979 81.4144 74.5789 81.4634 73.7949 81.4622L69.0997 81.4554L54.0369 81.4307L54.0173 61.572C54.0073 58.6984 54.1164 55.7859 53.9667 52.9183C54.0255 50.9668 53.9796 49.0056 53.9772 47.053L53.9866 36.9487C53.9923 35.0108 53.9322 33.0455 54.047 31.1111Z" fill="#090817"/>
<path d="M55.6383 32.706C58.2881 32.6056 60.9606 32.6685 63.6127 32.6646L80.241 32.6841C92.8775 32.6843 105.526 32.5331 118.162 32.6603C118.239 37.9403 118.169 43.2298 118.167 48.5108L118.178 79.9645L94.6605 79.9591C94.5373 79.7872 94.5401 79.596 94.5115 79.3902C97.1217 79.52 99.7852 79.4019 102.401 79.3989L117.657 79.3895L117.644 33.1917C115.063 33.0824 112.448 33.1626 109.862 33.1633L95.4751 33.1621C82.373 33.148 69.2547 33.0471 56.1533 33.1995L56.1511 79.4609L80.0173 79.3875C80.2943 79.4014 80.5577 79.4086 80.8267 79.4849L80.8987 79.616L80.7983 79.955C72.4052 79.8449 63.9947 79.9688 55.6001 79.9887C55.4959 76.5437 55.5632 73.0766 55.5668 69.6299L55.5951 50.7791L55.595 38.8492C55.595 36.8387 55.4558 34.7043 55.6383 32.706Z" fill="#090817"/>
<path d="M156.007 102.495C158.088 105.046 159.588 107.497 160.813 110.554C161.476 109.378 162.231 108.184 163.631 107.816C164.369 107.621 165.11 107.797 165.752 108.192C167.185 109.074 167.932 110.991 168.272 112.561C170.031 120.679 166.394 135.939 164.103 144.051C163.205 147.23 162.214 150.887 160.652 153.793C161.307 154.604 162.897 156.214 163.219 157.103L163.167 157.271C162.977 157.306 162.906 157.324 162.737 157.19C162.328 156.866 161.473 155.622 161.088 155.157L156.644 149.863C152.679 145.076 148.661 140.334 144.591 135.636C143.173 133.98 141.834 132.251 140.388 130.623C140.249 130.487 140.151 130.395 139.953 130.365C137.998 130.063 135.663 130.035 133.651 129.854C131.233 129.638 128.836 129.257 126.418 129.041C125.763 128.839 123.993 128.773 123.203 128.688C123.203 128.303 123.2 127.954 123.299 127.578L123.425 127.46C123.638 125.785 123.398 123.479 123.338 121.747C124.374 121.36 129.58 120.167 129.978 119.705C130.466 119.531 130.98 119.443 131.486 119.337C131.746 119.31 131.868 119.305 132.077 119.132C132.786 118.874 133.577 118.726 134.31 118.541C135.233 116.712 136.41 114.947 137.519 113.223C139.429 110.255 141.793 106.602 144.164 104.009C144.937 104.058 145.754 104.394 146.551 104.476C149.838 104.813 153.048 103.865 156.007 102.495Z" fill="#15598A"/>
<path d="M160.812 110.554C161.475 109.378 162.23 108.184 163.63 107.816C164.368 107.621 165.109 107.797 165.751 108.192C167.184 109.074 167.931 110.991 168.272 112.562C170.03 120.679 166.393 135.939 164.102 144.051C163.205 147.23 162.213 150.887 160.651 153.793C161.306 154.604 162.896 156.214 163.218 157.103L163.166 157.272C162.977 157.307 162.905 157.324 162.736 157.19C162.327 156.866 161.472 155.622 161.087 155.157L156.644 149.863C152.678 145.076 148.66 140.334 144.59 135.636C143.172 133.98 141.833 132.251 140.387 130.623C140.647 130.682 140.721 130.75 140.916 130.934C142.373 132.32 143.605 134.022 144.938 135.53C148.395 139.444 151.759 143.42 155.145 147.395C159.6 138.03 162.867 127.681 162.052 117.199C161.937 115.711 161.608 114.241 161.274 112.79C161.121 112.126 160.877 111.387 160.823 110.714C160.819 110.661 160.816 110.607 160.812 110.554Z" fill="#090817"/>
<path d="M144.94 82.2054L145.048 82.1903C147.497 81.82 150.223 78.9448 152.705 80.8268C153.41 81.3612 153.768 82.1434 153.985 82.977C155.479 83.4829 156.841 84.1864 157.588 85.6643C158.332 87.1369 158.069 88.9039 157.54 90.3996C157.234 91.2645 156.833 92.1521 156.363 92.9416C155.868 93.772 155.211 94.6021 154.915 95.5288C154.731 96.1049 154.689 96.772 154.679 97.3735C154.675 97.6073 154.647 98.068 154.738 98.279C154.869 98.5854 155.222 98.7123 155.331 99.0785C155.646 100.131 155.475 101.547 156.008 102.494C153.049 103.864 149.839 104.813 146.552 104.476C145.755 104.394 144.938 104.058 144.164 104.009C144.148 103.973 144.129 103.938 144.115 103.901C144.034 103.685 144.007 103.599 144.116 103.389C144.507 102.632 145.508 101.449 146.194 100.951C146.398 100.803 146.666 100.731 146.904 100.656C146.933 99.8503 146.905 99.0433 146.888 98.2372C146.076 98.416 145.219 98.625 144.384 98.6115C143.685 98.6003 143.075 98.3794 142.593 97.8595C140.841 95.9694 141.488 89.8274 141.546 87.2949C141.085 87.2222 140.623 87.149 140.226 86.8874C139.833 86.6288 139.524 86.2769 139.438 85.8032C139.32 85.1471 139.624 84.4282 140 83.9051C140.775 82.8273 141.936 82.4221 143.187 82.2277C143.77 82.1947 144.356 82.2054 144.94 82.2054Z" fill="#090817"/>
<path d="M148.928 84.9041C149.02 85.2004 148.412 88.8869 148.588 90.0874C148.669 90.6338 148.862 91.1465 149.189 91.5941C150.076 92.8087 152.949 94.6902 154.269 95.6554C154.174 96.6312 154.202 97.6168 154.204 98.5962C151.894 99.8057 150 100.427 147.412 100.715C147.424 99.6365 147.383 98.6523 147.168 97.592C146.236 97.8266 145.136 98.1639 144.173 98.0803C143.622 98.0324 143.176 97.8394 142.821 97.4083C141.373 95.6497 141.896 89.5744 142.079 87.231C144.461 86.7832 146.695 85.8119 148.928 84.9041Z" fill="white"/>
<path d="M154.576 98.988L154.653 99.0147C155.101 99.5938 155.26 101.386 155.4 102.143C151.83 103.501 149.648 104.492 145.717 103.817C145.364 103.752 145.016 103.656 144.668 103.57C145.204 102.818 145.791 102.019 146.445 101.367C149.633 100.951 151.656 100.579 154.576 98.988Z" fill="white"/>
<path d="M33.4852 28.7441C34.2259 28.3407 34.939 27.9212 35.6493 27.4658C35.772 31.8082 35.7091 36.1673 35.6891 40.5112L35.6597 57.6501L35.7895 74.1796C35.7968 76.7958 35.8469 79.4356 35.7385 82.0493C35.7147 82.622 35.6571 83.1807 35.3606 83.6828C34.7173 83.0094 34.1511 82.5118 33.3311 82.0682C33.4928 81.901 33.4852 81.8699 33.4957 81.6293C33.5489 80.4084 33.4775 79.1554 33.4782 77.9307L33.4906 69.5986L33.5056 58.8142C33.5188 56.6346 33.5904 54.4579 33.5535 52.2775C33.4483 46.0546 33.5399 39.831 33.4926 33.6082C33.4802 31.99 33.5401 30.3604 33.4852 28.7441Z" fill="#F8F7FE"/>
<path d="M31.1437 30.552C31.2924 34.7336 31.168 38.9625 31.1735 43.1502L31.186 66.1217L31.1801 76.3147C31.1775 78.0023 31.3424 79.8825 31.0591 81.5372C30.4929 81.1478 29.7145 80.9182 29.0659 80.7036C29.2955 79.7196 29.1533 78.3123 29.1733 77.262C29.2278 73.2379 29.2442 69.2136 29.2226 65.1892L29.2729 45.6098C29.2877 41.147 29.3798 36.6269 29.1514 32.1719C29.7826 31.6081 30.4277 31.0071 31.1437 30.552Z" fill="#F8F7FE"/>
<path d="M133.259 28.8806C133.605 29.1134 133.945 29.3335 134.248 29.6227C134.15 31.8194 134.192 34.0274 134.19 36.226L134.183 46.6617L134.227 80.5394L134.23 92.3619C134.23 94.3068 134.379 96.3974 134.179 98.3289C131.273 98.4514 128.33 98.344 125.42 98.3386L112.066 98.3747C109.072 98.3773 106.067 98.3124 103.075 98.3963C103.366 99.154 103.69 99.9122 103.942 100.683L103.849 100.638C103.369 100.029 102.805 98.2976 102.62 97.5032L133.297 97.5178C133.426 90.896 133.315 84.2551 133.309 77.6312L133.311 46.9999L133.284 35.0741C133.276 33.0111 133.201 30.9426 133.259 28.8806Z" fill="#090817"/>
<path d="M143.179 36.125C143.862 36.6796 144.473 37.3133 145.097 37.9319L144.948 69.9729C144.926 72.6094 144.933 75.2459 144.967 77.8824C144.978 79.287 145.11 80.8146 144.938 82.2054C144.354 82.2054 143.768 82.1947 143.184 82.2277C143.366 81.5737 143.206 79.008 143.202 78.1912L143.188 68.9626L143.224 46.3907C143.222 42.9661 143.256 39.5494 143.179 36.125Z" fill="#F8F7FE"/>
</svg>
