<svg width="171" height="171" viewBox="0 0 171 171" fill="none" xmlns="http://www.w3.org/2000/svg">
<path d="M17.8042 114.145C17.5465 113.571 17.3782 112.898 17.1639 112.301C16.3518 110.095 15.6418 107.856 15.0341 105.585C14.872 104.992 14.7174 104.396 14.5701 103.799C14.4228 103.201 14.283 102.602 14.1506 102.001C14.0182 101.401 13.8932 100.798 13.7758 100.194C13.6583 99.5902 13.5484 98.9849 13.446 98.3783C13.3436 97.7715 13.2487 97.1637 13.1614 96.5547C13.0741 95.9456 12.9944 95.3355 12.9222 94.7245C12.85 94.1135 12.7855 93.5017 12.7285 92.8891C12.6715 92.2764 12.6222 91.6632 12.5804 91.0493C12.5387 90.4354 12.5046 89.8212 12.4781 89.2066C12.4516 88.5918 12.4327 87.9769 12.4215 87.3618C12.4103 86.7466 12.4067 86.1314 12.4108 85.5162C12.4149 84.9009 12.4266 84.2857 12.4459 83.6708C12.4652 83.0558 12.4922 82.4411 12.5268 81.8268C12.5614 81.2125 12.6036 80.5988 12.6535 79.9856C12.7033 79.3724 12.7608 78.7598 12.8258 78.148C12.8909 77.5361 12.9636 76.9252 13.0438 76.3153C13.124 75.7052 13.2118 75.0962 13.3071 74.4884C13.4025 73.8806 13.5054 73.2741 13.6158 72.6688C13.7262 72.0635 13.8441 71.4597 13.9695 70.8573C14.095 70.255 14.2278 69.6543 14.3682 69.0553C14.5085 68.4562 14.6562 67.859 14.8114 67.2636C14.9665 66.6682 15.1291 66.0748 15.299 65.4835C15.4689 64.8921 15.6461 64.3029 15.8306 63.716C16.0151 63.1291 16.2069 62.5445 16.406 61.9623C16.605 61.3801 16.8112 60.8005 17.0246 60.2234C17.2381 59.6464 17.4587 59.0721 17.6864 58.5005C17.9141 57.929 18.1488 57.3603 18.3906 56.7945C18.6326 56.2288 18.8814 55.6661 19.1371 55.1066C19.3929 54.5469 19.6557 53.9906 19.9253 53.4375C20.1948 52.8845 20.4713 52.335 20.7546 51.7888C21.0378 51.2425 21.3278 50.6999 21.6246 50.1609C21.9213 49.622 22.2247 49.0868 22.5347 48.5553C22.9257 47.8816 23.3277 47.2144 23.7407 46.5539C24.1538 45.8934 24.5776 45.2399 25.0124 44.5934C25.447 43.9469 25.8923 43.3078 26.3482 42.676C26.8039 42.0443 27.2701 41.4203 27.7467 40.804C28.2232 40.1877 28.7098 39.5795 29.2064 38.9793C29.703 38.3791 30.2095 37.7874 30.7257 37.204C31.2419 36.6205 31.7677 36.0458 32.3029 35.4798C32.8382 34.9138 33.3827 34.3569 33.9364 33.8089C34.2228 33.519 34.5115 33.2315 34.8025 32.9464C35.0936 32.6613 35.3871 32.3786 35.683 32.0984C35.9788 31.8183 36.277 31.5406 36.5774 31.2654C36.8779 30.9902 37.1807 30.7176 37.4857 30.4475C37.7907 30.1773 38.0981 29.9097 38.4077 29.6448C38.7172 29.3798 39.0289 29.1175 39.3428 28.8577C39.6568 28.598 39.9728 28.3409 40.291 28.0864C40.6093 27.832 40.9296 27.5803 41.252 27.3311C41.5746 27.0821 41.8991 26.8357 42.2256 26.592C42.5522 26.3483 42.8809 26.1074 43.2115 25.8693C43.5421 25.6311 43.8746 25.3958 44.2091 25.1632C44.5438 24.9306 44.8803 24.7009 45.2186 24.4739C45.557 24.247 45.8973 24.0229 46.2394 23.8017C46.5816 23.5804 46.9257 23.362 47.2714 23.1466C47.6172 22.9311 47.9648 22.7185 48.3141 22.5089C48.6636 22.2991 49.0147 22.0924 49.3675 21.8887C49.7203 21.6848 50.0749 21.484 50.4311 21.2862C50.7872 21.0883 51.145 20.8935 51.5045 20.7017C51.864 20.5099 52.225 20.3211 52.5876 20.1352C52.9503 19.9494 53.3145 19.7666 53.6801 19.5868C54.0458 19.4072 54.413 19.2305 54.7817 19.057C55.1504 18.8834 55.5204 18.713 55.8919 18.5456C56.2634 18.3783 56.6363 18.2141 57.0106 18.0529C57.3848 17.8918 57.7603 17.7338 58.1373 17.5791C58.5141 17.4242 58.8923 17.2726 59.2717 17.124C59.6512 16.9755 60.0319 16.8302 60.4137 16.6881C60.7956 16.546 61.1786 16.4071 61.5628 16.2714C61.947 16.1357 62.3323 16.0032 62.7187 15.874C63.1051 15.7448 63.4926 15.6187 63.8812 15.496C64.2697 15.3732 64.6592 15.2537 65.0496 15.1375C65.4401 15.0213 65.8316 14.9083 66.2241 14.7986C66.6165 14.689 67.0098 14.5826 67.404 14.4795C70.1397 13.7385 73.0036 13.2917 75.8102 12.9073C92.4644 10.6263 108.458 14.0875 122.983 22.4414C122.901 22.6029 122.824 22.7709 122.733 22.9274C122.312 22.9659 122.047 23.177 121.78 23.4981C121.602 23.7127 121.452 23.9547 121.3 24.1885C122.359 25.0001 123.542 25.6209 124.654 26.3552C126.372 27.5009 128.019 28.7418 129.595 30.078C141.175 39.9039 149.329 51.9105 153.556 66.5549C154.475 69.7403 155.24 72.9327 155.675 76.2232C155.792 77.0782 155.895 77.935 155.983 78.7934C156.072 79.6519 156.145 80.5116 156.204 81.3726C156.262 82.2336 156.306 83.0954 156.335 83.9578C156.364 84.8204 156.379 85.6832 156.378 86.5462C156.378 87.4091 156.362 88.2718 156.332 89.1344C156.302 89.9969 156.257 90.8585 156.197 91.7194C156.138 92.5803 156.063 93.44 155.974 94.2983C155.885 95.1568 155.781 96.0134 155.662 96.8681C155.33 99.0997 154.803 101.29 154.376 103.503C154.951 103.897 155.433 104.375 155.566 105.083C155.843 106.56 155.665 109.009 155.664 110.56C155.693 114.122 155.694 117.685 155.668 121.248L155.696 140.587C155.688 142.696 155.754 144.827 155.69 146.934C155.677 147.353 155.64 148.18 155.39 148.512C155.16 148.817 154.741 148.965 154.38 149.004C153.481 149.101 152.523 149.033 151.619 149.028L146.096 148.981L128.46 149C126.1 149.02 123.664 148.84 121.316 149.025C119.56 150.28 117.522 151.251 115.566 152.149C110.786 154.345 105.854 156.11 100.698 157.199C100.29 157.288 99.8816 157.374 99.472 157.456C99.0625 157.538 98.6522 157.616 98.2411 157.691C97.8302 157.766 97.4186 157.837 97.0064 157.904C96.5942 157.972 96.1813 158.036 95.768 158.096C95.3546 158.156 94.9408 158.213 94.5264 158.266C94.112 158.319 93.6972 158.368 93.282 158.413C92.8667 158.459 92.4511 158.501 92.0352 158.539C91.6193 158.577 91.203 158.612 90.7864 158.643C90.3699 158.674 89.953 158.701 89.5358 158.724C89.1188 158.748 88.7016 158.767 88.2842 158.784C87.8667 158.8 87.4492 158.812 87.0316 158.821C86.614 158.829 86.1963 158.834 85.7785 158.836C85.3608 158.837 84.9431 158.835 84.5254 158.828C84.1078 158.822 83.6902 158.812 83.2726 158.799C82.8551 158.786 82.4378 158.768 82.0207 158.748C81.6034 158.727 81.1864 158.702 80.7697 158.674C80.3529 158.646 79.9365 158.614 79.5203 158.578C79.104 158.542 78.6882 158.503 78.2727 158.46C77.8572 158.417 77.4421 158.371 77.0275 158.32C76.6128 158.27 76.1986 158.216 75.7849 158.158C75.3711 158.101 74.9579 158.04 74.5453 157.975C74.1326 157.91 73.7206 157.841 73.3092 157.769C72.8977 157.697 72.4869 157.621 72.0768 157.541C71.6668 157.462 71.2574 157.378 70.8487 157.292C70.4402 157.205 70.0324 157.115 69.6254 157.021C69.2183 156.927 68.8122 156.829 68.407 156.728C68.0016 156.627 67.5972 156.522 67.1938 156.414C66.7903 156.305 66.3879 156.194 65.9864 156.078C65.585 155.963 65.1846 155.844 64.7853 155.721C64.3859 155.599 63.9877 155.473 63.5906 155.343C63.1935 155.214 62.7975 155.08 62.4028 154.944C62.008 154.807 61.6145 154.667 61.2221 154.524C57.2547 153.069 53.547 151.376 49.9986 149.064C49.4592 149.065 48.9148 149.089 48.3818 148.994C47.196 148.891 45.918 148.98 44.7243 148.98C42.3879 148.98 22.9948 149.176 22.5108 148.918C21.9007 148.592 22.5037 145.861 22.598 145.218C22.7268 144.34 23.0312 143.187 22.9186 142.319C22.764 141.126 22.1141 139.793 21.7048 138.657L20.0115 133.86C19.3144 131.932 18.6884 129.981 18.0029 128.049C16.8049 124.741 15.6407 121.421 14.5101 118.089C15.5141 116.718 16.7386 115.475 17.8042 114.145Z" fill="black"/>
<path d="M17.8042 114.145C17.5465 113.571 17.3782 112.898 17.1639 112.301C16.3518 110.095 15.6418 107.856 15.0341 105.585C14.872 104.992 14.7174 104.396 14.5701 103.799C14.4228 103.201 14.283 102.602 14.1506 102.001C14.0182 101.401 13.8932 100.798 13.7758 100.194C13.6583 99.5902 13.5484 98.9849 13.446 98.3783C13.3436 97.7715 13.2487 97.1637 13.1614 96.5547C13.0741 95.9456 12.9944 95.3355 12.9222 94.7245C12.85 94.1135 12.7855 93.5017 12.7285 92.8891C12.6715 92.2764 12.6222 91.6632 12.5804 91.0493C12.5387 90.4354 12.5046 89.8212 12.4781 89.2066C12.4516 88.5918 12.4327 87.9769 12.4215 87.3618C12.4103 86.7466 12.4067 86.1314 12.4108 85.5162C12.4149 84.9009 12.4266 84.2857 12.4459 83.6708C12.4652 83.0558 12.4922 82.4411 12.5268 81.8268C12.5614 81.2125 12.6036 80.5988 12.6535 79.9856C12.7033 79.3724 12.7608 78.7598 12.8258 78.148C12.8909 77.5361 12.9636 76.9252 13.0438 76.3153C13.124 75.7052 13.2118 75.0962 13.3071 74.4884C13.4025 73.8806 13.5054 73.2741 13.6158 72.6688C13.7262 72.0635 13.8441 71.4597 13.9695 70.8573C14.095 70.255 14.2278 69.6543 14.3682 69.0553C14.5085 68.4562 14.6562 67.859 14.8114 67.2636C14.9665 66.6682 15.1291 66.0748 15.299 65.4835C15.4689 64.8921 15.6461 64.3029 15.8306 63.716C16.0151 63.1291 16.2069 62.5445 16.406 61.9623C16.605 61.3801 16.8112 60.8005 17.0246 60.2234C17.2381 59.6464 17.4587 59.0721 17.6864 58.5005C17.9141 57.929 18.1488 57.3603 18.3906 56.7945C18.6326 56.2288 18.8814 55.6661 19.1371 55.1066C19.3929 54.5469 19.6557 53.9906 19.9253 53.4375C20.1948 52.8845 20.4713 52.335 20.7546 51.7888C21.0378 51.2425 21.3278 50.6999 21.6246 50.1609C21.9213 49.622 22.2247 49.0868 22.5347 48.5553C22.9257 47.8816 23.3277 47.2144 23.7407 46.5539C24.1538 45.8934 24.5776 45.2399 25.0124 44.5934C25.447 43.9469 25.8923 43.3078 26.3482 42.676C26.8039 42.0443 27.2701 41.4203 27.7467 40.804C28.2232 40.1877 28.7098 39.5795 29.2064 38.9793C29.703 38.3791 30.2095 37.7874 30.7257 37.204C31.2419 36.6205 31.7677 36.0458 32.3029 35.4798C32.8382 34.9138 33.3827 34.3569 33.9364 33.8089C34.2228 33.519 34.5115 33.2315 34.8025 32.9464C35.0936 32.6613 35.3871 32.3786 35.683 32.0984C35.9788 31.8183 36.277 31.5406 36.5774 31.2654C36.8779 30.9902 37.1807 30.7176 37.4857 30.4475C37.7907 30.1773 38.0981 29.9097 38.4077 29.6448C38.7172 29.3798 39.0289 29.1175 39.3428 28.8577C39.6568 28.598 39.9728 28.3409 40.291 28.0864C40.6093 27.832 40.9296 27.5803 41.252 27.3311C41.5746 27.0821 41.8991 26.8357 42.2256 26.592C42.5522 26.3483 42.8809 26.1074 43.2115 25.8693C43.5421 25.6311 43.8746 25.3958 44.2091 25.1632C44.5438 24.9306 44.8803 24.7009 45.2186 24.4739C45.557 24.247 45.8973 24.0229 46.2394 23.8017C46.5816 23.5804 46.9257 23.362 47.2714 23.1466C47.6172 22.9311 47.9648 22.7185 48.3141 22.5089C48.6636 22.2991 49.0147 22.0924 49.3675 21.8887C49.7203 21.6848 50.0749 21.484 50.4311 21.2862C50.7872 21.0883 51.145 20.8935 51.5045 20.7017C51.864 20.5099 52.225 20.3211 52.5876 20.1352C52.9503 19.9494 53.3145 19.7666 53.6801 19.5868C54.0458 19.4072 54.413 19.2305 54.7817 19.057C55.1504 18.8834 55.5204 18.713 55.8919 18.5456C56.2634 18.3783 56.6363 18.2141 57.0106 18.0529C57.3848 17.8918 57.7603 17.7338 58.1373 17.5791C58.5141 17.4242 58.8923 17.2726 59.2717 17.124C59.6512 16.9755 60.0319 16.8302 60.4137 16.6881C60.7956 16.546 61.1786 16.4071 61.5628 16.2714C61.947 16.1357 62.3323 16.0032 62.7187 15.874C63.1051 15.7448 63.4926 15.6187 63.8812 15.496C64.2697 15.3732 64.6592 15.2537 65.0496 15.1375C65.4401 15.0213 65.8316 14.9083 66.2241 14.7986C66.6165 14.689 67.0098 14.5826 67.404 14.4795C70.1397 13.7385 73.0036 13.2917 75.8102 12.9073C92.4644 10.6263 108.458 14.0875 122.983 22.4414C122.901 22.6029 122.824 22.7709 122.733 22.9274C122.312 22.9659 122.047 23.177 121.78 23.4981C121.602 23.7127 121.452 23.9547 121.3 24.1885C122.359 25.0001 123.542 25.6209 124.654 26.3552C126.372 27.5009 128.019 28.7418 129.595 30.078C141.175 39.9039 149.329 51.9105 153.556 66.5549C154.475 69.7403 155.24 72.9327 155.675 76.2232C155.792 77.0782 155.895 77.935 155.983 78.7934C156.072 79.6519 156.145 80.5116 156.204 81.3726C156.262 82.2336 156.306 83.0954 156.335 83.9578C156.364 84.8204 156.379 85.6832 156.378 86.5462C156.378 87.4091 156.362 88.2718 156.332 89.1344C156.302 89.9969 156.257 90.8585 156.197 91.7194C156.138 92.5803 156.063 93.44 155.974 94.2983C155.885 95.1568 155.781 96.0134 155.662 96.8681C155.33 99.0997 154.803 101.29 154.376 103.503C153.861 103.394 153.356 103.407 152.835 103.436C152.108 103.306 151.297 103.359 150.558 103.351L146.333 103.319L140.154 103.295C138.93 103.292 137.671 103.235 136.452 103.331C136.19 100.816 135.677 98.6373 133.618 96.9637C131.243 95.0331 128.47 95.3599 125.606 95.3398C124.334 95.3308 122.998 95.241 121.735 95.3783C120.013 95.5653 118.729 96.3147 117.462 97.4548L110.494 67.4256C109.8 64.3956 109.089 61.3695 108.361 58.3474C108.059 57.0674 107.862 55.6869 107.462 54.4399C107.426 54.3264 107.397 54.1429 107.295 54.0731C107.078 53.9253 106.731 53.9446 106.48 53.9507C104.683 53.9941 102.864 54.1778 101.067 54.2858L89.9019 54.955L61.5872 56.5719L41.4513 57.74L35.9373 58.069C34.6919 58.1385 33.4193 58.154 32.1857 58.3442C31.9359 59.5836 31.8277 60.8646 31.6695 62.1196L30.8499 68.5593L27.9164 91.4311C27.6687 93.168 27.4342 94.9067 27.213 96.6472C27.0776 97.709 27.0004 98.8179 26.7583 99.8611C25.5384 100.24 23.9319 100.555 22.8096 101.08C22.9504 102.002 23.3002 102.923 23.5774 103.813L24.9037 108.061C25.1538 108.866 25.5583 109.804 25.5406 110.649C25.5154 111.855 25.0832 113.088 24.8711 114.274C24.6741 112.857 23.789 109.562 23.1294 108.315L23.0043 108.258C21.9533 108.888 18.8619 112.965 17.8042 114.145Z" fill="#4075D7"/>
<path d="M32.7762 58.9807C37.7913 58.7701 42.8036 58.3782 47.8157 58.0966L88.1099 55.7769C94.1749 55.4266 100.24 55.0011 106.308 54.718C106.227 56.1047 105.986 57.5038 105.837 58.8863L104.915 67.6457L102.712 89.0571C102.226 93.7192 101.625 98.3863 101.256 103.059C99.8054 103.057 96.8845 102.706 95.8251 103.756C95.434 104.143 95.192 104.637 95.0743 105.171C94.8581 106.152 94.9648 109.528 95.0246 110.675C95.0266 110.712 95.0316 110.75 95.0351 110.787C95.0169 112.225 94.8217 115.494 95.0284 116.734C95.1039 117.186 95.2747 117.657 95.589 118C95.7951 118.225 96.0572 118.387 96.3278 118.522L96.3366 137.75L96.3318 143.062C96.3294 144.073 96.2832 145.115 96.365 146.123C96.4201 146.912 96.5497 147.509 96.8778 148.232L42.1652 148.247C42.1032 147.463 41.8908 143.442 42.1418 142.906C42.2325 142.713 42.3928 142.487 42.3709 142.271C42.259 141.165 41.6418 139.928 41.2783 138.881C40.8598 137.64 40.4511 136.395 40.0521 135.147L32.3509 111.987L29.7234 103.949C29.2929 102.605 28.962 101.049 28.3516 99.7854C28.2699 99.6162 28.2068 99.4961 28.0592 99.3746C27.8847 99.416 27.8054 99.4439 27.6265 99.4051C27.5385 98.31 27.8713 96.9822 28.0216 95.8818L28.9908 88.7904L31.5335 68.738C31.9429 65.4848 32.428 62.2414 32.7762 58.9807Z" fill="#FEFEFE"/>
<path d="M68.6544 70.1737C69.4363 70.1568 70.2126 70.2158 70.9831 70.3506C73.1907 70.7555 75.3224 72.284 76.5783 74.1258C76.6993 74.3053 76.814 74.4889 76.9225 74.6763C77.031 74.8638 77.133 75.0547 77.2284 75.2491C77.3238 75.4436 77.4125 75.6411 77.4946 75.8414C77.5765 76.0419 77.6516 76.245 77.7197 76.4505C77.7878 76.6561 77.8489 76.8638 77.9029 77.0735C77.9569 77.2833 78.0036 77.4946 78.0432 77.7074C78.0828 77.9204 78.1151 78.1344 78.14 78.3495C78.165 78.5647 78.1825 78.7804 78.1928 78.9968C78.2816 80.9369 77.4186 84.3848 77.0741 86.4638C76.4178 90.4234 75.8811 94.4168 75.1283 98.3578L62.0789 98.355C58.8239 98.3731 55.5689 98.3686 52.3138 98.3413C52.414 97.2078 52.6988 96.0485 52.9047 94.928C53.2871 92.8031 53.6838 90.6808 54.095 88.5612L55.0246 83.6882C55.292 82.2746 55.5089 80.8287 55.9989 79.4717C56.1523 79.0499 56.3253 78.6362 56.518 78.2308C56.7106 77.8253 56.922 77.4299 57.1521 77.0445C57.3823 76.659 57.6303 76.2854 57.8959 75.9236C58.1614 75.5617 58.4435 75.2132 58.7422 74.8781C61.4032 71.9502 64.7047 70.3447 68.6544 70.1737Z" fill="black"/>
<path d="M71.9492 71.2197C72.0323 71.3824 71.4308 72.4104 71.3038 72.6767C70.1225 75.1549 68.9978 77.7501 68.3194 80.4172C67.2071 84.791 67.0356 89.6533 69.4056 93.6428C71.326 93.5322 73.2633 93.4242 75.1873 93.4385C75.0155 94.8348 74.7433 96.2306 74.519 97.6205C70.0306 97.7832 65.5061 97.6882 61.0144 97.6786L53.1527 97.6733C53.3529 96.3238 53.6073 94.9846 53.9159 93.6558C54.7921 93.6045 55.6806 93.6348 56.5585 93.6359C58.4871 86.5354 62.2822 82.8075 66.7654 77.4013L69.7825 73.8103C70.4959 72.9469 71.1705 72.023 71.9492 71.2197Z" fill="#FEFEFE"/>
<path d="M127.175 125.604C129.871 124.701 132.619 123.951 135.345 123.143C137.422 122.528 139.479 121.846 141.562 121.253L146.733 119.747C147.751 119.447 148.8 119.181 149.794 118.815C150.25 118.647 150.927 118.403 151.202 117.99C151.455 117.611 151.579 117.156 151.64 116.709C151.74 115.971 151.676 115.177 151.674 114.432L151.671 110.593C151.671 109.264 151.419 105.889 152.087 104.852C152.314 104.5 152.66 104.286 153.066 104.209C152.888 104.665 152.831 105.053 152.817 105.536C152.739 108.24 152.801 110.964 152.802 113.671L152.877 133.302L152.879 143.446C152.878 144.936 152.715 146.756 152.916 148.2C153.057 148.35 152.978 148.303 153.141 148.36C145.945 148.264 138.75 148.255 131.554 148.331L98.1161 148.279C97.1659 147.707 96.8569 147.061 96.3653 146.123C96.2835 145.115 96.3297 144.073 96.3321 143.062L96.3369 137.75L96.3281 118.523C102.194 120.425 108.118 122.166 114.009 123.992L118.018 125.194C118.991 125.485 120.017 125.732 120.921 126.205C121.129 126.976 121.556 127.599 122.263 127.996C122.894 128.351 123.64 128.409 124.33 128.203C124.615 128.118 124.843 127.989 125.085 127.82C125.647 127.855 126.193 127.852 126.63 127.445C127.151 126.961 127.17 126.263 127.175 125.604Z" fill="#FDCC33"/>
<path d="M102.02 103.103C103.369 103.128 114.799 103.314 115.126 103.115L115.196 102.667C115.21 102.933 115.175 103.071 115.343 103.284C115.568 103.325 115.758 103.311 115.983 103.289C116.632 103.278 117.281 103.272 117.93 103.27L118.733 103.277L129.607 103.26C131.605 103.261 133.619 103.212 135.614 103.301C135.909 103.378 136.15 103.358 136.452 103.331C137.671 103.235 138.93 103.292 140.153 103.295L146.333 103.319L150.558 103.351C151.296 103.359 152.108 103.305 152.835 103.436C152.106 103.82 151.45 104.149 151.172 104.984C150.726 106.328 150.979 112.366 150.992 114.166C150.998 114.966 151.084 115.857 150.93 116.642C150.839 117.11 150.65 117.666 150.203 117.906C149.236 118.426 146.064 119.169 144.779 119.556L132.989 123.094C131.062 123.668 129.07 124.166 127.17 124.815C127.167 123.47 127.174 122.126 127.19 120.781C127.201 119.84 127.302 118.789 127.133 117.865C127.077 117.56 126.975 117.303 126.759 117.078C126.397 116.7 125.845 116.51 125.331 116.494C125.573 116.94 125.72 117.329 125.783 117.834C125.911 118.883 126.001 125.738 125.749 126.633C125.624 127.075 125.345 127.448 125.085 127.82C124.843 127.988 124.614 128.118 124.33 128.203C123.64 128.409 122.894 128.351 122.263 127.996C121.555 127.599 121.129 126.976 120.921 126.204C120.017 125.732 118.99 125.485 118.018 125.194L114.009 123.992C108.118 122.166 102.194 120.425 96.328 118.523C96.0575 118.388 95.7953 118.225 95.5892 118C95.2749 117.658 95.1041 117.186 95.0286 116.734C94.8219 115.494 95.0171 112.225 95.0353 110.787C95.0318 110.75 95.0268 110.713 95.0248 110.675C94.965 109.528 94.8583 106.153 95.0745 105.171C95.1923 104.638 95.4342 104.143 95.8253 103.756C96.8847 102.707 99.8056 103.058 101.257 103.059L102.02 103.103Z" fill="#FDCC33"/>
<path d="M120.9 125.365L120.916 120.703C120.92 119.71 120.858 118.638 121.023 117.659C121.095 117.233 121.218 116.838 121.509 116.509C122 115.956 122.682 115.794 123.391 115.757C124.261 115.711 124.696 115.919 125.331 116.494C125.573 116.94 125.721 117.329 125.783 117.834C125.912 118.882 126.001 125.738 125.749 126.633C125.624 127.075 125.345 127.448 125.086 127.82C124.844 127.988 124.615 128.118 124.33 128.203C123.641 128.409 122.895 128.351 122.263 127.996C121.556 127.599 121.129 126.976 120.921 126.204L120.9 125.365Z" fill="#FEFEFE"/>
<path d="M95.0353 110.787C95.5715 111.854 95.3411 114.589 95.7036 115.895C95.7337 116.454 95.6795 117.06 96.1321 117.467C96.24 117.563 96.239 117.56 96.3425 117.637C97.5732 118.363 101.799 119.451 103.369 119.93L117.37 124.23C118.514 124.577 119.737 125.15 120.899 125.365L120.921 126.204C120.017 125.732 118.99 125.485 118.018 125.194L114.009 123.992C108.118 122.166 102.194 120.424 96.328 118.523C96.0575 118.388 95.7953 118.225 95.5892 118C95.2749 117.657 95.1041 117.186 95.0286 116.734C94.8219 115.494 95.0171 112.225 95.0353 110.787Z" fill="black"/>
<path d="M95.7034 115.895C95.7209 115.859 95.7396 115.824 95.7561 115.788C95.9599 115.341 96.0472 107.766 96.0666 106.678C96.1446 107.514 96.1006 108.346 96.1107 109.184L96.2052 113.65C96.2262 114.553 96.5484 116.89 96.3423 117.637C96.2387 117.56 96.2397 117.563 96.1319 117.467C95.6793 117.06 95.7334 116.454 95.7034 115.895Z" fill="#FEFEFE"/>
<path d="M48.3811 148.994C53.048 148.894 57.7317 148.962 62.4006 148.962L89.2319 148.979L110.578 148.985C114.14 148.991 117.76 148.877 121.316 149.025C119.56 150.28 117.521 151.25 115.566 152.149C110.786 154.345 105.854 156.11 100.698 157.198C100.29 157.288 99.8809 157.373 99.4714 157.455C99.0618 157.538 98.6515 157.616 98.2405 157.691C97.8296 157.766 97.418 157.837 97.0057 157.904C96.5935 157.972 96.1807 158.036 95.7673 158.096C95.354 158.156 94.9401 158.213 94.5257 158.266C94.1114 158.319 93.6965 158.368 93.2813 158.413C92.866 158.459 92.4505 158.501 92.0345 158.539C91.6186 158.577 91.2024 158.612 90.7858 158.643C90.3692 158.673 89.9523 158.701 89.5352 158.724C89.1181 158.747 88.7009 158.767 88.2836 158.783C87.8661 158.799 87.4485 158.812 87.031 158.82C86.6134 158.829 86.1957 158.834 85.7778 158.835C85.3601 158.837 84.9424 158.834 84.5247 158.828C84.1071 158.822 83.6895 158.812 83.2719 158.799C82.8545 158.785 82.4372 158.768 82.02 158.747C81.6028 158.727 81.1858 158.702 80.7691 158.674C80.3523 158.646 79.9358 158.614 79.5196 158.578C79.1034 158.542 78.6875 158.503 78.272 158.46C77.8566 158.417 77.4415 158.371 77.0268 158.32C76.6121 158.27 76.1979 158.216 75.7842 158.158C75.3704 158.101 74.9572 158.039 74.5446 157.974C74.1319 157.909 73.7199 157.841 73.3085 157.769C72.8971 157.696 72.4863 157.621 72.0761 157.541C71.6661 157.461 71.2568 157.378 70.8481 157.292C70.4395 157.205 70.0317 157.114 69.6247 157.02C69.2177 156.926 68.8115 156.829 68.4063 156.728C68.001 156.627 67.5966 156.522 67.1931 156.414C66.7897 156.305 66.3872 156.193 65.9858 156.078C65.5843 155.963 65.1839 155.844 64.7846 155.721C64.3852 155.599 63.987 155.473 63.5899 155.343C63.1928 155.213 62.7969 155.08 62.4021 154.944C62.0073 154.807 61.6138 154.667 61.2215 154.524C57.2541 153.069 53.5463 151.376 49.9979 149.063C49.4585 149.065 48.9141 149.089 48.3811 148.994Z" fill="#4075D7"/>
<path d="M106.942 55.605C107.623 57.946 108.119 60.3746 108.653 62.7532C109.254 65.4537 109.884 68.1473 110.544 70.8338C112.032 77.0592 113.473 83.2955 114.866 89.5428C115.506 92.3626 116.265 95.1674 116.822 98.004C115.805 99.6224 115.32 100.738 115.197 102.667L115.126 103.115C114.8 103.313 103.369 103.128 102.021 103.102C102.077 101.403 102.331 99.6791 102.499 97.9859L103.566 87.593L106.942 55.605Z" fill="#FEFEFE"/>
<path d="M117.669 98.2088C120.434 95.9081 121.888 96.0779 125.332 96.0713C126.715 96.0688 128.142 96.0043 129.52 96.1279C131.259 96.2838 132.887 97.0876 134.008 98.4365C135.241 99.9203 135.482 101.436 135.613 103.301C133.618 103.212 131.604 103.261 129.606 103.26L118.732 103.277C118.448 101.576 118.047 99.8915 117.669 98.2088Z" fill="#4075D7"/>
<path d="M153.065 104.209C153.532 104.101 153.932 104.061 154.366 104.308C154.693 104.494 154.886 104.819 154.973 105.177C155.222 106.204 155.05 107.64 155.05 108.715L155.061 116L155.052 135.107C155.056 138.974 155.128 142.853 155.057 146.719C155.05 147.138 155.051 147.591 154.941 147.998C154.748 148.231 154.572 148.315 154.276 148.351C153.904 148.395 153.512 148.369 153.139 148.36C152.976 148.303 153.056 148.35 152.914 148.2C152.714 146.755 152.876 144.935 152.877 143.446L152.875 133.302L152.8 113.671C152.799 110.964 152.737 108.24 152.816 105.535C152.83 105.053 152.886 104.665 153.065 104.209Z" fill="#FEFEFE"/>
<path d="M115.982 103.289C115.961 101.748 116.164 100.337 117.056 99.0403C117.44 100.421 117.8 101.839 117.929 103.27C117.28 103.272 116.631 103.278 115.982 103.289Z" fill="#FEFEFE"/>
<path d="M22.8013 109.344C23.0466 110.062 23.2383 110.805 23.4509 111.534C23.7583 112.663 24.0038 113.956 24.4664 115.023L31.8943 136.595C32.8347 139.241 33.6989 141.906 34.7432 144.515C32.9069 145.369 31.0578 146.194 29.1959 146.99C28.1044 147.463 26.9848 148.01 25.8377 148.329L19.3871 129.975C18.934 128.63 18.4677 127.29 17.9882 125.954C17.7232 125.217 17.3752 124.444 17.1897 123.685C16.8024 122.337 16.2299 121.018 15.8007 119.678C15.7213 119.184 15.4544 118.629 15.2856 118.151C17.8535 115.271 20.2378 112.228 22.8013 109.344Z" fill="#FDCC33"/>
<path d="M22.8013 109.344C23.0466 110.062 23.2383 110.805 23.4509 111.534C23.7583 112.663 24.0038 113.956 24.4664 115.023C22.8078 116.968 21.1709 118.931 19.5558 120.912C18.8103 121.812 18.0739 122.921 17.1897 123.685C16.8024 122.337 16.2299 121.018 15.8007 119.678C15.7213 119.184 15.4544 118.629 15.2856 118.151C17.8535 115.271 20.2378 112.228 22.8013 109.344Z" fill="#FEFEFE"/>
<path d="M22.8013 109.344C23.0466 110.062 23.2383 110.805 23.4509 111.534C21.9503 113.08 20.4631 114.676 19.0152 116.273C17.976 117.419 16.9682 118.662 15.8007 119.678C15.7213 119.184 15.4544 118.629 15.2856 118.151C17.8535 115.271 20.2378 112.228 22.8013 109.344Z" fill="#FDCC33"/>
<path d="M23.5679 101.558C25.01 101.128 26.4426 100.668 27.8658 100.178C28.2003 101.414 28.5471 102.635 28.9865 103.839L30.3224 107.902C31.0676 110.469 32.0052 112.978 32.8357 115.518C34.6589 121.189 36.5283 126.846 38.4439 132.487L40.4398 138.435C40.8491 139.659 41.3104 140.892 41.6206 142.145C40.349 142.627 39.0748 143.103 37.798 143.571C37.2912 142.393 36.9066 141.155 36.4886 139.943L34.6602 134.701L29.0521 118.395C28.1575 115.753 27.3211 113.085 26.3851 110.458C25.9492 109.086 25.5266 107.71 25.1173 106.331C24.6602 104.732 24.0788 103.142 23.5679 101.558Z" fill="#FEFEFE"/>
<path d="M23.5679 101.558C25.01 101.128 26.4426 100.668 27.8658 100.178C28.2003 101.414 28.5471 102.635 28.9865 103.839C27.7205 104.691 26.4611 105.607 25.1173 106.331C24.6602 104.732 24.0788 103.142 23.5679 101.558Z" fill="#FEFEFE"/>
<path d="M25.1187 106.331C26.4625 105.607 27.722 104.691 28.9879 103.839L30.3239 107.902L26.3865 110.458C25.9507 109.086 25.5281 107.71 25.1187 106.331Z" fill="#FDCC33"/>
<path d="M26.3903 112.93C26.5713 113.097 26.6414 113.384 26.7241 113.613C28.0255 117.204 29.1911 120.861 30.4178 124.48C32.1187 129.487 33.8557 134.482 35.6288 139.464C36.1361 140.9 36.4841 142.601 37.1822 143.942C37.3138 144.195 37.4058 144.271 37.6838 144.347C38.2785 144.508 40.4667 147.535 40.971 148.196C38.1589 148.31 35.3371 148.269 32.5226 148.302C30.9953 148.332 29.4681 148.328 27.941 148.292C29.149 147.712 30.4198 147.241 31.649 146.705C32.9706 146.127 34.2621 145.475 35.562 144.85C33.1708 138.614 31.1058 132.231 28.9506 125.91C27.7361 122.348 26.3058 118.808 25.2457 115.201C25.6928 114.472 25.9746 113.673 26.3903 112.93Z" fill="#FEFEFE"/>
<path d="M41.3255 143.042C41.5076 143.477 41.347 146.799 41.3401 147.473L40.0755 145.923C39.5565 145.307 39.0492 144.694 38.5791 144.039C39.4966 143.712 40.412 143.38 41.3255 143.042Z" fill="#FEFEFE"/>
<path d="M23.4875 143.755C23.915 144.579 24.2577 145.69 24.4721 146.593C24.5791 147.044 24.7505 147.882 24.4938 148.296L24.3183 148.325L22.9388 148.29C23.1053 146.777 23.2882 145.265 23.4875 143.755Z" fill="#FEFEFE"/>
<path d="M122.983 22.4412C124.796 23.2185 127.648 25.4884 129.308 26.7741C129.643 27.0338 129.977 27.2964 130.308 27.5616C130.64 27.8271 130.969 28.0952 131.296 28.366C131.623 28.6369 131.947 28.9105 132.27 29.1868C132.592 29.4631 132.912 29.7421 133.23 30.0238C133.547 30.3054 133.863 30.5898 134.175 30.8768C134.488 31.1638 134.799 31.4534 135.107 31.7456C135.415 32.0379 135.72 32.3326 136.023 32.6299C136.326 32.9272 136.627 33.2271 136.925 33.5296C137.223 33.832 137.518 34.1369 137.811 34.4442C138.104 34.7516 138.394 35.0614 138.682 35.3735C138.969 35.6858 139.254 36.0005 139.537 36.3175C139.819 36.6345 140.099 36.9538 140.376 37.2756C140.653 37.5973 140.927 37.9213 141.199 38.2476C141.47 38.5741 141.739 38.9027 142.005 39.2336C142.271 39.5643 142.534 39.8974 142.795 40.2327C143.055 40.568 143.313 40.9054 143.567 41.245C143.822 41.5847 144.074 41.9264 144.323 42.2702C144.572 42.614 144.818 42.9599 145.061 43.3078C145.305 43.6559 145.545 44.0059 145.782 44.3579C146.02 44.7099 146.254 45.0639 146.485 45.4198C146.717 45.7758 146.945 46.1337 147.17 46.4936C147.396 46.8533 147.618 47.2149 147.837 47.5785C148.057 47.942 148.273 48.3073 148.486 48.6745C148.699 49.0416 148.909 49.4106 149.116 49.7813C149.323 50.152 149.527 50.5244 149.727 50.8985C149.928 51.2726 150.126 51.6484 150.32 52.0258C150.514 52.4032 150.706 52.7823 150.894 53.1629C151.082 53.5435 151.266 53.9258 151.448 54.3096C151.63 54.6934 151.808 55.0786 151.983 55.4654C152.158 55.8521 152.33 56.2403 152.498 56.63C152.667 57.0195 152.832 57.4105 152.994 57.8029C153.156 58.1954 153.315 58.5891 153.47 58.9842C153.834 59.8853 154.179 60.7933 154.507 61.708C154.835 62.6229 155.144 63.5439 155.435 64.4709C155.726 65.398 155.998 66.3305 156.253 67.2684C156.507 68.2062 156.742 69.1487 156.959 70.0959C157.175 71.0432 157.373 71.9943 157.552 72.9493C157.731 73.9044 157.891 74.8626 158.032 75.8239C158.173 76.7853 158.295 77.7492 158.398 78.7154C158.501 79.6816 158.585 80.6495 158.649 81.619C158.722 82.6973 158.973 84.1121 158.764 85.1596C158.634 85.3147 158.603 85.3543 158.417 85.4263C158.237 85.3144 158.192 85.2314 158.142 85.0222C157.983 84.3617 158.076 83.5703 158.06 82.8883C158.044 82.214 157.975 81.5359 157.92 80.8637C157.665 77.7631 157.223 74.6896 156.592 71.6431C152.592 53.1106 141.601 35.7327 125.823 25.0217C124.799 24.3267 123.708 23.6859 122.733 22.9271C122.824 22.7706 122.901 22.6026 122.983 22.4412Z" fill="black"/>
</svg>
