<svg width="177" height="177" viewBox="0 0 177 177" fill="none" xmlns="http://www.w3.org/2000/svg">
<g clip-path="url(#clip0_201_2529)">
<path d="M59.5225 149.611C59.2702 149.417 59.0354 149.211 58.8074 148.989C57.7975 148.005 57.3041 146.974 57.2884 145.55C57.2167 139.068 57.3306 132.569 57.3574 126.086L57.3697 100.871L57.3328 86.6141C57.3285 84.7518 57.1545 81.981 57.3648 80.2053C57.4784 79.2459 57.9361 78.4605 58.6097 77.7821C59.1419 77.2459 59.8762 76.7921 60.6357 76.6955C62.4199 76.4684 64.3634 76.6029 66.1645 76.6018L76.4672 76.6053L110.675 76.6409C116.427 76.7859 122.213 76.6558 127.968 76.6542L141.033 76.6414C143.036 76.6402 145.048 76.6881 147.05 76.6518L151.547 76.6438C152.633 76.64 153.838 76.524 154.902 76.7595C155.715 76.9392 156.525 77.3551 157.115 77.9468C157.66 78.4933 158.102 79.3268 158.204 80.09C158.306 80.8569 158.252 81.6945 158.255 82.4682L158.262 86.9444L158.275 102.019L158.308 127.053C158.352 131.863 158.343 136.673 158.28 141.483C158.267 142.741 158.327 144.003 158.293 145.26C158.256 146.67 157.932 148.021 156.866 149.025C156.661 149.218 156.438 149.393 156.216 149.566C157.483 149.569 166.397 149.446 166.99 149.752C167.228 150.858 167.092 154.373 166.496 155.304C166.354 155.525 166.167 155.73 165.981 155.914L177.001 155.924V156.632L60.3399 156.67L25.8877 156.818C22.2817 156.804 18.6454 156.919 15.0435 156.789C14.455 156.768 13.9363 156.689 13.4356 156.357C12.759 155.907 12.2654 155.247 12.1343 154.432C11.9833 153.494 12.0701 152.438 12.0722 151.489L12.0805 146.203C12.0789 143.2 12.0863 115.907 12.0374 115.806C11.9316 115.589 11.7155 115.683 11.6587 115.34C11.5995 114.984 11.6191 112.326 11.716 112.156C11.7607 112.077 11.8261 112.012 11.8797 111.939C11.9426 111.854 12.0585 111.715 12.087 111.615C12.1544 111.381 11.8899 108.587 11.8834 108.097C11.8787 107.737 12.0702 107.401 12.0216 107.05C11.977 106.728 11.734 106.464 11.702 106.133C11.6216 105.305 11.5755 104.126 11.7412 103.318C11.7998 103.033 12.0348 103.045 12.0618 102.743C12.1589 101.658 11.8408 100.711 12.6899 99.8059C12.7599 99.7303 12.8354 99.6606 12.9164 99.5968C12.9974 99.5329 13.0828 99.4758 13.1728 99.4253C13.2627 99.3748 13.356 99.3317 13.4526 99.2958C13.5493 99.26 13.6482 99.2319 13.7493 99.2115C15.0177 98.9662 16.5853 99.1273 17.8879 99.1282C20.5388 99.1356 23.1896 99.1296 25.8403 99.1104L33.1274 99.1017L40.791 99.1187C42.0711 99.1195 43.4767 98.9979 44.7358 99.1928C45.1249 99.2532 45.4268 99.3666 45.7558 99.5826C46.2313 99.8948 46.6453 100.418 46.7293 100.995C46.9329 102.392 46.7723 104.024 46.7846 105.447C46.8112 108.566 46.9173 111.7 46.8669 114.817C46.844 116.237 46.6693 117.636 46.6729 119.066C46.7489 127.119 46.7761 135.171 46.7547 143.223L46.7635 150.253C46.7676 151.576 46.8364 152.935 46.7388 154.254C46.6854 154.974 46.3205 155.461 45.8946 156.013C47.216 156.131 48.5772 156.067 49.9018 156.031C49.646 155.701 49.4245 155.361 49.2968 154.959C48.8871 153.672 49.0197 151.009 49.1542 149.639C50.4304 149.576 51.7262 149.623 53.0045 149.624L59.5225 149.611Z" fill="#080717"/>
<path d="M61.9392 88.2564C66.1226 88.1138 70.3526 88.2334 74.5401 88.2291L101.915 88.2509L135.441 88.2431C141.25 88.2414 147.087 88.109 152.892 88.2464C153.299 88.2559 153.581 88.3035 153.954 88.4704C154.736 88.8206 155.242 89.292 155.522 90.1186C155.983 91.4787 155.729 95.6401 155.73 97.2957L155.729 108.476L155.682 131.144C155.672 134.136 155.743 137.137 155.686 140.128C155.677 140.607 155.652 141.109 155.413 141.536C155.064 142.16 154.435 142.427 153.776 142.604C149.07 142.721 144.331 142.599 139.622 142.599L112.289 142.648L78.4153 142.632C72.997 142.617 67.5552 142.749 62.1404 142.594C61.7859 142.584 61.4412 142.544 61.1161 142.393C60.5872 142.147 60.1934 141.648 60.019 141.095C59.7136 140.127 59.9198 136.352 59.9241 135.097L59.9573 123.157L59.9716 100.992C59.9748 97.7104 59.8595 94.3961 59.9592 91.1201C59.9777 90.5135 60.0233 89.8382 60.3422 89.3081C60.7123 88.6931 61.2661 88.4198 61.9392 88.2564Z" fill="white"/>
<path d="M65.5669 93.7158C69.1641 93.6244 72.7778 93.684 76.377 93.68L93.5296 93.7037C93.5205 98.123 93.3462 102.682 93.5645 107.086C84.239 107.191 74.9018 107.11 65.5752 107.113C65.5019 105.275 65.5558 103.413 65.552 101.572C65.5467 98.9546 65.5054 96.3324 65.5669 93.7158Z" fill="#080717"/>
<path d="M75.8168 102.111L87.5586 102.075C88.5008 102.072 90.7629 101.905 91.571 102.093C91.8194 102.15 91.9314 102.242 92.0591 102.456L91.9914 102.641C91.8177 102.763 91.6714 102.832 91.4616 102.857C90.7548 102.942 89.965 102.886 89.2487 102.888L84.7849 102.882C81.2445 102.857 77.7041 102.855 74.1636 102.878L70.9381 102.902C70.2823 102.911 69.5658 102.981 68.9155 102.903C68.5892 102.864 68.4039 102.778 68.1973 102.522L68.2348 102.342C68.6723 101.96 74.8343 102.117 75.8168 102.111Z" fill="white"/>
<path d="M68.2723 98.0121C71.8822 97.8735 75.5389 97.9855 79.1527 97.9798C81.8796 97.9756 84.9491 97.8318 87.6407 97.9765C87.7643 97.983 87.8474 98.0237 87.9487 98.0902C88.0808 98.3063 88.0616 98.414 88.0422 98.6558C86.4084 98.842 68.8846 98.8134 68.4435 98.628C68.2523 98.3939 68.2851 98.3068 68.2723 98.0121Z" fill="white"/>
<path d="M76.3837 116.633C76.5534 116.616 76.7235 116.602 76.8938 116.593C77.0642 116.583 77.2347 116.578 77.4053 116.577C77.5759 116.576 77.7465 116.579 77.9169 116.586C78.0874 116.594 78.2576 116.605 78.4275 116.621C78.5975 116.637 78.7669 116.656 78.9359 116.681C79.1048 116.705 79.273 116.733 79.4406 116.765C79.6081 116.797 79.7748 116.834 79.9405 116.874C80.1063 116.915 80.271 116.959 80.4345 117.008C80.5981 117.056 80.7604 117.109 80.9214 117.166C81.0824 117.222 81.2419 117.282 81.3999 117.347C81.5578 117.411 81.7142 117.48 81.8688 117.552C82.0235 117.624 82.1762 117.7 82.3272 117.779C82.4782 117.859 82.627 117.942 82.7739 118.029C82.9208 118.116 83.0654 118.206 83.2077 118.3C83.3501 118.394 83.4902 118.492 83.6277 118.593C83.7653 118.694 83.9004 118.798 84.0329 118.905C84.1654 119.013 84.2952 119.124 84.4222 119.238C84.5493 119.351 84.6734 119.468 84.7947 119.588C84.916 119.708 85.0343 119.831 85.1495 119.957C85.2648 120.083 85.3769 120.212 85.4859 120.343C85.5948 120.474 85.7004 120.608 85.8027 120.745C85.9051 120.881 86.004 121.02 86.0995 121.162C86.195 121.303 86.2871 121.447 86.3756 121.592C86.4641 121.738 86.5489 121.886 86.63 122.037C86.7112 122.187 86.7887 122.339 86.8625 122.492C86.9361 122.646 87.006 122.802 87.0722 122.959C87.1382 123.117 87.2004 123.275 87.2587 123.436C87.317 123.596 87.3712 123.758 87.4215 123.921C87.4718 124.084 87.5182 124.248 87.5605 124.413C87.6026 124.579 87.6408 124.745 87.6749 124.912C87.709 125.079 87.739 125.247 87.7648 125.416C87.7906 125.585 87.8123 125.754 87.8298 125.924C87.8473 126.093 87.8606 126.263 87.8697 126.434C87.8789 126.604 87.8839 126.775 87.8847 126.945C87.8854 127.116 87.882 127.287 87.8744 127.457C87.8668 127.627 87.855 127.798 87.8391 127.967C87.8231 128.137 87.8029 128.307 87.7786 128.476C87.7543 128.645 87.7259 128.813 87.6934 128.98C87.6608 129.148 87.6241 129.314 87.5835 129.48C87.5427 129.646 87.4978 129.81 87.449 129.974C87.4001 130.137 87.3473 130.299 87.2905 130.46C87.2337 130.621 87.1729 130.781 87.1083 130.939C87.0436 131.097 86.9752 131.253 86.9029 131.407C86.8306 131.562 86.7545 131.715 86.6746 131.865C86.5949 132.016 86.5114 132.165 86.4243 132.312C86.3371 132.458 86.2464 132.603 86.1522 132.745C86.058 132.887 85.9603 133.027 85.8591 133.165C85.758 133.302 85.6536 133.437 85.5459 133.569C85.4381 133.702 85.3272 133.831 85.2131 133.958C85.0991 134.085 84.9819 134.209 84.8616 134.33C84.7414 134.451 84.6183 134.569 84.4923 134.684C84.3663 134.799 84.2375 134.911 84.106 135.02C83.9745 135.129 83.8405 135.234 83.7038 135.336C83.5671 135.438 83.428 135.537 83.2865 135.632C83.1449 135.728 83.0011 135.819 82.8551 135.908C82.7091 135.996 82.561 136.081 82.4107 136.161C82.2605 136.242 82.1084 136.32 81.9544 136.393C81.8004 136.467 81.6447 136.536 81.4873 136.602C81.3299 136.668 81.1709 136.73 81.0104 136.788C80.85 136.846 80.6882 136.9 80.5251 136.95C80.3619 137 80.1976 137.046 80.0323 137.088C79.8669 137.13 79.7006 137.168 79.5334 137.202C79.3661 137.236 79.1981 137.265 79.0294 137.291C78.8607 137.316 78.6914 137.338 78.5217 137.355C78.3523 137.372 78.1826 137.385 78.0125 137.394C77.8424 137.403 77.6722 137.408 77.5019 137.408C77.3316 137.409 77.1614 137.405 76.9913 137.398C76.8212 137.39 76.6514 137.378 76.4819 137.362C76.3124 137.346 76.1433 137.325 75.9747 137.301C75.8063 137.276 75.6384 137.248 75.4712 137.215C75.3041 137.183 75.1379 137.146 74.9725 137.105C74.8072 137.064 74.643 137.019 74.4799 136.97C74.3167 136.922 74.1549 136.869 73.9944 136.812C73.8339 136.755 73.6748 136.695 73.5171 136.63C73.3596 136.565 73.2038 136.497 73.0496 136.425C72.8953 136.352 72.7429 136.276 72.5924 136.197C72.442 136.117 72.2936 136.033 72.1471 135.946C72.0008 135.859 71.8566 135.769 71.7146 135.675C71.5727 135.581 71.4331 135.483 71.296 135.382C71.1587 135.281 71.0241 135.177 70.892 135.07C70.76 134.962 70.6307 134.852 70.5042 134.738C70.3775 134.624 70.2538 134.507 70.1329 134.387C70.0119 134.267 69.894 134.144 69.7792 134.018C69.6643 133.893 69.5526 133.764 69.4441 133.633C69.3354 133.502 69.2301 133.368 69.1281 133.232C69.0261 133.095 68.9275 132.957 68.8323 132.815C68.7372 132.674 68.6455 132.531 68.5573 132.385C68.4692 132.239 68.3846 132.091 68.3036 131.942C68.2227 131.792 68.1455 131.64 68.0721 131.487C67.9986 131.333 67.929 131.177 67.8632 131.021C67.7972 130.863 67.7353 130.705 67.6772 130.545C67.6191 130.385 67.565 130.223 67.5149 130.06C67.4647 129.898 67.4186 129.734 67.3764 129.569C67.3343 129.404 67.2963 129.238 67.2623 129.071C67.2283 128.904 67.1984 128.737 67.1726 128.568C67.1469 128.4 67.1253 128.231 67.1078 128.062C67.0903 127.892 67.077 127.722 67.0679 127.552C67.0587 127.382 67.0537 127.212 67.053 127.042C67.0522 126.872 67.0555 126.701 67.063 126.531C67.0705 126.361 67.0822 126.191 67.0981 126.022C67.114 125.852 67.1341 125.683 67.1583 125.515C67.1824 125.346 67.2106 125.178 67.243 125.011C67.2755 124.844 67.312 124.677 67.3526 124.512C67.3931 124.347 67.4377 124.182 67.4862 124.019C67.5348 123.856 67.5874 123.694 67.644 123.533C67.7006 123.373 67.761 123.214 67.8253 123.056C67.8897 122.898 67.9579 122.742 68.03 122.588C68.102 122.434 68.1778 122.281 68.2573 122.131C68.3368 121.98 68.4199 121.831 68.5067 121.685C68.5935 121.538 68.6837 121.394 68.7775 121.252C68.8715 121.11 68.9688 120.97 69.0695 120.833C69.1702 120.695 69.2742 120.561 69.3815 120.429C69.4888 120.296 69.5993 120.167 69.713 120.04C69.8266 119.913 69.9433 119.789 70.063 119.668C70.1829 119.547 70.3056 119.429 70.431 119.314C70.5566 119.199 70.685 119.087 70.816 118.978C70.947 118.869 71.0806 118.764 71.2168 118.662C71.353 118.559 71.4917 118.461 71.6327 118.365C71.7738 118.27 71.917 118.178 72.0626 118.089C72.2081 118.001 72.3558 117.916 72.5056 117.835C72.6553 117.754 72.8069 117.677 72.9604 117.603C73.1139 117.529 73.2691 117.459 73.426 117.393C73.583 117.327 73.7415 117.265 73.9016 117.207C74.0615 117.148 74.2228 117.094 74.3855 117.044C74.5481 116.993 74.7119 116.947 74.877 116.904C75.0419 116.862 75.2077 116.824 75.3746 116.789C75.5413 116.755 75.7089 116.725 75.8772 116.699C76.0455 116.673 76.2143 116.651 76.3837 116.633Z" fill="#080717"/>
<path d="M76.2238 117.318C76.3823 117.297 76.5411 117.281 76.7002 117.269C76.8595 117.257 77.0189 117.248 77.1785 117.244C77.3381 117.239 77.4977 117.239 77.6575 117.242C77.8171 117.245 77.9765 117.253 78.1359 117.264C78.2952 117.275 78.4541 117.29 78.6126 117.309C78.7712 117.328 78.9292 117.351 79.0866 117.378C79.244 117.404 79.4007 117.435 79.5568 117.469C79.7127 117.504 79.8677 117.542 80.0217 117.584C80.1758 117.626 80.3287 117.672 80.4805 117.721C80.6322 117.771 80.7827 117.824 80.932 117.881C81.0812 117.938 81.2289 117.999 81.3751 118.063C81.5214 118.127 81.6659 118.195 81.8088 118.266C81.9517 118.337 82.0928 118.412 82.232 118.49C82.3712 118.568 82.5084 118.65 82.6437 118.735C82.7789 118.82 82.9119 118.908 83.0428 119C83.1737 119.091 83.3023 119.186 83.4286 119.283C83.5548 119.381 83.6786 119.482 83.7999 119.586C83.9213 119.69 84.0399 119.796 84.156 119.906C84.272 120.016 84.3853 120.128 84.4958 120.244C84.6064 120.359 84.7141 120.477 84.8189 120.597C84.9236 120.718 85.0253 120.841 85.124 120.966C85.2227 121.092 85.3183 121.22 85.4107 121.35C85.5033 121.48 85.5924 121.612 85.6783 121.747C85.7643 121.882 85.8469 122.018 85.9262 122.157C86.0053 122.295 86.0811 122.436 86.1535 122.578C86.2258 122.721 86.2946 122.865 86.3598 123.01C86.4252 123.156 86.4868 123.303 86.5448 123.452C86.6029 123.601 86.6573 123.751 86.708 123.902C86.7586 124.054 86.8055 124.206 86.8487 124.36C86.8919 124.514 86.9313 124.669 86.9669 124.824C87.0025 124.98 87.0343 125.136 87.0621 125.294C87.09 125.451 87.114 125.609 87.1342 125.767C87.1544 125.926 87.1706 126.084 87.183 126.244C87.1954 126.403 87.2039 126.562 87.2084 126.722C87.2129 126.881 87.2135 127.041 87.2103 127.201C87.2069 127.36 87.1997 127.52 87.1887 127.679C87.1775 127.839 87.1625 127.997 87.1436 128.156C87.1247 128.315 87.1018 128.473 87.0751 128.63C87.0485 128.787 87.0179 128.944 86.9835 129.1C86.9492 129.256 86.911 129.411 86.8691 129.565C86.827 129.719 86.7813 129.872 86.7318 130.024C86.6824 130.176 86.6292 130.326 86.5723 130.475C86.5154 130.625 86.4549 130.772 86.3908 130.919C86.3266 131.065 86.2589 131.21 86.1877 131.353C86.1165 131.495 86.0418 131.636 85.9637 131.776C85.8855 131.915 85.804 132.052 85.7191 132.188C85.6342 132.323 85.546 132.456 85.4546 132.587C85.3632 132.718 85.2686 132.846 85.1708 132.973C85.0731 133.099 84.9723 133.223 84.8685 133.344C84.7648 133.465 84.6581 133.584 84.5484 133.7C84.4388 133.816 84.3264 133.93 84.2111 134.04C84.0959 134.151 83.978 134.259 83.8575 134.363C83.737 134.468 83.6141 134.57 83.4886 134.669C83.3631 134.767 83.2353 134.863 83.105 134.955C82.9748 135.048 82.8425 135.137 82.708 135.223C82.5734 135.309 82.4368 135.392 82.2982 135.471C82.1595 135.55 82.0191 135.626 81.8768 135.699C81.7345 135.771 81.5904 135.84 81.4446 135.905C81.299 135.97 81.1518 136.032 81.003 136.09C80.8542 136.148 80.7041 136.203 80.5527 136.253C80.4013 136.304 80.2487 136.351 80.095 136.394C79.9413 136.438 79.7866 136.477 79.6309 136.513C79.4752 136.548 79.3188 136.58 79.1616 136.608C79.0044 136.636 78.8466 136.66 78.6882 136.68C78.5297 136.7 78.3709 136.717 78.2116 136.729C78.0524 136.742 77.8929 136.75 77.7332 136.755C77.5735 136.759 77.4137 136.76 77.254 136.757C77.0943 136.754 76.9348 136.746 76.7754 136.735C76.616 136.724 76.457 136.709 76.2983 136.69C76.1398 136.671 75.9817 136.649 75.8242 136.622C75.6667 136.595 75.5099 136.565 75.3539 136.53C75.1978 136.496 75.0428 136.458 74.8887 136.416C74.7345 136.374 74.5815 136.328 74.4296 136.279C74.2777 136.229 74.1271 136.176 73.9778 136.119C73.8286 136.062 73.6808 136.002 73.5344 135.938C73.3881 135.874 73.2434 135.806 73.1004 135.734C72.9575 135.663 72.8164 135.589 72.6771 135.51C72.5378 135.432 72.4004 135.351 72.265 135.266C72.1297 135.181 71.9966 135.093 71.8657 135.001C71.7347 134.91 71.606 134.815 71.4797 134.717C71.3533 134.62 71.2295 134.519 71.1081 134.415C70.9867 134.311 70.8679 134.204 70.7519 134.095C70.6357 133.985 70.5223 133.872 70.4117 133.757C70.3011 133.642 70.1933 133.524 70.0885 133.403C69.9836 133.283 69.8818 133.16 69.783 133.034C69.6843 132.909 69.5886 132.781 69.4961 132.651C69.4036 132.52 69.3143 132.388 69.2284 132.253C69.1424 132.119 69.0598 131.982 68.9805 131.843C68.9012 131.705 68.8253 131.564 68.7528 131.422C68.6805 131.279 68.6116 131.135 68.5463 130.989C68.4811 130.844 68.4194 130.696 68.3613 130.547C68.3032 130.399 68.2489 130.248 68.1982 130.097C68.1475 129.945 68.1005 129.793 68.0573 129.639C68.0141 129.485 67.9747 129.33 67.9391 129.175C67.9034 129.019 67.8716 128.862 67.8436 128.705C67.8158 128.548 67.7917 128.39 67.7716 128.232C67.7514 128.073 67.7351 127.914 67.7228 127.755C67.7104 127.596 67.7019 127.436 67.6974 127.277C67.6929 127.117 67.6923 126.957 67.6955 126.797C67.6988 126.638 67.7061 126.478 67.7173 126.319C67.7283 126.159 67.7434 126 67.7624 125.842C67.7813 125.683 67.8041 125.525 67.8308 125.368C67.8576 125.21 67.8882 125.053 67.9226 124.897C67.957 124.741 67.9952 124.586 68.0372 124.432C68.0792 124.278 68.1249 124.125 68.1745 123.973C68.224 123.821 68.2773 123.671 68.3342 123.521C68.3911 123.372 68.4517 123.224 68.5159 123.078C68.58 122.932 68.6478 122.787 68.7191 122.644C68.7905 122.501 68.8652 122.36 68.9435 122.221C69.0216 122.081 69.1032 121.944 69.1882 121.809C69.2732 121.674 69.3614 121.54 69.4529 121.41C69.5444 121.279 69.639 121.15 69.7369 121.024C69.8347 120.897 69.9355 120.773 70.0394 120.652C70.1433 120.531 70.2501 120.412 70.3598 120.296C70.4695 120.18 70.5821 120.067 70.6974 119.956C70.8127 119.845 70.9306 119.738 71.0512 119.633C71.1718 119.528 71.2948 119.426 71.4205 119.328C71.5461 119.229 71.674 119.133 71.8042 119.041C71.9345 118.948 72.067 118.859 72.2016 118.773C72.3363 118.687 72.473 118.605 72.6117 118.525C72.7504 118.446 72.8909 118.37 73.0333 118.298C73.1758 118.226 73.3199 118.157 73.4658 118.092C73.6116 118.026 73.7589 117.965 73.9078 117.907C74.0566 117.849 74.2067 117.794 74.3582 117.744C74.5098 117.693 74.6625 117.646 74.8163 117.603C74.97 117.56 75.1248 117.52 75.2806 117.485C75.4364 117.449 75.5929 117.417 75.7502 117.39C75.9075 117.362 76.0654 117.338 76.2238 117.318Z" fill="white"/>
<path d="M74.8475 122.597C74.9874 122.61 75.0888 122.615 75.219 122.674C75.857 122.961 80.9573 126.268 81.3825 126.719C81.5707 126.919 81.6904 127.076 81.675 127.353C81.084 128.142 79.7389 128.683 78.8978 129.196C78.3118 129.561 75.3377 131.595 74.8676 131.499C74.6155 131.187 74.521 130.85 74.4562 130.458C74.3233 129.653 74.3863 128.766 74.3796 127.95C74.3691 126.645 74.3393 125.335 74.3602 124.031C74.3715 123.321 74.3255 123.106 74.8475 122.597Z" fill="#FDCC33"/>
<path d="M139.132 91.1705C139.482 91.1692 139.854 91.1893 140.161 91.3789C140.445 91.5545 140.519 91.797 140.586 92.1042C140.618 92.252 140.645 92.4777 140.704 92.612C140.887 93.0322 147.466 99.2592 148.378 100.143C148.976 100.139 149.34 100.164 149.828 100.546C150.032 100.705 150.218 100.921 150.218 101.196C150.217 101.487 150.007 101.78 149.8 101.97C149.503 102.243 149.102 102.396 148.699 102.368C148.439 102.349 148.224 102.249 148.06 102.046C147.78 101.696 147.849 101.156 147.911 100.751L147.929 100.639C147.181 99.6153 145.821 98.5809 144.876 97.6792C143.337 96.2118 141.847 94.6845 140.324 93.1989C140.302 93.2082 140.28 93.2179 140.258 93.2269L140.147 93.2709C139.713 93.4455 139.432 93.506 138.981 93.3408C138.955 93.3313 138.929 93.3209 138.904 93.311C138.354 93.7707 137.888 94.3673 137.403 94.8958L134.701 97.8427L129.006 104.182C128.343 104.913 127.608 105.593 126.959 106.33C126.501 106.852 126.653 107.654 126.193 108.12C125.978 108.338 125.562 108.48 125.258 108.471C125.023 108.464 124.868 108.392 124.71 108.217C124.367 107.836 124.322 107.407 124.367 106.922C123.619 106.202 122.919 105.428 122.183 104.694C120.504 103.018 118.808 101.362 117.17 99.6466C116.924 99.7062 116.726 99.761 116.505 99.8924C115.924 101.059 115.234 103.994 114.823 105.37C114.484 106.506 113.998 107.674 113.77 108.829C113.852 109.024 113.953 109.237 113.986 109.446C114.024 109.676 113.943 109.906 113.812 110.093C113.79 110.125 113.766 110.156 113.741 110.185C113.716 110.215 113.689 110.242 113.661 110.269C113.632 110.296 113.603 110.321 113.572 110.344C113.541 110.368 113.509 110.39 113.476 110.41C113.443 110.43 113.409 110.449 113.374 110.465C113.339 110.482 113.303 110.497 113.267 110.51C113.23 110.523 113.193 110.534 113.155 110.543C113.118 110.553 113.08 110.56 113.041 110.565C112.733 110.606 112.424 110.529 112.189 110.32C111.885 110.05 111.797 109.576 111.573 109.241C111.045 108.451 110.028 107.544 109.247 107.002C109.214 106.979 109.181 106.958 109.149 106.935C108.669 107.098 108.067 106.919 107.668 107.145C106.802 107.633 106.003 108.696 105.305 109.423L100.826 114.027C100.218 114.653 99.6254 115.421 98.9683 115.98C98.7926 116.129 98.6258 116.198 98.4048 116.251L98.2686 116.159C98.2411 115.481 99.5223 114.43 100.008 113.918C101.795 112.063 103.597 110.223 105.416 108.399C105.819 107.99 107.068 106.871 107.293 106.458C107.486 106.105 107.304 105.622 107.623 105.249C107.78 105.067 108.008 104.966 108.244 104.939C108.614 104.896 109.003 105.007 109.268 105.276C109.573 105.585 109.386 106.053 109.615 106.375C110.176 107.163 111.408 108.009 112.158 108.649C112.456 108.505 112.752 108.538 113.049 108.39C113.64 107.571 115.418 101.113 115.936 99.5688C115.755 99.3348 115.612 99.1315 115.567 98.8347C115.515 98.5001 115.608 98.1224 115.843 97.8714C116.063 97.636 116.394 97.5295 116.711 97.5449C117.268 97.5718 117.53 97.833 117.886 98.2323L117.758 99.2189C118.475 100.051 124.21 105.943 124.745 106.226C124.785 106.247 124.948 106.268 124.969 106.269C125.817 106.334 126.064 106.32 126.642 105.737C128.908 103.451 130.984 100.961 133.154 98.5839C134.707 96.8827 136.915 94.7234 138.216 92.9028C138.388 92.6623 138.471 92.5315 138.465 92.2259C138.461 92.037 138.47 91.8921 138.505 91.7063C138.661 91.4743 138.809 91.3698 139.046 91.2228L139.132 91.1705Z" fill="#080717"/>
<path d="M116.495 98.2222C116.51 98.2151 116.524 98.2086 116.539 98.2028C116.554 98.1971 116.569 98.1921 116.584 98.1878C116.6 98.1835 116.615 98.18 116.631 98.1771C116.647 98.1743 116.663 98.1723 116.678 98.171C116.694 98.1698 116.71 98.1693 116.726 98.1695C116.742 98.1697 116.758 98.1707 116.774 98.1724C116.79 98.1743 116.806 98.1769 116.821 98.1802C116.837 98.1834 116.852 98.1875 116.868 98.1923C116.883 98.197 116.898 98.2025 116.912 98.2087C116.927 98.215 116.941 98.2219 116.956 98.2295C116.97 98.2371 116.983 98.2454 116.996 98.2544C117.01 98.2632 117.023 98.2727 117.035 98.2829C117.047 98.293 117.059 98.3037 117.07 98.315C117.082 98.3263 117.092 98.3381 117.102 98.3505C117.113 98.3628 117.122 98.3755 117.131 98.3887C117.14 98.4019 117.148 98.4156 117.156 98.4296C117.163 98.4437 117.17 98.458 117.177 98.4727C117.183 98.4874 117.188 98.5024 117.193 98.5176C117.198 98.5328 117.202 98.5482 117.205 98.5638C117.209 98.5794 117.211 98.5952 117.213 98.6111C117.215 98.6269 117.216 98.6428 117.216 98.6588C117.216 98.6747 117.216 98.6906 117.215 98.7065C117.213 98.7224 117.211 98.7383 117.209 98.7541C117.206 98.7697 117.202 98.7853 117.198 98.8007C117.194 98.8161 117.189 98.8312 117.183 98.846C117.177 98.861 117.171 98.8756 117.164 98.8898C117.157 98.904 117.149 98.918 117.14 98.9316C117.132 98.9451 117.123 98.9582 117.113 98.9708C117.103 98.9835 117.093 98.9957 117.082 99.0073C117.071 99.0189 117.06 99.0301 117.048 99.0407C117.036 99.0511 117.023 99.0611 117.01 99.0706C116.998 99.0799 116.984 99.0886 116.97 99.0967C116.951 99.108 116.931 99.1179 116.911 99.1264C116.89 99.135 116.869 99.1422 116.848 99.148C116.827 99.1538 116.805 99.1581 116.783 99.161C116.761 99.1638 116.739 99.1652 116.716 99.1651C116.694 99.1651 116.672 99.1636 116.65 99.1604C116.628 99.1574 116.606 99.153 116.585 99.147C116.564 99.1411 116.543 99.1338 116.522 99.125C116.502 99.1163 116.482 99.1062 116.463 99.0948C116.444 99.0834 116.426 99.0707 116.408 99.0569C116.391 99.0431 116.375 99.0282 116.359 99.0121C116.344 98.9961 116.33 98.9791 116.316 98.9611C116.303 98.9433 116.291 98.9246 116.281 98.905C116.27 98.8855 116.261 98.8654 116.253 98.8446C116.245 98.8239 116.239 98.8027 116.234 98.781C116.229 98.7594 116.225 98.7375 116.223 98.7155C116.221 98.6934 116.22 98.6712 116.221 98.649C116.222 98.6267 116.224 98.6047 116.228 98.5828C116.232 98.5609 116.237 98.5393 116.243 98.5181C116.25 98.497 116.258 98.4764 116.268 98.4562C116.277 98.4361 116.288 98.4167 116.3 98.398C116.312 98.3793 116.325 98.3615 116.339 98.3446C116.354 98.3276 116.369 98.3118 116.386 98.2971C116.402 98.2822 116.42 98.2685 116.438 98.2559C116.456 98.2434 116.475 98.2321 116.495 98.2222Z" fill="white"/>
<path d="M124.989 106.856C125.28 106.888 125.603 106.885 125.84 107.072C125.924 107.343 125.864 107.438 125.787 107.707C125.71 107.727 125.609 107.757 125.531 107.762C125.292 107.779 125.225 107.745 125.045 107.61C124.932 107.346 124.964 107.133 124.989 106.856Z" fill="white"/>
<path d="M148.724 100.798C148.744 100.79 148.765 100.783 148.786 100.777C148.807 100.772 148.829 100.768 148.85 100.765C148.872 100.763 148.894 100.762 148.916 100.762C148.938 100.762 148.959 100.764 148.981 100.768C149.003 100.772 149.024 100.776 149.045 100.783C149.066 100.789 149.086 100.797 149.106 100.806C149.126 100.815 149.145 100.826 149.163 100.838C149.181 100.85 149.199 100.863 149.215 100.877C149.232 100.892 149.247 100.907 149.262 100.923C149.276 100.94 149.289 100.957 149.301 100.975C149.313 100.994 149.324 101.013 149.333 101.033C149.343 101.052 149.351 101.073 149.357 101.094C149.364 101.114 149.369 101.136 149.372 101.157C149.376 101.179 149.378 101.201 149.379 101.222C149.379 101.244 149.378 101.266 149.376 101.288C149.373 101.31 149.369 101.331 149.364 101.352C149.359 101.373 149.352 101.394 149.343 101.414C149.335 101.434 149.325 101.454 149.314 101.473C149.303 101.492 149.291 101.51 149.278 101.527C149.264 101.544 149.249 101.561 149.234 101.576C149.218 101.591 149.201 101.605 149.184 101.618C149.166 101.63 149.147 101.642 149.128 101.652C149.109 101.663 149.089 101.672 149.068 101.679C149.048 101.686 149.027 101.693 149.005 101.697C148.991 101.7 148.977 101.703 148.962 101.704C148.948 101.706 148.933 101.707 148.919 101.708C148.904 101.708 148.889 101.708 148.875 101.707C148.86 101.706 148.846 101.704 148.831 101.702C148.817 101.7 148.803 101.697 148.789 101.693C148.775 101.689 148.761 101.685 148.747 101.68C148.733 101.675 148.72 101.67 148.706 101.664C148.693 101.658 148.68 101.651 148.668 101.643C148.655 101.636 148.643 101.628 148.631 101.62C148.619 101.611 148.608 101.602 148.597 101.593C148.586 101.583 148.575 101.573 148.565 101.563C148.555 101.552 148.545 101.541 148.536 101.53C148.527 101.518 148.518 101.506 148.51 101.494C148.502 101.482 148.495 101.47 148.488 101.457C148.481 101.444 148.475 101.431 148.47 101.417C148.464 101.404 148.459 101.39 148.454 101.376C148.45 101.362 148.446 101.348 148.443 101.334C148.44 101.32 148.438 101.305 148.436 101.291C148.434 101.276 148.433 101.262 148.433 101.247C148.433 101.233 148.433 101.218 148.434 101.203C148.435 101.189 148.437 101.174 148.439 101.16C148.441 101.146 148.444 101.131 148.448 101.117C148.451 101.103 148.456 101.089 148.461 101.075C148.466 101.062 148.471 101.048 148.477 101.035C148.483 101.022 148.49 101.009 148.498 100.996C148.505 100.984 148.513 100.971 148.521 100.96C148.53 100.948 148.539 100.936 148.548 100.925C148.558 100.914 148.568 100.904 148.579 100.894C148.589 100.883 148.6 100.874 148.611 100.865C148.623 100.856 148.635 100.847 148.647 100.839C148.659 100.831 148.672 100.824 148.685 100.817C148.697 100.81 148.711 100.804 148.724 100.798Z" fill="white"/>
<path d="M108.166 105.648C108.182 105.636 108.199 105.625 108.217 105.615C108.235 105.605 108.254 105.596 108.273 105.589C108.292 105.581 108.312 105.575 108.331 105.57C108.351 105.565 108.372 105.562 108.392 105.56C108.412 105.557 108.433 105.557 108.453 105.557C108.474 105.558 108.494 105.56 108.514 105.563C108.535 105.566 108.555 105.571 108.574 105.577C108.594 105.583 108.613 105.59 108.632 105.599C108.65 105.607 108.668 105.617 108.686 105.628C108.703 105.639 108.72 105.651 108.735 105.664C108.751 105.677 108.766 105.691 108.78 105.706C108.794 105.721 108.807 105.737 108.818 105.754C108.83 105.771 108.841 105.789 108.85 105.807C108.859 105.825 108.867 105.844 108.874 105.863C108.881 105.883 108.887 105.902 108.891 105.922C108.895 105.942 108.898 105.963 108.9 105.983C108.901 106.004 108.901 106.024 108.9 106.045C108.899 106.065 108.896 106.085 108.892 106.106C108.888 106.126 108.883 106.146 108.877 106.165C108.87 106.184 108.862 106.203 108.853 106.222C108.844 106.24 108.834 106.258 108.822 106.275C108.811 106.292 108.798 106.308 108.784 106.323C108.771 106.339 108.756 106.353 108.741 106.367C108.725 106.38 108.709 106.392 108.692 106.403C108.679 106.411 108.667 106.419 108.653 106.426C108.64 106.433 108.627 106.439 108.613 106.444C108.599 106.45 108.586 106.455 108.571 106.459C108.557 106.463 108.543 106.467 108.528 106.469C108.514 106.472 108.499 106.474 108.485 106.476C108.47 106.477 108.455 106.478 108.44 106.478C108.426 106.478 108.411 106.477 108.396 106.476C108.381 106.474 108.367 106.472 108.352 106.469C108.338 106.467 108.323 106.463 108.309 106.459C108.295 106.455 108.281 106.45 108.267 106.444C108.254 106.439 108.24 106.433 108.227 106.426C108.214 106.419 108.201 106.411 108.189 106.403C108.177 106.395 108.165 106.387 108.153 106.377C108.142 106.368 108.13 106.358 108.12 106.348C108.109 106.338 108.099 106.327 108.089 106.316C108.08 106.304 108.071 106.293 108.062 106.281C108.054 106.269 108.046 106.256 108.039 106.243C108.032 106.23 108.025 106.217 108.019 106.204C108.013 106.19 108.008 106.176 108.003 106.162C107.999 106.148 107.995 106.134 107.991 106.12C107.988 106.105 107.986 106.091 107.984 106.076C107.982 106.061 107.981 106.047 107.98 106.032C107.98 106.017 107.98 106.002 107.981 105.988C107.982 105.973 107.984 105.958 107.986 105.943C107.988 105.929 107.991 105.915 107.995 105.9C107.999 105.886 108.003 105.872 108.009 105.858C108.014 105.844 108.019 105.83 108.026 105.817C108.032 105.804 108.039 105.791 108.047 105.778C108.055 105.766 108.063 105.753 108.072 105.742C108.081 105.73 108.09 105.718 108.1 105.708C108.11 105.697 108.121 105.686 108.131 105.676C108.142 105.666 108.154 105.657 108.166 105.648Z" fill="white"/>
<path d="M139.241 91.9493C139.253 91.9409 139.265 91.9331 139.278 91.926C139.291 91.9187 139.304 91.9121 139.317 91.9063C139.331 91.9004 139.344 91.8951 139.358 91.8905C139.372 91.8859 139.386 91.882 139.4 91.8788C139.414 91.8755 139.429 91.873 139.443 91.8712C139.458 91.8694 139.472 91.8683 139.487 91.8679C139.501 91.8674 139.516 91.8677 139.531 91.8688C139.545 91.8698 139.56 91.8715 139.574 91.8739C139.588 91.8764 139.603 91.8795 139.617 91.8833C139.631 91.8872 139.645 91.8917 139.658 91.8968C139.672 91.9019 139.685 91.9078 139.698 91.9144C139.712 91.9208 139.724 91.9279 139.737 91.9356C139.749 91.9434 139.761 91.9517 139.773 91.9605C139.784 91.9694 139.795 91.9788 139.806 91.9887C139.817 91.9987 139.827 92.0092 139.836 92.0202C139.846 92.0311 139.855 92.0425 139.864 92.0544C139.872 92.0663 139.88 92.0785 139.888 92.091C139.895 92.1037 139.902 92.1167 139.908 92.1299C139.914 92.1432 139.919 92.1567 139.924 92.1705C139.929 92.1844 139.933 92.1984 139.936 92.2126C139.94 92.2268 139.942 92.2412 139.944 92.2556C139.946 92.2701 139.948 92.2846 139.948 92.2992C139.949 92.3138 139.948 92.3284 139.948 92.3429C139.947 92.3575 139.945 92.372 139.943 92.3864C139.941 92.4008 139.938 92.4151 139.934 92.4293C139.93 92.4434 139.926 92.4573 139.921 92.4711C139.916 92.4849 139.91 92.4983 139.904 92.5114C139.898 92.5245 139.891 92.5373 139.883 92.5498C139.875 92.5623 139.867 92.5744 139.859 92.5861C139.85 92.5977 139.841 92.609 139.831 92.6198C139.821 92.6305 139.81 92.6408 139.8 92.6506C139.789 92.6604 139.777 92.6696 139.766 92.6782C139.75 92.69 139.733 92.7006 139.716 92.7102C139.699 92.7196 139.681 92.728 139.662 92.7353C139.644 92.7424 139.625 92.7483 139.606 92.7531C139.587 92.7578 139.567 92.7612 139.548 92.7633C139.528 92.7653 139.508 92.7661 139.488 92.7657C139.469 92.7652 139.449 92.7635 139.43 92.7605C139.41 92.7574 139.391 92.7531 139.372 92.7475C139.353 92.7419 139.334 92.735 139.316 92.727C139.298 92.7189 139.281 92.7097 139.264 92.6993C139.247 92.6889 139.231 92.6775 139.216 92.6651C139.2 92.6526 139.186 92.6392 139.172 92.6248C139.159 92.6104 139.146 92.5952 139.135 92.5792C139.123 92.563 139.113 92.5463 139.104 92.5289C139.094 92.5115 139.086 92.4935 139.079 92.4749C139.072 92.4565 139.066 92.4377 139.062 92.4184C139.057 92.3992 139.054 92.3797 139.052 92.36C139.051 92.3403 139.05 92.3206 139.051 92.3009C139.051 92.2812 139.053 92.2615 139.057 92.2419C139.06 92.2225 139.064 92.2033 139.07 92.1844C139.076 92.1655 139.083 92.1471 139.091 92.1292C139.1 92.1113 139.109 92.0939 139.12 92.0772C139.13 92.0605 139.142 92.0445 139.154 92.0293C139.167 92.0141 139.181 91.9998 139.195 91.9865C139.21 91.9731 139.225 91.9607 139.241 91.9493Z" fill="white"/>
<path d="M112.756 109.176C112.774 109.17 112.792 109.166 112.811 109.163C112.83 109.159 112.849 109.157 112.868 109.157C112.887 109.156 112.906 109.157 112.924 109.159C112.943 109.161 112.962 109.164 112.98 109.169C112.999 109.174 113.017 109.179 113.034 109.187C113.052 109.194 113.069 109.202 113.085 109.212C113.101 109.221 113.117 109.232 113.132 109.244C113.147 109.256 113.161 109.268 113.174 109.282C113.187 109.296 113.199 109.31 113.21 109.326C113.221 109.341 113.231 109.357 113.24 109.374C113.248 109.391 113.256 109.408 113.262 109.426C113.268 109.444 113.273 109.462 113.277 109.481C113.281 109.499 113.283 109.518 113.285 109.537C113.286 109.556 113.285 109.575 113.284 109.594C113.282 109.613 113.279 109.631 113.275 109.65C113.271 109.668 113.265 109.687 113.259 109.704C113.252 109.722 113.244 109.739 113.235 109.756C113.226 109.772 113.216 109.788 113.204 109.803C113.193 109.819 113.18 109.833 113.167 109.846C113.154 109.86 113.139 109.872 113.124 109.884C113.109 109.895 113.093 109.905 113.076 109.914C113.06 109.924 113.043 109.932 113.025 109.938C113.007 109.945 112.989 109.95 112.971 109.955C112.952 109.959 112.934 109.962 112.915 109.963C112.902 109.964 112.89 109.965 112.878 109.965C112.866 109.965 112.853 109.964 112.841 109.963C112.829 109.962 112.817 109.96 112.805 109.958C112.793 109.955 112.781 109.952 112.769 109.949C112.757 109.946 112.746 109.942 112.734 109.937C112.723 109.933 112.712 109.928 112.701 109.922C112.69 109.917 112.679 109.911 112.668 109.904C112.658 109.898 112.648 109.891 112.638 109.884C112.628 109.876 112.619 109.869 112.61 109.86C112.601 109.852 112.592 109.843 112.584 109.834C112.575 109.825 112.567 109.816 112.56 109.806C112.553 109.797 112.546 109.787 112.539 109.776C112.533 109.766 112.527 109.755 112.521 109.744C112.515 109.733 112.51 109.722 112.506 109.711C112.501 109.699 112.497 109.688 112.494 109.676C112.49 109.664 112.487 109.652 112.485 109.64C112.482 109.628 112.48 109.616 112.479 109.604C112.478 109.592 112.477 109.58 112.477 109.567C112.477 109.555 112.477 109.543 112.478 109.531C112.479 109.518 112.48 109.506 112.482 109.494C112.484 109.482 112.487 109.47 112.49 109.458C112.493 109.446 112.497 109.435 112.501 109.423C112.505 109.412 112.51 109.4 112.515 109.389C112.52 109.378 112.526 109.367 112.532 109.357C112.538 109.346 112.545 109.336 112.552 109.326C112.559 109.316 112.567 109.306 112.575 109.297C112.583 109.288 112.591 109.279 112.6 109.27C112.609 109.262 112.618 109.253 112.628 109.246C112.637 109.238 112.647 109.231 112.657 109.224C112.667 109.217 112.678 109.211 112.689 109.205C112.699 109.199 112.71 109.194 112.722 109.189C112.733 109.184 112.744 109.18 112.756 109.176Z" fill="white"/>
<path d="M148.907 135.921L148.904 113.814C148.901 112.815 148.767 106.994 148.903 106.526C148.965 106.315 149.02 106.292 149.197 106.197L149.361 106.303C149.486 106.578 149.523 106.836 149.535 107.137C149.589 108.481 149.533 109.846 149.539 111.192L149.574 120.642L149.548 130.121C149.544 132.272 149.595 134.44 149.501 136.589C148.073 136.711 146.573 136.615 145.137 136.614L137.253 136.63L109.53 136.649C108.26 136.648 101.315 136.799 100.534 136.54C100.426 136.266 100.394 136.002 100.378 135.709C100.325 134.74 100.378 133.752 100.378 132.78L100.391 126.499C100.401 125.375 100.398 124.252 100.381 123.128C100.367 122.355 100.296 121.54 100.354 120.77C100.375 120.494 100.369 120.34 100.553 120.136C100.764 120.112 100.759 120.113 100.936 120.23C101.177 120.906 101.028 133.725 101.03 135.945C102.779 135.995 104.537 135.963 106.287 135.967C108.217 136.065 110.169 136.022 112.101 136.015C113.602 136.009 115.125 136.055 116.622 135.968L118.67 135.963L119.692 135.968L129.17 135.967L130.231 135.969C133.184 135.968 136.165 136.055 139.114 135.948C139.577 135.896 139.965 135.87 140.429 135.949C143.255 135.919 146.081 135.91 148.907 135.921Z" fill="#080717"/>
<path d="M139.115 135.948L139.143 112.844L139.147 105.829C139.147 104.947 139.052 104.034 139.108 103.157C139.129 102.836 139.165 102.504 139.385 102.254C139.491 102.132 139.558 102.147 139.707 102.114C139.922 102.197 140.026 102.244 140.137 102.457C140.271 102.713 140.285 103.055 140.296 103.338C140.328 104.2 140.258 105.076 140.257 105.94L140.282 112.241L140.268 131.984C140.266 132.575 140.141 135.343 140.256 135.734C140.281 135.822 140.353 135.904 140.429 135.949C139.965 135.869 139.577 135.896 139.115 135.948Z" fill="#FDCC33"/>
<path d="M129.171 135.967C129.115 131.637 129.192 127.307 129.19 122.976L129.193 116.853C129.191 116.137 129.123 115.416 129.14 114.702C129.146 114.456 129.171 114.101 129.32 113.893C129.399 113.782 129.487 113.723 129.621 113.719C129.799 113.714 129.879 113.769 130.027 113.854C130.17 114.049 130.235 114.201 130.259 114.445C130.312 114.982 130.239 115.569 130.239 116.113L130.238 120.69L130.232 135.969L129.171 135.967Z" fill="#FDCC33"/>
<path d="M118.672 135.963C118.713 131.622 118.723 127.281 118.702 122.94L118.688 118.601C118.682 117.847 118.617 117.067 118.667 116.315C118.691 115.958 118.756 115.62 118.941 115.31L119.251 115.231C119.556 115.501 119.681 115.897 119.713 116.297C119.757 116.859 119.692 117.449 119.689 118.015L119.688 121.689C119.689 126.444 119.612 131.214 119.693 135.968L118.672 135.963Z" fill="#FDCC33"/>
<path d="M108.44 135.949L108.457 122.665C108.464 120.849 108.376 118.987 108.462 117.177C108.476 116.879 108.505 116.615 108.615 116.336C108.796 116.187 108.824 116.143 109.053 116.118C109.298 116.287 109.365 116.506 109.415 116.786C109.658 118.143 109.454 120.086 109.461 121.495L109.411 135.949C111.648 135.943 114.44 135.784 116.624 135.967C115.127 136.055 113.604 136.009 112.102 136.014C110.171 136.022 108.218 136.065 106.289 135.967C107.007 135.941 107.722 135.94 108.44 135.949Z" fill="#FDCC33"/>
<path d="M15.5509 128.624C20.8102 128.459 26.1159 128.582 31.3785 128.572L38.8291 128.57C40.154 128.571 41.5095 128.515 42.8311 128.598C43.1826 128.621 43.5829 128.647 43.8714 128.866C44.0323 129.234 44.0677 129.624 44.0807 130.022C44.137 131.753 44.0847 133.504 44.0843 135.236L44.0938 145.577L44.1277 150.892C44.1346 151.831 44.2482 152.944 44.0551 153.858L43.7263 154.064C42.2215 154.121 40.695 154.063 39.1886 154.055L30.4999 154.02C25.4295 154.012 20.1765 154.183 15.1299 154.028C14.9694 149.006 15.113 143.938 15.097 138.912L15.0875 132.439C15.0914 131.409 15.023 130.3 15.1394 129.278C15.1782 128.938 15.3026 128.828 15.5509 128.624Z" fill="#FDCC33"/>
<path d="M41.6929 149.989C37.1188 150.093 32.5316 150.044 27.9563 150.056C24.9929 150.064 21.9727 150.195 19.0145 150.06C18.6686 150.045 18.2496 150.014 17.9328 149.874C17.7981 149.815 17.7705 149.79 17.7274 149.646C17.5343 149.001 17.7219 146.274 17.7207 145.429C17.7155 141.758 17.5222 138.057 17.7101 134.39C17.7228 134.141 17.7291 133.888 17.8657 133.673C18.1194 133.516 18.3334 133.472 18.632 133.457C20.351 133.373 22.1075 133.44 23.8299 133.441C27.0287 133.435 30.2275 133.446 33.4261 133.476L38.4511 133.513C39.4969 133.52 40.5739 133.477 41.6114 133.613C42.0131 134.119 41.7901 139.521 41.7877 140.459C41.9546 140.642 42.0628 140.778 42.0635 141.045C42.0639 141.215 42.0049 141.344 41.8959 141.467C41.6824 142.073 41.7723 148.631 41.6929 149.989Z" fill="white"/>
<path d="M33.0626 136.097C33.8973 137.192 34.6887 138.317 35.4365 139.472C35.9803 140.302 36.4802 141.183 37.1182 141.945C37.7389 141.134 39.1081 138.581 39.9528 138.287C40.6048 138.559 41.3455 139.868 41.7878 140.459C41.9548 140.641 42.063 140.778 42.0637 141.045C42.064 141.215 42.0051 141.344 41.896 141.467C41.175 140.734 40.5455 139.871 39.898 139.071C38.9333 140.395 38.0725 141.833 37.0147 143.084C36.3599 142.263 35.8324 141.244 35.2573 140.359C34.5424 139.259 33.7466 138.211 32.961 137.161C31.1861 139.305 29.4884 141.51 27.7108 143.652C26.2768 142.618 25.0316 141.355 23.5744 140.34C22.7219 141.021 18.7636 144.965 18.103 145.013C18.0115 144.869 18.0019 144.909 18.0119 144.762C18.0235 144.593 18.0708 144.456 18.1887 144.334C18.6476 143.859 19.2417 143.45 19.7316 142.992C21.0119 141.795 22.2556 140.557 23.5578 139.385C24.7277 140.553 26.3216 141.764 27.6463 142.768L30.8188 138.809C31.5399 137.902 32.2383 136.911 33.0626 136.097Z" fill="#080717"/>
<path d="M20.3133 136.379C20.5945 136.371 20.8681 136.338 21.1331 136.449C21.2938 136.687 21.2325 137.026 21.2197 137.304C20.9428 137.315 20.5787 137.38 20.3445 137.218C20.2111 136.964 20.2868 136.655 20.3133 136.379Z" fill="#080717"/>
<path d="M23.392 136.419C23.5763 136.412 23.7597 136.411 23.9439 136.411C24.1581 136.555 24.1845 136.579 24.2907 136.813C24.2513 137.028 24.2449 137.159 24.0862 137.322C23.9481 137.329 23.7607 137.355 23.6273 137.325C23.4 137.275 23.3585 137.205 23.2425 137.026C23.2584 136.783 23.2971 136.637 23.392 136.419Z" fill="#080717"/>
<path d="M35.3433 146.083C35.6138 146.072 35.8426 146.056 36.1052 146.141C36.2627 146.419 36.2115 146.696 36.2091 147.01C35.9367 147.019 35.6615 147.062 35.4117 146.934C35.274 146.653 35.3298 146.391 35.3433 146.083Z" fill="#080717"/>
<path d="M38.4537 146.138C38.7268 146.125 38.9575 146.109 39.2244 146.188C39.3764 146.461 39.3319 146.735 39.3337 147.043C39.069 147.056 38.8111 147.096 38.5624 146.986C38.3864 146.742 38.4456 146.426 38.4537 146.138Z" fill="#080717"/>
<path d="M32.1158 143.038C32.3839 143.028 32.6596 142.984 32.9049 143.112C33.0523 143.348 33.0006 143.635 32.9915 143.903C32.7192 143.911 32.4581 143.945 32.2047 143.827C32.0387 143.59 32.0994 143.312 32.1158 143.038Z" fill="#080717"/>
<path d="M78.4272 150.25L166.356 150.26C166.362 151.595 166.703 154.194 165.737 155.185C165.429 155.501 164.962 155.811 164.518 155.883C163.603 156.031 162.581 155.962 161.653 155.963L156.426 155.969L137.718 155.977L79.9579 155.954L61.1014 155.951L55.1383 155.972C53.9166 155.978 52.6773 156.033 51.4587 155.951C51.0183 155.921 50.7083 155.799 50.3986 155.473C49.4275 154.451 49.7732 151.676 49.7775 150.3L78.4272 150.25Z" fill="#C3D1E2"/>
<path d="M24.2118 121.163C23.8751 121.121 23.4188 120.549 23.2065 120.272C22.0059 118.706 21.455 116.46 21.7316 114.517C22.0188 112.5 23.2364 110.672 24.8534 109.462C26.4661 108.256 28.4436 107.786 30.4326 108.073C32.3925 108.356 34.3203 109.44 35.5122 111.032C36.7252 112.653 37.2605 114.865 36.9631 116.862C36.7842 118.063 35.9019 120.324 34.8766 121.045C34.8405 121.071 34.7972 121.085 34.7577 121.105C34.0825 119.864 33.2734 118.794 31.9639 118.17C30.5686 117.506 28.8382 117.413 27.3878 117.954C25.9019 118.507 24.8534 119.752 24.2118 121.163Z" fill="white"/>
<path d="M29.0701 111.42C29.1065 111.414 29.1431 111.409 29.1798 111.405C29.2165 111.4 29.2532 111.397 29.2901 111.394C29.327 111.392 29.3639 111.39 29.4009 111.39C29.4378 111.389 29.4747 111.389 29.5117 111.39C29.5486 111.391 29.5854 111.393 29.6223 111.396C29.6592 111.399 29.6959 111.403 29.7326 111.408C29.7692 111.412 29.8057 111.418 29.842 111.424C29.8784 111.431 29.9147 111.438 29.9507 111.446C29.9867 111.455 30.0225 111.464 30.0581 111.474C30.0937 111.484 30.129 111.495 30.164 111.506C30.1991 111.518 30.2338 111.531 30.2683 111.544C30.3026 111.557 30.3367 111.572 30.3704 111.587C30.4042 111.602 30.4375 111.618 30.4705 111.634C30.5035 111.651 30.536 111.669 30.5682 111.687C30.6002 111.705 30.6318 111.724 30.6631 111.744C30.6942 111.764 30.7248 111.784 30.755 111.806C30.7852 111.827 30.8149 111.849 30.844 111.872C30.8731 111.895 30.9016 111.918 30.9296 111.942C30.9575 111.966 30.9848 111.991 31.0117 112.017C31.0384 112.042 31.0645 112.068 31.09 112.095C31.1155 112.122 31.1402 112.149 31.1643 112.177C31.1885 112.205 31.212 112.234 31.2347 112.263C31.2574 112.292 31.2794 112.322 31.3007 112.352C31.322 112.382 31.3426 112.413 31.3624 112.444C31.3822 112.475 31.4012 112.507 31.4195 112.539C31.4377 112.571 31.4551 112.604 31.4718 112.636C31.4885 112.67 31.5044 112.703 31.5194 112.737C31.5345 112.77 31.5487 112.804 31.5621 112.839C31.5754 112.873 31.5879 112.908 31.5996 112.943C31.6113 112.978 31.6222 113.013 31.6321 113.049C31.6421 113.085 31.6512 113.121 31.6594 113.157C31.6676 113.193 31.6749 113.229 31.6813 113.265C31.6878 113.302 31.6933 113.338 31.6979 113.375C31.7026 113.411 31.7064 113.448 31.7093 113.485C31.7122 113.522 31.7142 113.559 31.7152 113.596C31.7162 113.633 31.7164 113.669 31.7157 113.706C31.715 113.743 31.7134 113.78 31.7109 113.817C31.7083 113.854 31.7049 113.891 31.7005 113.928C31.6962 113.964 31.6911 114.001 31.685 114.037C31.6788 114.074 31.6719 114.11 31.664 114.146C31.6561 114.182 31.6473 114.218 31.6378 114.254C31.6281 114.289 31.6176 114.325 31.6063 114.36C31.5949 114.395 31.5827 114.43 31.5697 114.465C31.5565 114.499 31.5426 114.533 31.528 114.567C31.5133 114.601 31.4977 114.635 31.4813 114.668C31.465 114.701 31.4478 114.734 31.4298 114.766C31.4118 114.798 31.3931 114.83 31.3736 114.861C31.3542 114.893 31.3339 114.924 31.3128 114.954C31.2918 114.985 31.2701 115.014 31.2476 115.044C31.2252 115.073 31.202 115.102 31.1782 115.13C31.1542 115.158 31.1296 115.186 31.1045 115.213C31.0793 115.24 31.0534 115.266 31.0269 115.292C31.0004 115.318 30.9733 115.343 30.9455 115.367C30.9177 115.392 30.8894 115.415 30.8606 115.438C30.8317 115.461 30.8023 115.484 30.7723 115.505C30.7422 115.527 30.7117 115.548 30.6807 115.568C30.6498 115.588 30.6183 115.607 30.5863 115.626C30.5544 115.645 30.522 115.662 30.4892 115.679C30.4564 115.696 30.4233 115.713 30.3896 115.728C30.3561 115.743 30.3221 115.758 30.2878 115.772C30.2535 115.785 30.2188 115.798 30.1839 115.81C30.149 115.822 30.1138 115.833 30.0783 115.844C30.0428 115.854 30.0071 115.863 29.9711 115.872C29.9352 115.881 29.8991 115.888 29.8628 115.895C29.8137 115.904 29.7643 115.912 29.7148 115.918C29.6652 115.924 29.6156 115.928 29.5658 115.931C29.5159 115.934 29.466 115.935 29.4161 115.934C29.3662 115.933 29.3164 115.931 29.2666 115.927C29.2168 115.923 29.1673 115.918 29.1179 115.911C29.0685 115.904 29.0194 115.895 28.9705 115.884C28.9217 115.874 28.8733 115.862 28.8253 115.848C28.7772 115.835 28.7297 115.82 28.6827 115.803C28.6357 115.786 28.5892 115.768 28.5434 115.748C28.4975 115.728 28.4524 115.707 28.408 115.684C28.3636 115.662 28.3199 115.637 28.277 115.612C28.2343 115.586 28.1923 115.559 28.1512 115.531C28.1102 115.502 28.0701 115.473 28.031 115.442C27.9919 115.411 27.9538 115.378 27.917 115.345C27.88 115.311 27.8441 115.277 27.8094 115.241C27.7748 115.205 27.7413 115.168 27.709 115.13C27.6768 115.092 27.6458 115.052 27.6162 115.012C27.5865 114.972 27.5581 114.931 27.5312 114.889C27.5042 114.847 27.4787 114.804 27.4546 114.761C27.4304 114.717 27.4077 114.672 27.3865 114.627C27.3653 114.582 27.3456 114.536 27.3274 114.49C27.3093 114.443 27.2927 114.396 27.2776 114.349C27.2625 114.301 27.2489 114.253 27.237 114.205C27.2251 114.156 27.2148 114.107 27.206 114.058C27.1974 114.009 27.1903 113.96 27.1848 113.91C27.1793 113.86 27.1755 113.811 27.1734 113.761C27.1712 113.711 27.1706 113.661 27.1718 113.611C27.1728 113.561 27.1756 113.511 27.1801 113.462C27.1845 113.412 27.1905 113.362 27.1981 113.313C27.2058 113.264 27.2151 113.215 27.2259 113.166C27.2368 113.117 27.2494 113.069 27.2634 113.021C27.2775 112.973 27.2931 112.926 27.3103 112.879C27.3274 112.832 27.3461 112.786 27.3664 112.74C27.3866 112.695 27.4083 112.65 27.4316 112.606C27.4548 112.561 27.4794 112.518 27.5054 112.475C27.5314 112.433 27.5589 112.391 27.5877 112.35C27.6165 112.31 27.6466 112.27 27.6781 112.231C27.7095 112.192 27.7422 112.155 27.7761 112.118C27.81 112.081 27.8451 112.046 27.8814 112.011C27.9177 111.977 27.955 111.944 27.9934 111.912C28.0319 111.88 28.0713 111.85 28.1116 111.82C28.152 111.791 28.1934 111.763 28.2357 111.737C28.278 111.71 28.3211 111.685 28.3652 111.661C28.4091 111.638 28.4537 111.616 28.4991 111.595C28.5445 111.574 28.5906 111.555 28.6372 111.537C28.6839 111.519 28.7311 111.503 28.7788 111.489C28.8265 111.474 28.8747 111.461 28.9233 111.45C28.9719 111.438 29.0208 111.428 29.0701 111.42Z" fill="#080717"/>
<path d="M29.2384 112.027C29.2649 112.024 29.2914 112.021 29.3179 112.019C29.3445 112.017 29.3711 112.016 29.3977 112.016C29.4243 112.015 29.451 112.015 29.4776 112.016C29.5042 112.017 29.5308 112.018 29.5574 112.02C29.5839 112.022 29.6104 112.025 29.6369 112.028C29.6633 112.032 29.6897 112.036 29.7159 112.04C29.7422 112.045 29.7683 112.05 29.7942 112.056C29.8202 112.062 29.846 112.069 29.8717 112.076C29.8974 112.083 29.9228 112.091 29.9481 112.099C29.9734 112.107 29.9985 112.117 30.0233 112.126C30.0482 112.136 30.0728 112.146 30.0971 112.157C30.1214 112.168 30.1454 112.179 30.1692 112.191C30.1929 112.203 30.2163 112.216 30.2395 112.229C30.2627 112.242 30.2855 112.256 30.3081 112.27C30.3306 112.285 30.3527 112.299 30.3743 112.315C30.3961 112.33 30.4175 112.346 30.4385 112.363C30.4594 112.379 30.48 112.396 30.5002 112.413C30.5203 112.431 30.54 112.449 30.5593 112.467C30.5786 112.485 30.5975 112.504 30.6158 112.524C30.6341 112.543 30.652 112.563 30.6694 112.583C30.6868 112.603 30.7037 112.624 30.72 112.645C30.7364 112.666 30.7522 112.687 30.7676 112.709C30.7829 112.731 30.7977 112.753 30.812 112.775C30.8263 112.798 30.84 112.821 30.8531 112.844C30.8662 112.867 30.8787 112.891 30.8906 112.914C30.9026 112.938 30.914 112.962 30.9249 112.987C30.9357 113.011 30.9459 113.036 30.9555 113.06C30.965 113.085 30.974 113.11 30.9824 113.136C30.9908 113.161 30.9986 113.186 31.0056 113.212C31.0127 113.238 31.0192 113.264 31.0251 113.29C31.031 113.316 31.0362 113.342 31.0408 113.368C31.0453 113.394 31.0493 113.421 31.0526 113.447C31.0559 113.473 31.0586 113.5 31.0606 113.526C31.0625 113.553 31.0638 113.58 31.0645 113.606C31.0652 113.633 31.0653 113.66 31.0647 113.686C31.0641 113.713 31.0629 113.739 31.0609 113.766C31.0589 113.793 31.0564 113.819 31.0533 113.846C31.0501 113.872 31.0462 113.898 31.0417 113.925C31.0372 113.951 31.0321 113.977 31.0263 114.003C31.0205 114.029 31.014 114.055 31.007 114.081C30.9999 114.106 30.9923 114.132 30.984 114.157C30.9757 114.182 30.9668 114.208 30.9574 114.232C30.9478 114.257 30.9377 114.282 30.9269 114.306C30.9162 114.331 30.9049 114.355 30.8929 114.379C30.881 114.403 30.8686 114.426 30.8556 114.449C30.8424 114.473 30.8288 114.496 30.8146 114.518C30.8004 114.541 30.7857 114.563 30.7705 114.585C30.7552 114.606 30.7394 114.628 30.7231 114.649C30.7068 114.67 30.69 114.691 30.6727 114.711C30.6554 114.731 30.6376 114.751 30.6193 114.77C30.6009 114.79 30.5822 114.809 30.5629 114.827C30.5437 114.845 30.524 114.863 30.504 114.881C30.4839 114.898 30.4634 114.915 30.4424 114.932C30.4215 114.948 30.4001 114.964 30.3785 114.98C30.3567 114.995 30.3346 115.01 30.3123 115.025C30.2898 115.039 30.267 115.053 30.2438 115.066C30.2208 115.079 30.1974 115.092 30.1737 115.104C30.1499 115.116 30.1259 115.128 30.1016 115.139C30.0773 115.149 30.0527 115.16 30.0279 115.17C30.003 115.179 29.978 115.188 29.9527 115.197C29.9275 115.205 29.9021 115.213 29.8765 115.221C29.8508 115.228 29.825 115.234 29.7991 115.24C29.773 115.246 29.7469 115.252 29.7208 115.256C29.6945 115.261 29.6682 115.265 29.6418 115.269C29.6152 115.272 29.5885 115.275 29.5618 115.277C29.535 115.279 29.5083 115.281 29.4816 115.281C29.4547 115.282 29.4279 115.282 29.401 115.282C29.3743 115.282 29.3475 115.28 29.3206 115.279C29.2939 115.277 29.2672 115.274 29.2406 115.271C29.214 115.268 29.1874 115.264 29.1609 115.26C29.1345 115.255 29.1082 115.25 29.0819 115.244C29.0558 115.239 29.0298 115.232 29.004 115.225C28.978 115.218 28.9523 115.211 28.9269 115.202C28.9013 115.194 28.876 115.185 28.851 115.176C28.8259 115.166 28.801 115.156 28.7765 115.145C28.7519 115.134 28.7276 115.123 28.7036 115.111C28.6796 115.099 28.6559 115.086 28.6325 115.073C28.6091 115.06 28.5861 115.047 28.5634 115.032C28.5407 115.018 28.5183 115.003 28.4963 114.988C28.4743 114.973 28.4527 114.957 28.4315 114.94C28.4103 114.924 28.3895 114.907 28.3691 114.889C28.3488 114.872 28.3289 114.854 28.3094 114.836C28.2899 114.817 28.2708 114.798 28.2522 114.779C28.2337 114.76 28.2156 114.74 28.1981 114.72C28.1805 114.699 28.1634 114.679 28.147 114.657C28.1304 114.636 28.1143 114.615 28.0987 114.593C28.0833 114.571 28.0684 114.549 28.054 114.526C28.0396 114.504 28.0257 114.481 28.0125 114.457C27.9991 114.434 27.9864 114.41 27.9743 114.386C27.9622 114.363 27.9507 114.338 27.9397 114.314C27.9289 114.289 27.9186 114.265 27.9088 114.24C27.8991 114.215 27.8901 114.189 27.8816 114.164C27.8731 114.139 27.8653 114.113 27.8581 114.087C27.851 114.061 27.8444 114.035 27.8384 114.009C27.8326 113.983 27.8273 113.956 27.8227 113.93C27.8181 113.904 27.8141 113.877 27.8108 113.851C27.8074 113.824 27.8048 113.797 27.8028 113.771C27.8009 113.744 27.7995 113.717 27.7988 113.69C27.7982 113.663 27.7981 113.637 27.7987 113.61C27.7994 113.583 27.8007 113.556 27.8026 113.529C27.8046 113.503 27.8072 113.476 27.8104 113.449C27.8138 113.423 27.8177 113.396 27.8222 113.37C27.8268 113.343 27.832 113.317 27.8379 113.291C27.8438 113.265 27.8503 113.239 27.8574 113.213C27.8646 113.187 27.8724 113.161 27.8808 113.136C27.8893 113.11 27.8983 113.085 27.9079 113.06C27.9176 113.035 27.9279 113.01 27.9389 112.986C27.9497 112.961 27.9612 112.937 27.9733 112.913C27.9854 112.889 27.998 112.866 28.0113 112.842C28.0245 112.819 28.0383 112.796 28.0526 112.773C28.067 112.751 28.0819 112.728 28.0974 112.706C28.1129 112.685 28.1289 112.663 28.1454 112.642C28.162 112.621 28.1791 112.6 28.1966 112.58C28.2141 112.56 28.2321 112.54 28.2507 112.52C28.2692 112.501 28.2882 112.482 28.3077 112.464C28.3272 112.445 28.3471 112.427 28.3674 112.41C28.3877 112.392 28.4085 112.375 28.4298 112.359C28.4508 112.342 28.4724 112.326 28.4944 112.311C28.5164 112.296 28.5388 112.281 28.5615 112.266C28.5842 112.252 28.6072 112.238 28.6304 112.225C28.6538 112.212 28.6776 112.2 28.7016 112.188C28.7256 112.176 28.7499 112.164 28.7744 112.153C28.799 112.143 28.8237 112.133 28.8487 112.123C28.8739 112.113 28.8992 112.104 28.9246 112.096C28.9501 112.088 28.9758 112.08 29.0017 112.073C29.0275 112.066 29.0536 112.06 29.0798 112.054C29.106 112.048 29.1323 112.043 29.1587 112.038C29.1852 112.034 29.2117 112.03 29.2384 112.027Z" fill="white"/>
<path d="M24.8162 121.431C25.3925 120.113 26.1482 119.157 27.5347 118.614C28.8046 118.117 30.3428 118.11 31.5929 118.669C32.849 119.232 33.4554 120.205 34.1162 121.349L34.1841 121.632C34.1314 121.809 34.0591 121.922 33.9098 122.036C32.3507 123.226 30.4503 123.597 28.5438 123.359C27.497 123.229 25.4705 122.721 24.8425 121.824C24.7341 121.67 24.7893 121.609 24.8162 121.431Z" fill="white"/>
<path d="M26.6165 99.6841C28.6293 99.6258 30.6818 99.5912 32.6929 99.6886C32.8208 99.7418 32.962 99.7973 33.0746 99.879C33.2725 100.023 33.3622 100.23 33.4151 100.461C33.3598 100.699 33.3141 100.745 33.1491 100.93C32.2514 101.274 27.0859 101.367 26.1944 101.029C25.9377 100.931 25.7731 100.812 25.6651 100.551C25.6699 100.377 25.6872 100.296 25.7773 100.141C25.9691 99.8113 26.272 99.7485 26.6165 99.6841Z" fill="white"/>
<path d="M144.361 71.6324C141.83 71.5862 139.298 71.566 136.766 71.5716C135.578 71.5694 134.189 71.713 133.031 71.4999C132.938 71.4826 132.846 71.4582 132.757 71.4266C132.667 71.3951 132.581 71.3569 132.497 71.3118C132.414 71.2669 132.334 71.2157 132.259 71.1583C132.183 71.1009 132.112 71.0381 132.046 70.9697C131.749 70.657 131.715 69.8844 131.685 69.4554C131.603 68.3142 131.653 67.1374 131.65 65.9925L131.641 59.5071L131.636 53.686C131.633 52.4694 131.576 51.2197 131.671 50.0075C131.718 49.4106 131.875 49.0613 132.339 48.6683C132.692 48.369 133.1 48.3554 133.543 48.3244C134.961 48.2252 136.414 48.2942 137.837 48.2959L145.799 48.3099L155.527 48.3155C157.24 48.3134 158.973 48.2536 160.683 48.3203C161.209 48.6273 161.888 49.0219 162.037 49.6653C162.219 50.4516 162.11 51.4845 162.108 52.2931L162.102 56.9477L162.129 65.2874C162.134 66.7195 162.217 68.206 162.125 69.6326C162.101 69.9987 162.02 70.3601 161.818 70.6723C161.482 71.1934 161.05 71.4053 160.457 71.5144C159.259 71.7353 157.929 71.6357 156.711 71.6312C154.338 71.6228 151.955 71.5628 149.582 71.5986C148.766 73.2941 147.598 75.1301 146.814 76.8372C145.916 75.2206 145.302 73.2182 144.361 71.6324Z" fill="#FDCC33"/>
<path d="M145.666 51.9932C145.802 51.9749 145.937 51.9601 146.073 51.9487C146.209 51.9372 146.346 51.9291 146.482 51.9244C146.619 51.9195 146.755 51.9181 146.892 51.92C147.028 51.922 147.164 51.9273 147.301 51.9359C147.437 51.9446 147.573 51.9566 147.709 51.9719C147.844 51.9871 147.98 52.0057 148.114 52.0277C148.249 52.0497 148.383 52.075 148.517 52.1036C148.65 52.1322 148.783 52.164 148.915 52.199C149.047 52.2342 149.178 52.2725 149.308 52.314C149.438 52.3556 149.567 52.4003 149.695 52.4481C149.823 52.496 149.949 52.547 150.075 52.6011C150.2 52.6552 150.324 52.7124 150.447 52.7725C150.569 52.8328 150.69 52.896 150.81 52.9622C150.929 53.0283 151.047 53.0973 151.163 53.1692C151.279 53.2413 151.393 53.316 151.505 53.3936C151.618 53.4711 151.728 53.5514 151.837 53.6344C151.945 53.7173 152.051 53.803 152.156 53.8912C152.26 53.9794 152.362 54.0701 152.461 54.1633C152.561 54.2565 152.659 54.3522 152.754 54.4502C152.849 54.5483 152.941 54.6486 153.031 54.7512C153.121 54.8537 153.209 54.9584 153.294 55.0652C153.379 55.1722 153.461 55.2811 153.541 55.3921C153.62 55.503 153.697 55.6158 153.771 55.7306C153.845 55.8452 153.917 55.9617 153.985 56.0799C154.053 56.1981 154.119 56.3179 154.181 56.4392C154.244 56.5607 154.303 56.6836 154.359 56.8079C154.416 56.9323 154.469 57.0579 154.519 57.1849C154.57 57.3119 154.617 57.4401 154.66 57.5693C154.704 57.6986 154.745 57.8289 154.783 57.9602C154.82 58.0914 154.854 58.2235 154.885 58.3565C154.916 58.4895 154.944 58.6232 154.969 58.7575C154.993 58.8918 155.014 59.0266 155.032 59.162C155.05 59.2974 155.064 59.4331 155.075 59.5692C155.087 59.7053 155.094 59.8416 155.099 59.978C155.103 60.1145 155.104 60.251 155.102 60.3875C155.1 60.524 155.094 60.6603 155.085 60.7967C155.076 60.9329 155.064 61.0688 155.048 61.2044C155.032 61.34 155.013 61.4752 154.991 61.6099C154.969 61.7446 154.943 61.8787 154.914 62.0121C154.885 62.1456 154.853 62.2782 154.818 62.4101C154.782 62.542 154.744 62.6729 154.702 62.8028C154.66 62.9328 154.615 63.0616 154.567 63.1894C154.518 63.3171 154.467 63.4436 154.413 63.5688C154.358 63.694 154.301 63.8178 154.24 63.9403C154.18 64.0627 154.116 64.1835 154.05 64.3028C153.983 64.422 153.914 64.5396 153.842 64.6554C153.769 64.7712 153.694 64.8852 153.616 64.9975C153.539 65.1096 153.458 65.2198 153.375 65.328C153.292 65.4362 153.206 65.5423 153.117 65.6464C153.029 65.7503 152.938 65.852 152.844 65.9516C152.751 66.0511 152.655 66.1482 152.557 66.243C152.458 66.3378 152.358 66.4301 152.255 66.5199C152.152 66.6098 152.047 66.6971 151.94 66.7818C151.833 66.8665 151.724 66.9485 151.613 67.0278C151.502 67.1071 151.389 67.1836 151.274 67.2573C151.159 67.3312 151.042 67.4021 150.924 67.4701C150.805 67.5381 150.685 67.6031 150.564 67.6653C150.442 67.7274 150.319 67.7865 150.195 67.8426C150.07 67.8987 149.944 67.9517 149.817 68.0016C149.69 68.0515 149.562 68.0982 149.433 68.1418C149.303 68.1854 149.173 68.2257 149.041 68.2628C148.91 68.3 148.778 68.334 148.645 68.3646C148.512 68.3953 148.378 68.4226 148.244 68.4467C148.109 68.4708 147.974 68.4916 147.839 68.5091C147.704 68.5265 147.569 68.5406 147.433 68.5513C147.297 68.5621 147.161 68.5696 147.025 68.5738C146.889 68.5778 146.753 68.5785 146.617 68.576C146.481 68.5735 146.345 68.5676 146.209 68.5584C146.074 68.5492 145.938 68.5366 145.803 68.5207C145.668 68.5049 145.533 68.4858 145.399 68.4633C145.265 68.4408 145.131 68.4151 144.998 68.386C144.865 68.357 144.733 68.3247 144.602 68.2893C144.47 68.2538 144.34 68.2151 144.21 68.1733C144.081 68.1313 143.953 68.0863 143.825 68.0381C143.698 67.9899 143.572 67.9386 143.447 67.8843C143.322 67.83 143.199 67.7727 143.077 67.7123C142.955 67.6518 142.835 67.5884 142.716 67.5221C142.597 67.4559 142.48 67.3867 142.365 67.3145C142.249 67.2425 142.135 67.1677 142.024 67.0902C141.912 67.0125 141.802 66.9322 141.694 66.8492C141.586 66.7663 141.481 66.6806 141.377 66.5924C141.273 66.5042 141.172 66.4136 141.073 66.3205C140.973 66.2272 140.876 66.1317 140.782 66.0339C140.687 65.9359 140.595 65.8358 140.506 65.7335C140.416 65.631 140.329 65.5264 140.244 65.4197C140.16 65.313 140.078 65.2044 139.999 65.0937C139.92 64.983 139.843 64.8704 139.77 64.756C139.696 64.6416 139.625 64.5254 139.557 64.4075C139.489 64.2895 139.424 64.17 139.362 64.049C139.3 63.9279 139.241 63.8054 139.185 63.6814C139.129 63.5574 139.076 63.4321 139.026 63.3054C138.976 63.1789 138.929 63.0512 138.886 62.9222C138.842 62.7934 138.801 62.6635 138.764 62.5326C138.727 62.4017 138.693 62.27 138.662 62.1375C138.631 62.0049 138.603 61.8717 138.579 61.7378C138.555 61.6039 138.534 61.4695 138.516 61.3346C138.498 61.1996 138.484 61.0643 138.472 60.9287C138.461 60.7931 138.454 60.6573 138.449 60.5213C138.445 60.3852 138.444 60.2491 138.446 60.113C138.448 59.9771 138.454 59.8411 138.462 59.7053C138.471 59.5695 138.483 59.434 138.499 59.2987C138.514 59.1636 138.533 59.0288 138.555 58.8946C138.578 58.7603 138.603 58.6267 138.632 58.4936C138.66 58.3606 138.692 58.2284 138.727 58.0969C138.763 57.9654 138.801 57.8348 138.842 57.7052C138.884 57.5757 138.929 57.4472 138.976 57.3197C139.024 57.1924 139.075 57.0663 139.129 56.9414C139.183 56.8165 139.24 56.6929 139.301 56.5708C139.361 56.4486 139.424 56.3281 139.49 56.2092C139.556 56.0901 139.624 55.9728 139.696 55.8571C139.768 55.7415 139.843 55.6277 139.92 55.5157C139.997 55.4037 140.077 55.2936 140.16 55.1855C140.243 55.0776 140.328 54.9716 140.416 54.8677C140.504 54.7638 140.594 54.6622 140.687 54.5628C140.78 54.4633 140.875 54.3662 140.973 54.2713C141.07 54.1766 141.17 54.0843 141.273 53.9944C141.375 53.9045 141.479 53.8172 141.586 53.7324C141.692 53.6476 141.801 53.5655 141.911 53.4861C142.022 53.4066 142.134 53.3299 142.248 53.256C142.362 53.182 142.478 53.1109 142.596 53.0427C142.714 52.9744 142.833 52.909 142.954 52.8467C143.075 52.7842 143.197 52.7248 143.321 52.6685C143.445 52.612 143.57 52.5587 143.697 52.5084C143.823 52.4582 143.951 52.411 144.08 52.367C144.208 52.323 144.338 52.2822 144.469 52.2445C144.6 52.2068 144.731 52.1723 144.864 52.1411C144.996 52.1099 145.129 52.0819 145.263 52.0573C145.397 52.0326 145.532 52.0112 145.666 51.9932Z" fill="white"/>
<path d="M145.024 57.4324C146.799 58.3293 148.563 59.4966 150.193 60.6376C149.614 61.0038 149.018 61.3478 148.43 61.702C147.314 62.3647 146.19 63.0137 145.058 63.6492L145.024 57.4324Z" fill="#080717"/>
<path d="M0 155.98C1.30142 155.977 8.75685 155.801 9.37945 156.043C9.51895 156.222 9.50419 156.218 9.48641 156.446C9.30602 156.615 9.16036 156.612 8.91261 156.629C8.04026 156.69 7.11692 156.61 6.24017 156.607C4.16301 156.601 2.07615 156.6 0 156.664V155.98Z" fill="white"/>
<path d="M61.1397 20.4845C61.576 20.4639 62.0125 20.454 62.4492 20.4548C62.8859 20.4557 63.3225 20.4672 63.7587 20.4893C64.1949 20.5116 64.6302 20.5445 65.0648 20.5882C65.4993 20.6318 65.9326 20.6859 66.3646 20.7507C66.7965 20.8156 67.2266 20.891 67.6548 20.9769C68.083 21.0629 68.5089 21.1593 68.9324 21.2661C69.3558 21.3729 69.7764 21.4901 70.1942 21.6175C70.612 21.745 71.0264 21.8826 71.4373 22.0303C71.8484 22.1781 72.2555 22.336 72.6587 22.5037C73.062 22.6714 73.4609 22.8489 73.8555 23.0363C74.2501 23.2236 74.6398 23.4204 75.0247 23.6269C75.4096 23.8333 75.7891 24.0491 76.1634 24.2743C76.5377 24.4993 76.9063 24.7334 77.2692 24.9766C77.6319 25.2196 77.9886 25.4714 78.3391 25.7321C78.6895 25.9927 79.0334 26.2618 79.3707 26.5393C79.708 26.8168 80.0382 27.1024 80.3615 27.3961C80.6847 27.6899 81.0006 27.9913 81.309 28.3005C81.6175 28.6097 81.9182 28.9262 82.2112 29.2501C82.5041 29.5742 82.7889 29.9051 83.0657 30.243C83.3424 30.581 83.6107 30.9255 83.8705 31.2765C84.1303 31.6276 84.3813 31.9848 84.6236 32.3482C84.8659 32.7116 85.0991 33.0808 85.3233 33.4556C85.5475 33.8304 85.7623 34.2105 85.9679 34.5959C86.1735 34.9813 86.3694 35.3714 86.5558 35.7665C86.7422 36.1614 86.9188 36.5607 87.0856 36.9643C87.2524 37.368 87.4093 37.7755 87.5561 38.1869C87.7029 38.5982 87.8396 39.0128 87.9661 39.4309C88.0925 39.849 88.2086 40.2699 88.3145 40.6936C88.4203 41.1173 88.5157 41.5434 88.6006 41.9718C88.6855 42.4003 88.7599 42.8306 88.8238 43.2627C88.8876 43.6947 88.9408 44.128 88.9835 44.5627C89.026 44.9974 89.0579 45.4328 89.0791 45.8691C89.1003 46.3054 89.1108 46.7419 89.1105 47.1786C89.1104 47.6154 89.0995 48.0519 89.0779 48.4882C89.0563 48.9243 89.024 49.3597 88.9811 49.7944C88.9381 50.2291 88.8844 50.6624 88.8201 51.0944C88.756 51.5264 88.6812 51.9566 88.5958 52.3849C88.5105 52.8133 88.4147 53.2393 88.3085 53.663C88.2022 54.0866 88.0857 54.5074 87.9588 54.9253C87.8319 55.3433 87.6949 55.7578 87.5478 56.169C87.4006 56.5802 87.2434 56.9875 87.0762 57.3911C86.909 57.7946 86.732 58.1938 86.5452 58.5886C86.3584 58.9834 86.1621 59.3734 85.9563 59.7586C85.7504 60.1437 85.5351 60.5236 85.3106 60.8982C85.0861 61.2728 84.8525 61.6418 84.6098 62.005C84.3672 62.3681 84.1159 62.7251 83.8557 63.076C83.5956 63.4269 83.327 63.7711 83.05 64.1088C82.773 64.4464 82.4878 64.7771 82.1946 65.1008C81.9013 65.4244 81.6003 65.7408 81.2916 66.0497C80.9829 66.3585 80.6667 66.6596 80.3431 66.953C80.0196 67.2465 79.689 67.5319 79.3515 67.809C79.014 68.0861 78.6699 68.3549 78.3192 68.6152C77.9685 68.8755 77.6116 69.127 77.2486 69.3698C76.8855 69.6126 76.5167 69.8465 76.1422 70.0713C75.7677 70.296 75.3878 70.5114 75.0027 70.7174C74.6176 70.9234 74.2277 71.12 73.833 71.307C73.4384 71.4939 73.0393 71.6711 72.6359 71.8385C72.2324 72.0058 71.8251 72.1632 71.414 72.3106C71.0028 72.4581 70.5883 72.5953 70.1705 72.7223C69.7526 72.8494 69.3319 72.9662 68.9083 73.0727C68.4847 73.179 68.0588 73.275 67.6304 73.3605C67.2021 73.4461 66.7719 73.5211 66.3399 73.5855C65.908 73.6499 65.4747 73.7037 65.0401 73.747C64.6054 73.7902 64.17 73.8227 63.7338 73.8445C63.2969 73.8663 62.8596 73.8775 62.4221 73.8778C61.9845 73.8782 61.5472 73.8678 61.1101 73.8467C60.673 73.8256 60.2368 73.7937 59.8015 73.7511C59.366 73.7086 58.9318 73.6554 58.4989 73.5916C58.066 73.5276 57.635 73.4531 57.2058 73.3681C56.7766 73.283 56.3498 73.1875 55.9253 73.0815C55.5007 72.9754 55.0791 72.8589 54.6603 72.7322C54.2416 72.6054 53.8262 72.4684 53.4141 72.3213C53.002 72.1741 52.5938 72.0169 52.1896 71.8496C51.7852 71.6824 51.3853 71.5053 50.9897 71.3184C50.594 71.1315 50.2031 70.935 49.8172 70.729C49.4313 70.5228 49.0506 70.3073 48.6752 70.0825C48.2999 69.8578 47.9303 69.6239 47.5663 69.3809C47.2024 69.138 46.8447 68.8863 46.4933 68.6257C46.1417 68.3652 45.7968 68.0961 45.4586 67.8185C45.1203 67.541 44.789 67.2554 44.4647 66.9617C44.1404 66.6679 43.8236 66.3664 43.5142 66.057C43.2047 65.7477 42.903 65.4309 42.6091 65.1066C42.3153 64.7825 42.0296 64.4513 41.752 64.1131C41.4744 63.7749 41.2052 63.4301 40.9446 63.0787C40.6839 62.7273 40.4321 62.3696 40.189 62.0058C39.9459 61.6419 39.7119 61.2724 39.4871 60.8972C39.2621 60.5219 39.0465 60.1412 38.8403 59.7553C38.6341 59.3694 38.4375 58.9786 38.2505 58.583C38.0635 58.1874 37.8863 57.7875 37.719 57.3833C37.5516 56.979 37.3942 56.5709 37.2469 56.1588C37.0997 55.7468 36.9626 55.3315 36.8357 54.9127C36.7088 54.494 36.5923 54.0724 36.486 53.648C36.3799 53.2234 36.2843 52.7966 36.1991 52.3675C36.1138 51.9383 36.0392 51.5074 35.9753 51.0745C35.9112 50.6416 35.8578 50.2074 35.8152 49.7719C35.7724 49.3366 35.7405 48.9004 35.7193 48.4633C35.6981 48.0262 35.6876 47.5889 35.6878 47.1513C35.688 46.7138 35.699 46.2765 35.7207 45.8396C35.7424 45.4026 35.7749 44.9664 35.8181 44.5309C35.8612 44.0955 35.915 43.6615 35.9796 43.2286C36.0441 42.7959 36.1192 42.365 36.2048 41.9359C36.2905 41.5069 36.3867 41.0802 36.4933 40.6557C36.5999 40.2315 36.7169 39.81 36.8444 39.3913C36.9717 38.9728 37.1092 38.5576 37.257 38.1458C37.4047 37.7339 37.5625 37.3259 37.7304 36.9218C37.8982 36.5178 38.0758 36.1181 38.2631 35.7227C38.4506 35.3274 38.6477 34.9368 38.8543 34.5511C39.061 34.1655 39.277 33.7851 39.5023 33.41C39.7276 33.0349 39.962 32.6656 40.2055 32.3022C40.4489 31.9386 40.7013 31.5813 40.9624 31.2301C41.2234 30.8789 41.4929 30.5344 41.7708 30.1965C42.0487 29.8586 42.3349 29.5278 42.6292 29.204C42.9234 28.8801 43.2253 28.5636 43.5351 28.2547C43.8448 27.9456 44.162 27.6444 44.4866 27.351C44.8113 27.0576 45.1428 26.7724 45.4814 26.4952C45.8201 26.2181 46.1653 25.9494 46.517 25.6892C46.8688 25.4291 47.2267 25.1778 47.5909 24.9352C47.9551 24.6927 48.325 24.4592 48.7006 24.2348C49.0763 24.0104 49.4572 23.7953 49.8433 23.5898C50.2296 23.3841 50.6206 23.188 51.0165 23.0016C51.4123 22.8151 51.8124 22.6384 52.2169 22.4716C52.6214 22.3048 53.0297 22.1481 53.4419 22.0014C53.8542 21.8546 54.2698 21.7181 54.6887 21.5918C55.1076 21.4655 55.5293 21.3496 55.954 21.244C56.3786 21.1384 56.8055 21.0434 57.2348 20.9588C57.6642 20.8742 58.0953 20.8002 58.5282 20.7367C58.9611 20.6733 59.3953 20.6206 59.8309 20.5785C60.2663 20.5365 60.7026 20.5051 61.1397 20.4845Z" fill="#080717"/>
<path d="M60.5501 21.0416L60.8168 21.031C60.8408 21.2289 58.849 22.9329 58.6072 23.1764C54.7936 27.0196 50.8408 32.714 49.4276 38.0017C48.5981 38.3423 47.7172 38.5623 46.8817 38.8963C42.9897 40.4517 39.3469 42.6437 36.773 46.0186L36.6718 46.1545L36.5756 46.16C36.5693 46.1272 36.5607 46.0945 36.5567 46.0611C36.4796 45.4065 36.6886 44.544 36.788 43.8808C37.4996 39.1294 39.5683 34.2414 42.6209 30.5289C47.2175 24.9385 53.3674 21.743 60.5501 21.0416Z" fill="white"/>
<path d="M64.1775 21.0747C64.987 21.042 65.8941 21.1978 66.6954 21.3264C71.3312 22.0714 75.8253 24.349 79.343 27.4381C84.9125 32.3287 87.8471 38.9222 88.3002 46.2644C88.1952 46.1805 88.2343 46.2236 88.1538 46.1095C85.1615 41.8719 80.1644 39.3844 75.3498 37.7796C75.2128 37.3789 75.0693 36.9806 74.9194 36.5845C74.7695 36.1884 74.6131 35.7949 74.4504 35.4039C74.2877 35.0131 74.1187 34.6249 73.9433 34.2394C73.7679 33.854 73.5863 33.4715 73.3986 33.0919C73.2108 32.7123 73.0169 32.3359 72.8168 31.9626C72.6168 31.5894 72.4107 31.2195 72.1987 30.8529C71.9867 30.4864 71.7687 30.1233 71.5448 29.7638C71.321 29.4044 71.0914 29.0486 70.856 28.6966C70.6206 28.3447 70.3795 27.9966 70.1328 27.6524C69.8859 27.3082 69.6336 26.9681 69.3759 26.6322C69.1181 26.2962 68.8549 25.9645 68.5863 25.6371C68.3178 25.3097 68.044 24.9868 67.7649 24.6683C67.4858 24.3498 67.2016 24.0359 66.9124 23.7266C66.623 23.4173 66.3288 23.1128 66.0296 22.8131C65.7305 22.5135 65.4265 22.2188 65.1177 21.9289C64.8089 21.6391 64.4956 21.3544 64.1775 21.0747Z" fill="white"/>
<path d="M60.1836 36.7666C60.8586 36.7055 61.5505 36.7281 62.2286 36.724L62.2022 48.32L50.6023 48.3133L48.3798 48.3092C48.3699 44.9437 49.0714 41.7605 49.9764 38.5375C53.365 37.5037 56.6595 37.0313 60.1836 36.7666Z" fill="white"/>
<path d="M53.8541 48.9603C56.6488 48.9522 59.4434 48.9617 62.2378 48.9888L62.2043 60.443C60.4586 60.4291 58.7374 60.2914 56.9997 60.1287C54.6055 59.8245 52.1879 59.42 49.8806 58.698C48.8136 55.5188 48.3996 52.3324 48.3556 48.9891C50.1826 48.9316 52.0255 48.967 53.8541 48.9603Z" fill="white"/>
<path d="M62.8892 36.7217C66.9517 36.7303 70.8488 37.3424 74.7736 38.3707C76.1892 41.3695 76.5699 45.0412 76.5899 48.3205L62.874 48.3288C62.7746 44.4722 62.8971 40.582 62.8892 36.7217Z" fill="white"/>
<path d="M62.897 49C67.4477 48.9068 72.03 48.9416 76.5817 48.9969C76.566 49.8265 76.5178 50.6541 76.437 51.4799C76.3562 52.3055 76.2431 53.1268 76.0977 53.9437C75.9523 54.7605 75.7749 55.5704 75.5657 56.3733C75.3565 57.1762 75.1161 57.9695 74.8444 58.7535C74.4185 58.9395 73.8869 59.0318 73.4348 59.149C70.0332 60.031 66.3921 60.3885 62.8858 60.4167L62.897 49Z" fill="white"/>
<path d="M36.6418 50.9475C37.2534 51.2633 38.4466 52.9358 39.0151 53.4865C41.761 56.1464 45.5508 58.0844 49.204 59.1673C50.8048 63.8765 53.6845 68.4766 57.6774 71.5203C58.5065 72.1524 59.4016 72.6672 60.3025 73.1875C55.6031 73.0917 49.9429 70.5494 46.306 67.698C41.091 63.6094 37.4553 57.5461 36.6418 50.9475Z" fill="white"/>
<path d="M88.048 51.166C88.0911 51.2142 88.0997 51.3128 88.0983 51.3717C88.0824 52.0548 87.81 52.8416 87.6351 53.5042C87.5703 53.7576 87.5017 54.01 87.4292 54.2614C87.3569 54.5128 87.2807 54.763 87.2007 55.0121C87.1209 55.2613 87.0372 55.5091 86.9497 55.7556C86.8624 56.0022 86.7713 56.2474 86.6765 56.4912C86.5816 56.7351 86.4831 56.9774 86.381 57.2182C86.279 57.4591 86.1732 57.6983 86.0639 57.9359C85.9545 58.1737 85.8416 58.4096 85.7252 58.6439C85.6089 58.8781 85.4889 59.1105 85.3654 59.3412C85.242 59.5719 85.1151 59.8006 84.9848 60.0274C84.8544 60.2542 84.7207 60.479 84.5836 60.7019C84.4464 60.9246 84.306 61.1453 84.1623 61.3637C84.0185 61.5823 83.8715 61.7987 83.7212 62.0128C83.5708 62.2269 83.4173 62.4387 83.2607 62.6482C83.104 62.8577 82.9442 63.0648 82.7812 63.2696C82.6184 63.4743 82.4525 63.6764 82.2834 63.876C82.1144 64.0757 81.9424 64.2728 81.7675 64.4673C77.6344 69.1289 71.115 72.684 64.8398 73.0762L64.7912 73.0554C64.8208 72.894 65.3943 72.621 65.5585 72.5191C66.0867 72.1947 66.5952 71.8418 67.0839 71.4603C67.5726 71.0789 68.0384 70.6713 68.4814 70.2376C71.6674 67.1672 73.7769 63.4248 75.3896 59.3485C80.1788 57.9238 85.1984 55.3808 88.048 51.166Z" fill="white"/>
<path d="M62.0457 20.9951C62.3481 21.4813 62.2277 34.2395 62.2289 36.0448C58.1499 36.0334 54.4056 36.6382 50.4696 37.6667L50.309 37.6419C50.303 37.5854 50.2883 37.5291 50.2907 37.4724C50.3102 37.0247 51.0488 35.5729 51.2639 35.0848C53.8191 29.2813 57.3398 25.1598 62.0457 20.9951Z" fill="white"/>
<path d="M62.8659 21.0229C62.9081 21.0452 62.9505 21.0669 62.9923 21.0898C63.8975 21.5894 64.7863 22.5518 65.5128 23.2847C69.1792 26.9832 73.0866 32.5606 74.5282 37.6179C70.6709 36.5988 66.8866 36.0441 62.8894 36.0346C62.8989 31.0321 62.7999 26.0244 62.8659 21.0229Z" fill="white"/>
<path d="M50.0815 59.4946C54.0958 60.4801 58.0811 61.0596 62.2195 61.1053C62.2123 65.0898 62.1324 69.0936 62.2638 73.0751C61.5269 72.9592 60.7926 72.6483 60.1346 72.3045C55.5962 69.934 51.6267 64.3219 50.0815 59.4946Z" fill="white"/>
<path d="M74.469 59.6624C74.4841 59.7757 74.5033 59.8207 74.4633 59.931C74.1849 60.7024 73.7849 61.4451 73.425 62.1818C71.1219 66.896 67.7014 70.8949 62.885 73.1185C62.7113 72.5038 62.8493 70.5712 62.8498 69.8366L62.856 61.1024C66.8389 60.9741 70.5731 60.462 74.469 59.6624Z" fill="white"/>
<path d="M75.6741 38.623C76.5344 38.85 77.3734 39.2362 78.1865 39.5957C82.2891 41.4105 86.7578 43.9225 88.4563 48.3274C84.7331 48.3021 81.0098 48.2985 77.2866 48.3167C77.2723 44.9181 76.6433 41.8604 75.6741 38.623Z" fill="white"/>
<path d="M49.0017 38.905L49.0546 38.9581C49.1092 39.332 48.3571 41.9776 48.2332 42.6227C47.8686 44.518 47.7303 46.39 47.6539 48.3165L36.4946 48.3087L36.4326 48.2152C36.4469 47.8933 36.5396 47.6581 36.6886 47.373C37.1767 46.4389 37.9506 45.5892 38.6899 44.8496C41.5511 41.9868 45.1716 40.1255 49.0017 38.905Z" fill="white"/>
<path d="M77.3265 48.9991C81.0076 48.9784 84.7016 48.9027 88.3812 48.9958C87.4489 51.5592 85.506 53.4317 83.2764 54.9191C80.9279 56.4872 78.2841 57.6455 75.6286 58.5751C76.6028 55.2968 77.1284 52.4187 77.3265 48.9991Z" fill="white"/>
<path d="M42.0844 48.9607C43.9401 48.9367 45.7957 48.9427 47.6512 48.9787C47.6917 52.3933 48.2073 55.15 49.0392 58.4447C47.7171 58.0019 46.4342 57.4015 45.171 56.8145C42.4916 55.4646 40.2423 53.8693 38.1966 51.6551C37.6877 51.1044 36.5407 49.92 36.5728 49.1299C36.9732 48.7873 41.2703 48.9605 42.0844 48.9607Z" fill="white"/>
<path d="M34.8701 84.2235L35.2074 84.2129C35.356 84.2079 35.5221 84.1898 35.6691 84.2197C35.8755 84.2615 36.0044 84.4105 36.1043 84.5842L36.055 84.7344C35.878 84.8426 35.7182 84.8871 35.5137 84.9068C34.4849 85.0058 33.3724 84.9228 32.3342 84.9237L25.9083 84.9275C25.509 84.9469 25.0926 85.0269 24.7571 84.7629C24.6152 84.6513 24.6596 84.7007 24.6334 84.5057C24.8206 84.322 25.0233 84.2826 25.2767 84.2541C26.2331 84.1467 27.2851 84.2461 28.2517 84.2446L34.8701 84.2235Z" fill="white"/>
<path d="M24.7898 80.5665C26.0164 80.5464 35.6726 80.4291 36.0758 80.7495C36.1061 80.9813 36.0917 81.0117 35.9936 81.2261C33.8042 81.3004 31.5943 81.2456 29.4026 81.2453C28.0239 81.2449 26.5744 81.3403 25.2062 81.2242C24.9862 81.2055 24.8298 81.1993 24.6588 81.0449C24.64 80.819 24.6839 80.7713 24.7898 80.5665Z" fill="white"/>
<path d="M31.0603 87.9363C32.3503 87.9216 34.7878 87.7391 35.9338 87.966C36.0725 88.1043 36.0732 88.1111 36.1008 88.3055L35.9546 88.4613C35.1671 88.7665 31.0051 88.5909 29.7724 88.6002C28.6905 88.6016 25.2874 88.8853 24.5529 88.287L24.7545 88.0248C26.0574 87.7754 29.5539 87.9539 31.0603 87.9363Z" fill="white"/>
</g>
<defs>
<clipPath id="clip0_201_2529">
<rect width="177" height="177" rx="8" fill="white"/>
</clipPath>
</defs>
</svg>
