<svg width="304" height="304" viewBox="0 0 304 304" fill="none" xmlns="http://www.w3.org/2000/svg">
<path d="M147.098 107.549C147.084 106.071 147.078 104.592 147.08 103.113C147.113 97.1657 149.154 91.7546 153.448 87.5527C156.328 84.7354 160.293 82.6176 164.256 81.8604C167.512 81.2381 171.075 81.5181 174.388 81.5208L189.294 81.5027L224.29 81.5089C231.295 81.5065 238.313 81.4118 245.317 81.5006C252.367 81.59 256.678 84.527 261.426 89.4336C263.198 92.7302 264.764 95.291 265.317 99.1092C265.711 101.832 265.541 104.677 265.54 107.424L265.55 120.459L265.576 141.669C265.58 145.476 265.724 149.343 265.535 153.142C265.487 154.101 265.323 155.013 265.043 155.93C264.042 159.198 261.902 162.094 258.857 163.711C256.996 164.7 255.119 165.035 253.051 165.256C253.777 175.286 254.622 185.307 255.584 195.317C255.709 197.032 255.771 198.752 255.771 200.471C252.279 197.282 249.063 193.606 245.785 190.19C242.342 186.604 238.75 183.145 235.358 179.514L228.911 172.743C227.736 171.51 226.496 169.907 225.094 168.948L222.074 165.676C211.448 165.775 200.821 165.818 190.195 165.805C190.187 169.668 190.05 173.579 190.204 177.436C190.17 182.259 190.164 187.082 190.187 191.905C190.192 195.668 190.51 199.669 189.635 203.349C188.801 206.869 187.068 210.112 184.607 212.763C181.684 215.927 177.983 218.121 173.757 219.029C170.851 219.653 167.815 219.509 164.859 219.508L154.738 219.512L119.716 219.508C112.654 219.475 105.495 219.221 98.4394 219.533C94.7738 223.075 90.96 227.568 87.5106 231.397C82.1173 237.392 76.6856 243.353 71.2157 249.279C69.2849 251.385 67.4863 253.736 65.4649 255.734C65.136 256.059 64.8299 256.367 64.3518 256.371C64.1621 256.062 64.1048 255.978 64.1054 255.607C64.1072 254.068 64.345 252.474 64.4549 250.934L65.1481 240.942C65.6472 233.644 65.8762 226.282 66.6775 219.013C62.9068 218.902 59.2899 217.439 56.6228 214.761C54.4696 212.599 52.8696 209.714 52.3004 206.704C51.8812 204.488 52.0685 202.003 52.0706 199.751L52.0789 189.143L52.0261 150.355L52.0602 136.261C52.0831 127.316 51.5979 120.746 58.5075 113.93C61.4582 111.019 65.3171 108.842 69.3927 108.028C73.0625 107.296 77.0393 107.57 80.7687 107.557C86.7537 107.524 92.7388 107.524 98.7238 107.554L147.098 107.549ZM257.27 87.2558C254.518 84.9999 251.581 83.5166 248.032 83.0068C244.238 82.4617 239.781 82.8138 235.9 82.8186L213.939 82.8022C203.151 82.7108 192.362 82.7129 181.573 82.8082L171.952 82.7904C169.906 82.7838 167.818 82.6891 165.781 82.9005C160.671 83.4308 155.764 86.529 152.589 90.4826C148.359 95.7503 148.28 101.184 148.428 107.593L161.544 107.561C170.614 107.546 177.033 107.151 183.989 114.11C190.963 121.087 190.318 127.485 190.28 136.531C189.897 145.824 190.358 155.193 190.239 164.495L222.551 164.182C224.108 165.89 225.81 167.517 227.304 169.275L254.433 197.363C254.365 196.272 254.377 195.087 254.085 194.034C253.945 191.265 253.61 188.472 253.374 185.708C252.754 178.427 252.051 171.126 251.607 163.832C252.334 163.821 253.063 163.814 253.788 163.77C256.709 163.571 259.425 162.197 261.316 159.961C262.603 158.462 263.664 156.456 263.979 154.493C264.426 151.703 264.22 148.614 264.224 145.787L264.23 130.949L264.215 111.301C264.211 107.607 264.39 103.802 264.078 100.126C263.647 95.0416 261.139 90.5212 257.27 87.2558ZM166.545 108.742L100.751 108.79L82.0671 108.788C78.2207 108.79 74.0791 108.492 70.2867 109.168C66.1737 109.894 62.3872 111.879 59.4514 114.849C56.7098 117.607 54.5931 120.998 53.8063 124.838C53.0439 128.559 53.3013 132.585 53.2986 136.372L53.2915 150.636L53.3247 203.47C53.3621 207.556 54.6181 211.174 57.6043 214.067C60.5339 216.904 63.943 217.615 67.8901 217.696C67.6356 223.847 67.0896 229.992 66.6763 236.134C66.2755 242.092 66.0101 248.078 65.4587 254.023C66.6457 252.482 67.961 251.025 69.2947 249.61C76.9909 241.234 84.5171 232.703 92.2994 224.408C93.7815 222.828 96.2058 219.642 97.8462 218.539C98.3058 218.23 99.024 218.239 99.5614 218.219C105.999 217.975 112.517 218.193 118.964 218.19L153.328 218.117L164.272 218.162C167.355 218.182 170.619 218.403 173.647 217.747C177.477 216.897 180.95 214.885 183.591 211.985C186.134 209.221 187.856 205.804 188.566 202.115C189.224 198.56 188.945 194.67 188.95 191.06L188.951 173.614L188.988 143.923C188.999 138.637 189.194 133.276 188.982 127.997C188.76 122.476 186.171 117.745 182.131 114.058C177.646 109.966 172.489 108.666 166.545 108.742Z" fill="black"/>
<path d="M148.428 107.593C148.28 101.184 148.359 95.7503 152.589 90.4826C155.764 86.529 160.671 83.4307 165.781 82.9005C167.818 82.6891 169.906 82.7838 171.952 82.7903L181.573 82.8081C192.362 82.7128 203.151 82.7107 213.939 82.8022L235.9 82.8185C239.781 82.8138 244.238 82.4616 248.032 83.0068C251.581 83.5165 254.518 84.9999 257.27 87.2558C257.193 87.2519 257.115 87.2493 257.038 87.2436C255.503 87.1278 253.028 85.6091 250.884 85.3933C248.19 85.1222 245.433 85.2229 242.729 85.2232L230.446 85.2294L221.543 85.233C220.059 85.2336 218.457 85.0985 216.99 85.2784C216.12 85.3764 215.297 85.7208 214.616 86.2707C213.618 87.0821 213.082 88.015 212.992 89.2994C212.902 90.5844 213.251 91.8475 214.134 92.8079C215.404 94.1883 217.206 94.4481 218.981 94.4706C224.712 94.5434 230.474 94.4653 236.208 94.4516C239.502 94.4436 243.182 94.0636 246.388 94.804C249.111 95.4326 251.75 96.8465 253.713 98.8432C256.213 101.387 257.909 104.984 257.836 108.595C257.77 111.86 256.462 114.284 254.123 116.499C251.709 118.787 248.745 120.463 245.948 122.231C244.026 123.442 242.145 124.718 240.308 126.054C238.785 126.03 232.718 125.563 231.88 126.655C231.654 126.949 231.62 127.286 231.714 127.636C231.815 128.016 232.106 128.284 232.46 128.427C233.434 128.819 234.989 128.509 236.059 128.535C231.825 131.711 227.233 134.542 222.789 137.415C218.89 139.935 215.046 142.556 211.171 145.115L197.509 154.145C195.104 155.73 192.831 157.47 190.267 158.803C190.31 154.022 190.327 149.241 190.316 144.46C190.316 141.829 190.414 139.157 190.28 136.531C190.318 127.485 190.963 121.087 183.989 114.11C177.033 107.151 170.614 107.546 161.544 107.561L148.428 107.593ZM197.234 97.6532L195.886 118.765C195.656 122.343 195.314 125.955 195.219 129.535C198.678 129.686 202.156 129.48 205.608 129.671C202.876 135.904 200.231 142.175 197.675 148.482C200.848 144.816 204.152 141.283 207.376 137.663C210.613 134.094 214.05 130.675 217.148 126.984C214.626 126.651 212.072 126.67 209.562 126.268C210.23 123.37 211.637 120.458 212.721 117.683L217.598 105.021C218.523 102.606 219.548 100.187 220.345 97.7274C212.642 97.6386 204.938 97.614 197.234 97.6532ZM232.442 109.43C232.03 109.885 231.731 110.235 231.796 110.89C231.827 111.202 232.059 111.541 232.341 111.688C233.193 112.133 251.393 112.024 253.325 111.823C253.646 111.556 253.89 111.425 253.967 110.972C254.032 110.591 253.935 110.19 253.673 109.902C253.378 109.579 252.943 109.476 252.526 109.433C249.624 109.135 246.453 109.385 243.521 109.395C239.849 109.407 236.101 109.237 232.442 109.43Z" fill="#FEFEFE"/>
<path d="M257.27 87.2558C261.139 90.5211 263.647 95.0415 264.078 100.125C264.39 103.802 264.211 107.607 264.215 111.301L264.23 130.949L264.224 145.787C264.22 148.614 264.426 151.703 263.979 154.493C263.664 156.456 262.603 158.462 261.316 159.961C259.425 162.197 256.709 163.571 253.788 163.77C253.063 163.814 252.334 163.821 251.607 163.832C252.051 171.126 252.754 178.427 253.374 185.708C253.61 188.472 253.945 191.265 254.085 194.034C251.122 190.976 247.933 188.109 244.825 185.2L235.24 176.056C233.978 174.848 232.696 173.648 231.486 172.387C230.598 171.46 229.693 170.178 228.677 169.435C228.306 169.164 227.739 169.25 227.304 169.275C225.81 167.517 224.108 165.89 222.551 164.182L190.239 164.495C190.358 155.193 189.897 145.824 190.28 136.531C190.414 139.157 190.316 141.829 190.316 144.46C190.327 149.241 190.31 154.022 190.267 158.803C192.831 157.47 195.104 155.73 197.509 154.145L211.171 145.115C215.046 142.556 218.89 139.935 222.789 137.415C227.233 134.542 231.825 131.711 236.059 128.535C238.977 128.383 252.159 129.032 253.551 128.148C253.762 128.015 253.775 127.739 253.774 127.504C253.77 127.142 253.608 126.8 253.331 126.567C252.405 125.792 242.198 126.072 240.308 126.054C242.145 124.718 244.026 123.442 245.948 122.231C248.745 120.463 251.709 118.787 254.123 116.499C256.462 114.283 257.77 111.86 257.836 108.595C257.909 104.984 256.213 101.387 253.713 98.8431C251.75 96.8464 249.111 95.4326 246.388 94.804C243.182 94.0635 239.502 94.4436 236.208 94.4516C230.474 94.4652 224.712 94.5433 218.981 94.4706C217.206 94.448 215.404 94.1882 214.134 92.8079C213.251 91.8474 212.902 90.5844 212.992 89.2994C213.082 88.0149 213.618 87.0821 214.616 86.2706C215.297 85.7208 216.12 85.3763 216.99 85.2784C218.457 85.0984 220.059 85.2335 221.543 85.2329L230.446 85.2294L242.729 85.2231C245.433 85.2228 248.19 85.1222 250.884 85.3933C253.028 85.6091 255.503 87.1278 257.038 87.2436C257.115 87.2492 257.193 87.2519 257.27 87.2558ZM231.745 142.368C231.488 142.784 231.268 143.21 231.446 143.717C231.547 144.005 231.865 144.319 232.155 144.416C233.196 144.765 251.612 144.615 253.226 144.429C253.502 144.102 253.773 143.802 253.782 143.342C253.791 142.928 253.622 142.814 253.355 142.545C251.977 142.088 234.408 142.194 231.745 142.368Z" fill="#4075D7"/>
<path d="M261.426 89.4336C265.1 91.4163 267.886 96.1648 269.034 100.042C269.511 101.651 269.749 103.279 269.836 104.953C269.994 107.992 269.905 111.078 269.91 114.123L269.863 134.214L270.002 150.496C270 152.978 270.125 155.544 269.892 158.011C269.743 159.576 269.281 161.095 268.534 162.478C267.208 164.907 264.818 166.834 262.149 167.59C260.959 167.928 259.822 167.949 258.593 167.985C259.224 175.343 259.954 182.692 260.783 190.031C261.172 193.627 261.47 197.238 261.932 200.826C259.964 198.85 257.793 197.097 255.803 195.148C255.6 195.267 255.656 195.194 255.584 195.317C254.622 185.307 253.777 175.286 253.051 165.256C255.119 165.035 256.996 164.7 258.857 163.711C261.902 162.094 264.042 159.198 265.043 155.93C265.323 155.013 265.487 154.101 265.535 153.142C265.724 149.343 265.58 145.476 265.577 141.669L265.55 120.459L265.54 107.424C265.541 104.676 265.711 101.832 265.317 99.1092C264.764 95.291 263.198 92.7301 261.426 89.4336Z" fill="#4075D7"/>
<path d="M195.219 129.535C195.314 125.955 195.656 122.343 195.886 118.765L197.234 97.6532C204.938 97.614 212.642 97.6386 220.345 97.7274C219.548 100.187 218.523 102.606 217.598 105.021L212.721 117.683C211.637 120.458 210.23 123.37 209.562 126.268C212.072 126.67 214.626 126.651 217.148 126.984C214.05 130.675 210.613 134.094 207.376 137.663C204.152 141.283 200.848 144.816 197.675 148.482C200.231 142.175 202.876 135.904 205.608 129.671C202.156 129.48 198.678 129.686 195.219 129.535Z" fill="black"/>
<path d="M67.8901 217.696C63.943 217.615 60.5339 216.904 57.6044 214.067C54.6181 211.174 53.3622 207.556 53.3248 203.47L53.2915 150.636L53.2986 136.372C53.3013 132.585 53.0439 128.559 53.8063 124.838C54.5931 120.998 56.7098 117.607 59.4514 114.849C62.3872 111.879 66.1737 109.894 70.2867 109.168C74.0791 108.492 78.2207 108.79 82.0671 108.788L100.751 108.79L166.545 108.742C172.489 108.666 177.646 109.966 182.131 114.058C186.171 117.745 188.76 122.476 188.982 127.997C189.194 133.276 189 138.637 188.988 143.923L188.951 173.614L188.95 191.06C188.945 194.67 189.224 198.56 188.566 202.115C187.856 205.804 186.134 209.221 183.591 211.985C180.95 214.885 177.477 216.897 173.647 217.747C170.62 218.403 167.355 218.182 164.272 218.162L153.328 218.117L118.964 218.19C112.517 218.193 105.999 217.975 99.5614 218.219C99.024 218.239 98.3058 218.23 97.8462 218.539C96.2058 219.642 93.7816 222.828 92.2994 224.408C84.5172 232.703 76.9909 241.234 69.2948 249.61C67.9611 251.025 66.6458 252.482 65.4587 254.023C66.0101 248.078 66.2755 242.092 66.6764 236.134C67.0896 229.992 67.6357 223.847 67.8901 217.696ZM123.947 127.848C121.453 128.395 119.162 129.723 117.767 131.92C117.515 132.317 117.292 132.75 117.11 133.182C114.653 132.142 112.46 131.602 109.861 132.646C107.955 133.395 106.437 134.889 105.656 136.782C105.19 137.937 105.09 139.149 105.01 140.377C101.153 140.943 97.9347 142.045 95.4997 145.284C93.5577 147.868 92.7341 151.428 93.2097 154.615C93.7079 157.957 95.435 160.982 98.1722 162.982C100.474 164.665 103.223 165.417 106.053 164.95C107.378 164.732 108.606 164.275 109.786 163.637C111.502 166.414 113.354 168.496 116.65 169.268C119.241 169.875 122.056 169.395 124.345 168.057C125.341 167.407 126.086 166.745 126.82 165.791C128.614 167.755 130.766 168.962 133.464 169.109C135.701 169.231 137.979 168.451 139.609 166.902C140.806 165.764 141.449 164.412 142.059 162.903C144.687 163.63 147.406 163.763 149.861 162.379C152.176 161.053 153.88 158.874 154.608 156.307C155.341 153.625 154.959 150.759 153.549 148.362C152.243 146.145 150.161 144.505 147.647 143.888C146.801 143.681 145.908 143.638 145.041 143.589C145.176 141.154 144.869 138.982 143.129 137.109C141.773 135.649 139.918 134.854 137.932 134.818C136.986 134.8 136.047 134.943 135.116 135.098C133.946 132.134 132.423 129.818 129.39 128.523C127.635 127.775 125.828 127.663 123.947 127.848ZM107.593 168.891C106.051 169.133 104.759 170.186 104.211 171.647C103.663 173.108 103.944 174.751 104.946 175.947C105.948 177.143 107.517 177.706 109.051 177.422C111.379 176.991 112.928 174.77 112.529 172.437C112.13 170.105 109.931 168.525 107.593 168.891ZM101.071 177.064C100.055 177.226 99.2048 177.923 98.8468 178.888C98.4884 179.852 98.6775 180.935 99.3411 181.721C100.005 182.508 101.041 182.876 102.052 182.685C103.585 182.395 104.6 180.927 104.332 179.391C104.064 177.854 102.611 176.817 101.071 177.064ZM92.441 186.479C92.2932 186.677 92.2088 186.837 92.1788 187.086C91.9787 188.744 92.1272 190.577 92.1269 192.252C92.1266 194.629 92.0167 197.062 92.1569 199.432C93.351 199.472 99.9827 199.745 100.651 199.249L100.811 199.001L100.683 198.763C98.5843 198.238 95.3077 198.681 93.0521 198.65C93.0417 197.687 92.7845 193.996 93.2293 193.354L93.3822 193.317C94.4169 193.32 99.6265 193.548 100.154 193.14L100.216 192.818C99.166 192.185 94.4802 192.487 93.0316 192.475C93.0244 190.783 92.9939 189.086 93.0238 187.394C94.5491 187.394 99.6006 187.76 100.792 187.054L100.782 186.783C100.241 186.362 93.7516 186.628 92.441 186.479ZM154.584 186.492C152.81 186.968 151.502 187.716 150.577 189.381C149.55 191.231 149.421 193.633 150.074 195.63C150.573 197.157 151.564 198.401 153.032 199.09C154.685 199.866 156.725 199.891 158.429 199.261C159.631 198.817 160.742 198.004 161.256 196.798C161.36 196.552 161.402 196.321 161.44 196.058L161.223 195.822C160.966 195.827 160.918 195.766 160.731 195.963C160.413 196.298 160.246 196.814 160.016 197.217C159.32 198.435 157.658 198.77 156.38 198.839L156.119 198.85C154.565 198.784 153.141 198.548 152.021 197.349C150.854 196.1 150.476 194.17 150.564 192.505C150.647 190.919 151.261 189.369 152.494 188.329C153.68 187.329 155.311 186.963 156.832 187.164C158.006 187.319 159.069 187.901 159.788 188.85C160.173 189.357 160.37 190.052 160.92 190.367L161.261 190.252C161.379 189.891 161.349 189.717 161.169 189.373C160.452 188.002 159.346 187.05 157.834 186.658C156.763 186.38 155.676 186.406 154.584 186.492ZM65.285 186.606C65.1093 188.227 64.9985 197.961 65.2693 199.363C65.5517 199.599 65.5229 199.541 65.8643 199.539C66.3848 198.708 66.0891 194.868 66.1081 193.634C67.8316 193.572 71.9073 193.924 73.2793 193.314L73.3948 193.088C73.1727 192.909 73.0171 192.784 72.7525 192.668C70.5495 192.646 68.3465 192.641 66.1434 192.653L66.1437 187.581L66.3079 187.567C68.6431 187.383 71.7051 188 73.8956 187.239L73.9942 187.041C73.6005 186.613 72.7522 186.63 72.205 186.605C69.9132 186.501 67.581 186.594 65.285 186.606ZM78.5493 186.585C78.5589 190.849 78.4891 195.126 78.6019 199.387C80.0012 199.401 86.2873 199.664 87.2119 199.311L87.284 199.099C87.0156 198.81 86.752 198.673 86.3589 198.642C84.1012 198.463 81.693 198.677 79.419 198.645C79.4095 197.644 79.1396 194.148 79.566 193.437L79.7016 193.391C81.3988 193.403 84.8589 193.735 86.279 193.119L86.377 192.989C86.2903 192.816 86.2948 192.717 86.0964 192.647C85.1962 192.328 80.5971 192.562 79.397 192.555C79.3477 190.856 79.3172 189.17 79.3635 187.471C81.1033 187.429 85.5273 187.736 86.8901 187.066L86.9773 186.864C86.002 186.271 80.0036 186.588 78.5493 186.585ZM106.057 186.584C105.759 190.784 105.921 195.218 105.981 199.432C108.899 199.492 112.687 200.108 114.977 197.911L115.111 197.779C116.403 196.098 116.986 194.307 116.712 192.168C116.491 190.441 115.738 188.829 114.327 187.762C112.084 186.064 108.703 186.542 106.057 186.584ZM121.742 186.614C121.244 188.034 121.573 197.249 121.581 199.466C124.005 199.471 128.947 200.131 130.708 198.33C130.979 198.053 131.21 197.707 131.376 197.359C131.655 196.257 131.746 195.357 131.123 194.354C130.702 193.677 130.116 193.211 129.48 192.749C130.248 191.291 132.076 191.327 131.322 188.983C131.042 188.11 130.482 187.515 129.655 187.129C127.483 186.114 124.128 186.701 121.742 186.614ZM140.392 186.497C139.501 188.04 138.862 189.776 138.157 191.411L134.729 199.355C134.957 199.62 134.961 199.613 135.308 199.675C136.243 199.074 137.04 196.32 137.506 195.242L141.105 195.229L144.001 195.247C144.621 196.388 145.338 198.932 146.249 199.655L146.423 199.686C146.64 199.435 146.692 199.233 146.649 198.902C146.57 198.29 141.36 187.168 140.785 186.624L140.392 186.497ZM166.395 186.53C166.289 186.651 166.158 186.753 166.079 186.893C165.814 187.359 165.924 196.769 166.005 197.949C166.046 198.546 166.137 199.105 166.313 199.678L166.442 199.718C167.272 198.235 166.887 195.973 166.913 194.314L169.158 192.487C170.051 193.606 174.965 199.305 175.98 199.397C176.216 199.418 176.155 199.413 176.332 199.267C176.166 198.311 174.583 197.05 173.879 196.351C172.509 194.913 171.155 193.461 169.815 191.995C171.309 190.699 174.95 188.467 175.801 186.926L175.757 186.669C174.804 186.58 168.357 192.077 166.92 193.153C166.915 192.278 167.069 186.997 166.631 186.659C166.56 186.604 166.474 186.573 166.395 186.53Z" fill="#FEFEFE"/>
<path d="M253.325 111.823C251.393 112.024 233.193 112.133 232.341 111.688C232.059 111.541 231.827 111.202 231.796 110.89C231.731 110.235 232.031 109.885 232.442 109.43C236.101 109.237 239.849 109.407 243.521 109.395C246.453 109.385 249.624 109.135 252.526 109.433C252.943 109.476 253.378 109.579 253.673 109.902C253.935 110.19 254.032 110.591 253.967 110.972C253.89 111.425 253.647 111.556 253.325 111.823Z" fill="black"/>
<path d="M236.059 128.535C234.989 128.509 233.434 128.82 232.459 128.427C232.106 128.284 231.815 128.016 231.714 127.636C231.62 127.286 231.654 126.949 231.88 126.655C232.718 125.563 238.784 126.03 240.308 126.054C242.198 126.072 252.405 125.792 253.331 126.567C253.608 126.8 253.77 127.142 253.774 127.504C253.775 127.739 253.762 128.015 253.551 128.149C252.159 129.032 238.977 128.383 236.059 128.535Z" fill="black"/>
<path d="M117.11 133.182C117.292 132.75 117.515 132.317 117.767 131.92C119.162 129.723 121.453 128.395 123.947 127.848C125.828 127.663 127.635 127.775 129.39 128.523C132.423 129.818 133.946 132.134 135.116 135.098C136.047 134.943 136.986 134.8 137.932 134.818C139.918 134.854 141.773 135.649 143.129 137.109C144.869 138.982 145.176 141.154 145.041 143.589C145.908 143.637 146.801 143.681 147.647 143.888C150.161 144.505 152.243 146.145 153.549 148.362C154.959 150.759 155.341 153.625 154.608 156.307C153.88 158.874 152.176 161.053 149.861 162.379C147.406 163.763 144.686 163.63 142.059 162.903C141.449 164.412 140.806 165.764 139.609 166.902C137.979 168.451 135.701 169.231 133.464 169.109C130.766 168.962 128.614 167.755 126.82 165.791C126.086 166.745 125.341 167.407 124.345 168.057C122.056 169.395 119.241 169.875 116.65 169.268C113.354 168.496 111.501 166.414 109.786 163.637C108.606 164.275 107.378 164.732 106.053 164.95C103.223 165.417 100.474 164.665 98.1722 162.982C95.435 160.982 93.7079 157.957 93.2097 154.615C92.734 151.428 93.5576 147.868 95.4997 145.284C97.9346 142.045 101.153 140.943 105.01 140.377C105.089 139.149 105.19 137.937 105.656 136.782C106.437 134.889 107.955 133.395 109.861 132.646C112.46 131.602 114.653 132.142 117.11 133.182ZM124.79 129.047C122.559 129.407 120.522 130.216 119.125 132.105C118.544 132.893 118.24 133.628 117.992 134.565C117.93 134.797 117.862 135.027 117.798 135.258C115.798 133.937 114.051 132.985 111.563 133.509C109.879 133.863 108.358 134.74 107.404 136.2C106.525 137.544 106.351 138.948 106.338 140.507C106.337 140.713 106.374 141.227 106.308 141.402C106.222 141.634 106.092 141.62 105.891 141.667C105.048 141.866 104.134 141.768 103.274 141.909C100.331 142.39 97.6086 144.291 96.0122 146.788C94.4101 149.294 93.9629 152.536 94.6123 155.421C95.245 158.32 97.0225 160.84 99.5409 162.408C101.726 163.778 104.379 164.185 106.873 163.533C107.758 163.308 108.531 162.937 109.343 162.532C106.089 162.764 103.642 162.767 100.835 160.883C98.6915 158.97 97.3272 156.664 97.1835 153.744C97.0543 151.119 97.8773 148.444 99.6609 146.485C101.626 144.327 104.132 143.509 106.973 143.251C106.997 140.825 107.211 138.864 109.049 137.072C110.279 135.891 111.932 135.256 113.636 135.307C115.352 135.357 116.841 136.17 118.304 136.981C119.691 134.481 121.372 132.464 124.204 131.603C126.033 131.047 128.055 131.131 129.756 132.041C132.079 133.285 132.989 135.747 133.578 136.074L133.791 135.911C133.927 134.859 133.074 133.327 132.45 132.491C131.017 130.571 128.862 129.392 126.505 129.088C125.929 129.013 125.371 129.019 124.79 129.047ZM136.198 136.15C135.4 136.442 134.303 136.685 133.889 137.499C133.671 137.928 133.863 138.561 133.943 139.014C135.322 137.975 136.651 137.397 138.429 137.657C139.981 137.883 141.533 138.77 142.43 140.073C142.676 140.431 142.896 140.84 143.064 141.241C143.326 142.189 143.353 142.994 143.463 143.963L143.688 143.94C144.118 143.188 144.039 141.472 143.787 140.625C143.297 138.984 142.234 137.579 140.7 136.791C139.279 136.06 137.753 136.015 136.198 136.15ZM144.559 144.747C144.37 145.105 144.133 145.425 144.206 145.844C144.885 146.278 145.925 146.471 146.703 146.73C149.181 147.553 150.875 149.556 151.424 152.105C151.869 154.137 151.476 156.263 150.335 158.003C149.292 159.606 147.685 160.823 145.792 161.2C144.833 161.392 143.553 161.121 142.69 161.525L142.738 161.715C143.315 161.964 143.881 162.103 144.491 162.243C147.073 162.323 149.158 161.769 151.071 159.958C152.784 158.336 153.659 156.099 153.717 153.763C153.775 151.41 152.895 149.203 151.288 147.493C149.457 145.544 147.131 144.932 144.559 144.747Z" fill="black"/>
<path d="M117.798 135.258C117.862 135.027 117.93 134.797 117.992 134.565C118.24 133.628 118.544 132.893 119.125 132.105C120.522 130.216 122.56 129.407 124.79 129.047C125.371 129.019 125.929 129.013 126.505 129.088C128.862 129.392 131.017 130.571 132.45 132.491C133.074 133.327 133.927 134.859 133.791 135.911L133.578 136.074C132.989 135.747 132.079 133.285 129.756 132.042C128.055 131.131 126.033 131.047 124.204 131.603C121.372 132.464 119.691 134.481 118.304 136.981C116.841 136.17 115.352 135.357 113.636 135.307C111.932 135.256 110.279 135.891 109.049 137.072C107.211 138.864 106.997 140.825 106.973 143.251C104.132 143.509 101.626 144.327 99.6609 146.485C97.8774 148.444 97.0543 151.119 97.1835 153.744C97.3272 156.664 98.6915 158.97 100.835 160.883C103.642 162.767 106.089 162.764 109.343 162.532C108.531 162.937 107.758 163.308 106.873 163.533C104.379 164.185 101.726 163.778 99.5409 162.408C97.0226 160.84 95.245 158.32 94.6123 155.421C93.9629 152.536 94.4101 149.294 96.0122 146.788C97.6087 144.291 100.331 142.39 103.274 141.909C104.134 141.768 105.048 141.866 105.891 141.667C106.092 141.62 106.222 141.634 106.308 141.402C106.374 141.227 106.337 140.713 106.338 140.507C106.351 138.948 106.525 137.544 107.404 136.2C108.358 134.74 109.879 133.863 111.563 133.509C114.051 132.985 115.798 133.937 117.798 135.258Z" fill="#FEFEFE"/>
<path d="M133.943 139.014C133.863 138.561 133.671 137.928 133.889 137.499C134.303 136.685 135.4 136.442 136.198 136.15C137.753 136.015 139.279 136.06 140.701 136.791C142.234 137.579 143.297 138.984 143.787 140.625C144.039 141.472 144.118 143.188 143.688 143.94L143.463 143.964C143.353 142.994 143.326 142.189 143.064 141.241C142.896 140.84 142.676 140.432 142.43 140.073C141.533 138.77 139.981 137.883 138.429 137.657C136.651 137.397 135.322 137.976 133.943 139.014Z" fill="#FEFEFE"/>
<path d="M253.226 144.429C251.612 144.615 233.196 144.765 232.155 144.416C231.865 144.319 231.547 144.005 231.446 143.717C231.268 143.21 231.488 142.784 231.745 142.369C234.408 142.194 251.977 142.088 253.355 142.545C253.622 142.814 253.791 142.928 253.782 143.342C253.773 143.802 253.502 144.102 253.226 144.429Z" fill="black"/>
<path d="M144.491 162.243C143.881 162.103 143.315 161.964 142.738 161.715L142.69 161.525C143.553 161.121 144.833 161.392 145.792 161.2C147.685 160.823 149.292 159.606 150.335 158.003C151.476 156.263 151.869 154.137 151.424 152.105C150.875 149.556 149.181 147.553 146.703 146.73C145.925 146.471 144.885 146.278 144.206 145.844C144.133 145.425 144.37 145.104 144.559 144.747C147.131 144.932 149.457 145.544 151.288 147.493C152.895 149.203 153.775 151.41 153.717 153.763C153.659 156.099 152.784 158.336 151.071 159.958C149.158 161.769 147.073 162.323 144.491 162.243Z" fill="#FEFEFE"/>
<path d="M225.094 168.948C213.492 168.806 201.89 168.777 190.288 168.862C190.28 171.711 190.361 174.591 190.204 177.436C190.05 173.579 190.187 169.668 190.195 165.805C200.821 165.818 211.448 165.775 222.074 165.676L225.094 168.948Z" fill="#4075D7"/>
<path d="M109.051 177.422C107.517 177.706 105.948 177.143 104.946 175.947C103.944 174.751 103.663 173.108 104.211 171.647C104.759 170.186 106.051 169.133 107.593 168.891C109.931 168.525 112.13 170.105 112.529 172.437C112.928 174.77 111.379 176.991 109.051 177.422Z" fill="black"/>
<path d="M227.304 169.275C227.739 169.25 228.306 169.164 228.677 169.435C229.693 170.178 230.598 171.46 231.486 172.387C232.696 173.648 233.978 174.848 235.24 176.056L244.825 185.2C247.933 188.109 251.122 190.976 254.085 194.034C254.377 195.087 254.365 196.272 254.433 197.363L227.304 169.275Z" fill="#FEFEFE"/>
<path d="M102.052 182.685C101.041 182.876 100.005 182.508 99.3411 181.721C98.6776 180.935 98.4884 179.852 98.8468 178.888C99.2049 177.923 100.055 177.226 101.071 177.064C102.611 176.817 104.064 177.854 104.332 179.391C104.6 180.927 103.585 182.395 102.052 182.685Z" fill="black"/>
<path d="M92.1569 199.432C92.0167 197.062 92.1266 194.629 92.1269 192.252C92.1272 190.577 91.9787 188.744 92.1788 187.086C92.2088 186.837 92.2931 186.676 92.441 186.479C93.7515 186.628 100.241 186.362 100.782 186.783L100.792 187.054C99.6006 187.76 94.549 187.394 93.0238 187.394C92.9938 189.086 93.0244 190.783 93.0315 192.475C94.4801 192.487 99.1659 192.185 100.216 192.818L100.154 193.14C99.6264 193.548 94.4169 193.32 93.3822 193.317L93.2293 193.354C92.7845 193.996 93.0416 197.687 93.052 198.65C95.3076 198.681 98.5843 198.238 100.683 198.763L100.81 199.001L100.651 199.249C99.9827 199.745 93.351 199.472 92.1569 199.432Z" fill="black"/>
<path d="M156.119 198.85L156.38 198.839C157.658 198.77 159.32 198.436 160.016 197.217C160.246 196.814 160.413 196.298 160.731 195.963C160.918 195.766 160.966 195.827 161.223 195.822L161.44 196.058C161.402 196.321 161.36 196.552 161.256 196.798C160.742 198.004 159.631 198.817 158.429 199.261C156.725 199.891 154.685 199.866 153.032 199.09C151.564 198.401 150.573 197.157 150.074 195.63C149.421 193.633 149.55 191.231 150.577 189.381C151.502 187.716 152.81 186.968 154.584 186.492C155.676 186.406 156.763 186.38 157.834 186.658C159.346 187.05 160.452 188.002 161.169 189.373C161.349 189.717 161.379 189.891 161.261 190.252L160.92 190.367C160.37 190.052 160.173 189.357 159.788 188.85C159.069 187.901 158.006 187.319 156.832 187.164C155.311 186.963 153.68 187.329 152.494 188.329C151.261 189.369 150.647 190.919 150.564 192.505C150.476 194.17 150.854 196.1 152.021 197.349C153.141 198.548 154.565 198.784 156.119 198.85Z" fill="black"/>
<path d="M66.1081 193.634C66.089 194.868 66.3848 198.708 65.8643 199.539C65.5228 199.541 65.5516 199.599 65.2693 199.363C64.9985 197.961 65.1093 188.227 65.285 186.606C67.581 186.594 69.9132 186.501 72.205 186.605C72.7522 186.63 73.6005 186.613 73.9942 187.041L73.8956 187.239C71.705 188 68.643 187.383 66.3079 187.567L66.1437 187.582L66.1434 192.653C68.3464 192.641 70.5495 192.646 72.7525 192.668C73.0171 192.784 73.1726 192.909 73.3947 193.088L73.2792 193.314C71.9072 193.924 67.8316 193.572 66.1081 193.634Z" fill="black"/>
<path d="M78.6019 199.387C78.4891 195.126 78.5588 190.849 78.5493 186.585C80.0036 186.588 86.002 186.271 86.9773 186.864L86.89 187.066C85.5272 187.736 81.1033 187.429 79.3635 187.471C79.3171 189.17 79.3477 190.856 79.397 192.555C80.5971 192.562 85.1962 192.327 86.0964 192.647C86.2947 192.717 86.2903 192.816 86.377 192.989L86.279 193.119C84.8589 193.735 81.3988 193.403 79.7016 193.391L79.566 193.437C79.1396 194.148 79.4095 197.644 79.419 198.645C81.693 198.677 84.1012 198.463 86.3589 198.642C86.752 198.673 87.0156 198.81 87.284 199.099L87.2119 199.311C86.2873 199.664 80.0012 199.401 78.6019 199.387Z" fill="black"/>
<path d="M105.981 199.432C105.921 195.218 105.759 190.784 106.057 186.584C108.703 186.542 112.084 186.064 114.327 187.762C115.738 188.829 116.491 190.441 116.712 192.168C116.986 194.307 116.403 196.098 115.111 197.779L114.977 197.911C112.687 200.108 108.899 199.492 105.981 199.432ZM107.674 187.43C107.284 187.453 107.193 187.365 106.917 187.663C106.677 191.217 106.815 195.049 106.935 198.615C109.109 198.657 112.13 199.079 113.952 197.677C115.254 196.258 115.915 194.661 115.794 192.702C115.697 191.144 115.083 189.54 113.87 188.514C112.223 187.123 109.697 187.277 107.674 187.43Z" fill="black"/>
<path d="M121.581 199.466C121.573 197.249 121.244 188.034 121.742 186.614C124.128 186.701 127.483 186.114 129.655 187.129C130.482 187.515 131.042 188.11 131.322 188.983C132.076 191.327 130.248 191.291 129.48 192.749C130.116 193.211 130.702 193.677 131.123 194.354C131.746 195.357 131.655 196.257 131.376 197.359C131.21 197.707 130.979 198.053 130.708 198.33C128.947 200.131 124.005 199.471 121.581 199.466ZM122.466 187.515C122.462 189.156 122.444 190.798 122.46 192.439C124.791 192.448 127.576 192.768 129.698 191.654C130.338 190.994 130.55 190.567 130.527 189.634C130.515 189.127 130.355 188.692 129.977 188.347C128.47 186.972 124.391 187.484 122.466 187.515ZM122.478 193.176L122.47 198.729C124.785 198.768 127.767 199.174 129.858 198.012C130.523 197.187 130.76 196.538 130.625 195.466C130.547 194.849 130.291 194.324 129.794 193.938C128.167 192.674 124.51 193.179 122.478 193.176Z" fill="black"/>
<path d="M137.506 195.242C137.04 196.32 136.243 199.074 135.308 199.675C134.961 199.613 134.957 199.62 134.729 199.355L138.157 191.411C138.862 189.776 139.501 188.04 140.392 186.497L140.785 186.624C141.36 187.168 146.57 198.29 146.649 198.902C146.692 199.233 146.64 199.435 146.423 199.686L146.249 199.655C145.338 198.932 144.621 196.388 144.001 195.247L141.105 195.229L137.506 195.242ZM140.606 188.039C139.616 190.158 138.739 192.344 137.867 194.514C138.897 194.524 139.927 194.542 140.956 194.54L143.7 194.52C142.749 192.353 141.794 190.084 140.606 188.039Z" fill="black"/>
<path d="M166.913 194.314C166.887 195.973 167.272 198.235 166.442 199.718L166.313 199.678C166.136 199.105 166.046 198.546 166.005 197.949C165.924 196.769 165.814 187.359 166.079 186.893C166.158 186.753 166.289 186.651 166.395 186.53C166.473 186.573 166.56 186.604 166.631 186.659C167.068 186.997 166.915 192.278 166.92 193.153C168.357 192.077 174.804 186.58 175.757 186.669L175.801 186.926C174.95 188.467 171.309 190.699 169.815 191.995C171.155 193.461 172.509 194.913 173.879 196.351C174.583 197.05 176.166 198.311 176.332 199.267C176.155 199.413 176.216 199.418 175.98 199.397C174.965 199.305 170.051 193.606 169.158 192.487L166.913 194.314Z" fill="black"/>
<path d="M106.935 198.615C106.815 195.049 106.677 191.216 106.917 187.663C107.193 187.365 107.284 187.453 107.673 187.43C109.697 187.277 112.223 187.123 113.87 188.514C115.083 189.54 115.697 191.144 115.794 192.702C115.915 194.661 115.254 196.258 113.952 197.677C112.13 199.079 109.109 198.657 106.935 198.615Z" fill="#FEFEFE"/>
<path d="M122.46 192.439C122.444 190.798 122.462 189.156 122.466 187.515C124.391 187.484 128.47 186.972 129.977 188.347C130.355 188.692 130.515 189.127 130.527 189.634C130.55 190.567 130.338 190.994 129.698 191.654C127.576 192.768 124.791 192.447 122.46 192.439Z" fill="#FEFEFE"/>
<path d="M137.867 194.514C138.739 192.344 139.616 190.158 140.606 188.039C141.794 190.084 142.749 192.353 143.7 194.52L140.956 194.54C139.927 194.542 138.897 194.524 137.867 194.514Z" fill="#FEFEFE"/>
<path d="M122.47 198.729L122.478 193.176C124.51 193.179 128.167 192.674 129.794 193.938C130.291 194.324 130.547 194.849 130.625 195.466C130.76 196.538 130.523 197.187 129.857 198.012C127.767 199.174 124.785 198.768 122.47 198.729Z" fill="#FEFEFE"/>
</svg>
