<svg width="231" height="226" viewBox="0 0 231 226" fill="none" xmlns="http://www.w3.org/2000/svg">
<path d="M28.1217 87.7746C31.1076 87.7099 34.1088 87.7671 37.0957 87.7695L57.722 87.8117L130.249 87.8221L172.928 87.8371L186.595 87.8629C189.238 87.8706 191.939 87.7905 194.575 87.9611C195.632 88.0297 196.364 88.269 197.136 89.0271C197.703 89.5837 198.116 90.2986 198.221 91.0818C198.445 92.7453 198.285 94.6087 198.281 96.2887L198.249 106.672L198.301 139.391C199.825 139.395 201.349 139.391 202.873 139.379C205.15 139.372 207.55 139.11 209.33 140.813C210.101 141.55 210.724 142.577 210.873 143.631C211.113 145.324 210.945 147.23 210.942 148.94L210.944 159.074L210.962 195.507C216.249 195.543 221.541 195.434 226.826 195.54C226.851 196.111 226.87 196.684 226.882 197.256C226.911 199.38 226.429 201.335 224.853 202.879C224.741 202.987 224.625 203.092 224.505 203.193C224.386 203.295 224.263 203.391 224.136 203.484C224.01 203.577 223.881 203.665 223.748 203.749C223.615 203.833 223.48 203.912 223.342 203.987C223.203 204.062 223.063 204.132 222.919 204.197C222.776 204.262 222.631 204.322 222.483 204.377C222.336 204.433 222.186 204.483 222.035 204.528C221.884 204.573 221.732 204.613 221.578 204.648C219.477 205.133 216.739 204.873 214.551 204.869L203.206 204.846L73.0735 204.774L30.1321 204.794L16.4029 204.808C13.9998 204.812 11.5422 204.923 9.14449 204.794C8.01744 204.733 7.0093 204.499 6.11806 203.776C5.19739 203.029 4.55366 201.932 4.49512 200.752C4.4918 200.679 4.49038 200.606 4.49086 200.533C4.49133 200.46 4.49369 200.387 4.49797 200.315C4.50222 200.242 4.50837 200.169 4.51642 200.097C4.52445 200.024 4.53436 199.952 4.54615 199.88C4.55796 199.808 4.57162 199.736 4.58714 199.665C4.60266 199.594 4.62002 199.523 4.63923 199.453C4.65843 199.382 4.67946 199.312 4.7023 199.243C4.72515 199.174 4.74978 199.105 4.7762 199.037C4.80261 198.968 4.83079 198.901 4.86073 198.834C4.89066 198.768 4.9223 198.702 4.95566 198.636C4.98901 198.571 5.02405 198.507 5.06076 198.444C5.09745 198.38 5.13578 198.318 5.17574 198.256C5.2157 198.195 5.25723 198.134 5.30033 198.075C5.34342 198.015 5.38803 197.957 5.43417 197.9C5.48031 197.842 5.5279 197.786 5.57694 197.732C5.626 197.677 5.67645 197.623 5.72829 197.571C6.27443 197.027 6.892 196.713 7.64976 196.557C9.47773 196.18 11.6074 196.4 13.477 196.406L24.0345 196.442L24.0296 128.303L24.0503 103.684L24.081 96.1865C24.0808 94.7769 23.9933 93.3317 24.0932 91.9269C24.1611 90.9691 24.4286 90.0238 25.0375 89.2557C25.8255 88.2615 26.8963 87.915 28.1217 87.7746Z" fill="black"/>
<path d="M28.2768 98.9318C39.6528 98.7839 51.0407 98.9108 62.4183 98.9007L133.517 98.8753L173.834 98.8803L186.853 98.8868C189.545 98.889 192.263 98.819 194.95 98.973C195.059 103.793 194.955 108.637 194.955 113.459L194.987 139.399L165.542 139.412L157.185 139.386C155.725 139.38 154.145 139.255 152.701 139.444C151.754 139.568 151.017 140.076 150.302 140.654L110.443 140.6C110.342 143.511 110.418 146.447 110.419 149.361L110.449 177.122C115.092 177.297 119.797 177.171 124.446 177.176L149.178 177.237L149.131 193.38C137.316 193.319 125.502 193.331 113.687 193.415L27.8486 193.409L27.7503 127.258L27.7209 106.65C27.7203 104.409 27.6163 102.156 27.6569 99.9163C27.6627 99.5961 27.626 99.2622 27.8048 98.99L28.2768 98.9318Z" fill="#C3D1E2"/>
<path d="M110.431 106.53C115.716 106.449 121.013 106.516 126.3 106.512L156.43 106.496L175.689 106.507C179.23 106.51 182.818 106.403 186.353 106.567C186.427 116.092 186.443 125.618 186.399 135.144C183.555 135.317 180.628 135.186 177.776 135.185L161.202 135.179L110.413 135.225L110.423 118.29C110.415 114.374 110.333 110.444 110.431 106.53Z" fill="black"/>
<path d="M172.904 107.043L185.816 107.057C185.971 111.505 185.844 115.989 185.85 120.441L185.851 131.033C185.848 131.91 185.923 132.795 185.905 133.669C185.899 133.983 185.902 134.292 185.72 134.562L185.348 134.615L172.994 134.615L172.998 115.877C173.375 115.437 173.765 115.019 173.835 114.424C173.928 113.633 173.419 113.061 172.925 112.5L172.904 107.043Z" fill="#FEFEFE"/>
<path d="M111.039 107.081C114.704 106.965 118.392 107.054 122.059 107.061C122.148 110.103 122.087 113.162 122.083 116.206C122.079 122.345 122.035 128.483 121.952 134.621L110.971 134.643L110.992 117.693C110.995 114.16 110.935 110.613 111.039 107.081Z" fill="white"/>
<path d="M122.205 107.051L134.032 107.062C134.169 111.133 134.107 115.22 134.022 119.292C133.604 119.563 133.222 119.894 132.989 120.337C132.62 121.041 132.848 121.746 133.076 122.449C131.706 124.613 129.717 126.576 127.99 128.481C126.053 130.639 124.18 132.865 122.184 134.97C122.066 132.717 122.134 130.433 122.13 128.177C122.111 124.369 122.114 120.561 122.141 116.753C122.165 113.658 121.917 110.08 122.205 107.051Z" fill="white"/>
<path d="M158.907 107.041L172.654 107.045L172.689 112.463C171.998 112.313 171.296 112.326 170.689 112.727C170.275 113 170.013 113.409 169.952 113.896C169.857 114.648 170.131 115.19 170.581 115.774C169.474 117.886 168.339 119.97 167.278 122.106C166.376 123.936 165.448 125.753 164.495 127.558C163.717 127.42 163.179 127.436 162.477 127.808C161.359 126.001 160.176 124.236 158.929 122.513C158.837 117.365 158.877 112.191 158.907 107.041Z" fill="#FEFEFE"/>
<path d="M152.712 118.836C154.241 120.071 153.968 119.337 155.412 119.471C156.167 119.54 158.019 122.505 158.498 123.167C158.611 126.98 158.508 130.821 158.494 134.636L152.644 134.644L146.491 134.635L146.487 123.341C147.141 123.27 147.825 123.153 148.274 122.634C148.678 122.168 148.728 121.606 148.701 121.022C150.056 120.324 151.393 119.596 152.712 118.836Z" fill="#FEFEFE"/>
<path d="M134.19 107.054L146.314 107.05C146.349 111.254 146.349 115.459 146.314 119.663C145.997 119.776 145.685 119.899 145.371 120.021C145.194 120.206 145.252 120.129 145.121 120.32C145.019 120.466 144.918 120.655 144.794 120.782C144.423 121.166 137.661 120.855 136.781 120.823C136.635 120.494 136.497 120.128 136.238 119.867C135.69 119.315 134.939 119.32 134.209 119.284L134.19 107.054Z" fill="#FEFEFE"/>
<path d="M136.724 121.535C139.286 121.497 141.875 121.621 144.439 121.658C144.981 122.597 145.262 122.983 146.343 123.312L146.328 134.624L143.529 134.618L134.173 134.613L134.188 123.084C134.686 123.115 135.181 123.136 135.651 122.944C136.271 122.693 136.505 122.108 136.724 121.535Z" fill="#FEFEFE"/>
<path d="M172.681 116.047L172.721 116.059C173.002 116.438 172.915 132.681 172.911 134.607C168.179 134.687 163.432 134.625 158.698 134.632C158.659 131.791 158.681 128.946 158.673 126.104L158.68 123.304C159.837 124.932 160.976 126.571 162.098 128.222C161.94 128.896 161.741 129.416 162.028 130.096C162.255 130.635 162.641 131.082 163.219 131.271C163.702 131.429 164.195 131.372 164.635 131.127C165.366 130.721 165.561 130.062 165.793 129.329C165.579 128.817 165.294 128.376 164.99 127.914C167.303 124.115 169.102 120.012 171.14 116.067C171.659 116.107 172.164 116.077 172.681 116.047Z" fill="#FEFEFE"/>
<path d="M146.501 107.041L158.719 107.046L158.843 122.422C158.06 121.39 157.262 120.369 156.449 119.359C155.76 118.603 156.755 117.493 156.053 116.601C155.706 116.16 155.173 115.854 154.602 115.818C154.007 115.78 153.43 116.027 153.01 116.434C152.472 116.958 152.389 117.553 152.379 118.265C151.081 119.06 149.737 119.768 148.391 120.481C147.804 119.889 147.323 119.746 146.494 119.658L146.501 107.041Z" fill="#FEFEFE"/>
<path d="M133.759 122.993L133.874 123.029C134.206 123.468 134.022 133.432 134.024 134.591L123.835 134.597C123.727 134.591 123.796 134.603 123.642 134.513C123.769 134.084 132.679 124.091 133.759 122.993Z" fill="#FEFEFE"/>
<path d="M171.521 113.044C171.541 113.038 171.561 113.033 171.581 113.028C171.601 113.023 171.621 113.019 171.641 113.015C171.662 113.011 171.682 113.008 171.702 113.005C171.723 113.002 171.743 112.999 171.764 112.997C171.784 112.996 171.805 112.994 171.826 112.993C171.846 112.992 171.867 112.991 171.888 112.991C171.908 112.991 171.929 112.992 171.949 112.993C171.97 112.994 171.991 112.995 172.011 112.997C172.032 112.999 172.052 113.002 172.073 113.005C172.093 113.008 172.113 113.011 172.134 113.015C172.154 113.019 172.174 113.023 172.194 113.028C172.214 113.033 172.234 113.038 172.254 113.044C172.274 113.05 172.293 113.056 172.313 113.063C172.332 113.07 172.352 113.077 172.371 113.084C172.39 113.092 172.409 113.1 172.427 113.109C172.446 113.117 172.465 113.126 172.483 113.136C172.501 113.145 172.519 113.155 172.537 113.165C172.555 113.175 172.572 113.186 172.59 113.197C172.607 113.208 172.624 113.22 172.64 113.232C172.657 113.244 172.673 113.256 172.689 113.269C172.706 113.281 172.721 113.295 172.737 113.308C172.752 113.321 172.767 113.335 172.782 113.349C172.796 113.364 172.811 113.378 172.825 113.393C172.839 113.408 172.853 113.423 172.866 113.438C172.879 113.454 172.892 113.47 172.904 113.486C172.917 113.502 172.929 113.518 172.941 113.535C172.952 113.552 172.963 113.569 172.974 113.586C172.985 113.603 172.995 113.62 173.006 113.638C173.015 113.656 173.025 113.674 173.034 113.692C173.043 113.71 173.052 113.728 173.06 113.747C173.068 113.766 173.075 113.784 173.083 113.803C173.09 113.822 173.097 113.841 173.103 113.861C173.109 113.88 173.115 113.899 173.12 113.919C173.126 113.938 173.13 113.958 173.135 113.978C173.139 113.997 173.143 114.017 173.146 114.037C173.15 114.057 173.152 114.077 173.155 114.097C173.157 114.117 173.159 114.137 173.16 114.158C173.162 114.178 173.162 114.198 173.163 114.218C173.163 114.238 173.163 114.259 173.162 114.279C173.162 114.299 173.161 114.319 173.159 114.339C173.157 114.359 173.155 114.38 173.152 114.4C173.15 114.42 173.147 114.439 173.143 114.459C173.139 114.479 173.135 114.499 173.13 114.519C173.126 114.538 173.121 114.558 173.115 114.577C173.11 114.597 173.104 114.616 173.097 114.635C173.09 114.655 173.083 114.674 173.076 114.692C173.068 114.711 173.06 114.73 173.052 114.748C173.044 114.767 173.035 114.785 173.025 114.803C173.016 114.821 173.006 114.839 172.996 114.856C172.986 114.874 172.975 114.891 172.964 114.908C172.953 114.925 172.941 114.942 172.93 114.959C172.918 114.975 172.905 114.991 172.893 115.007C172.88 115.023 172.867 115.039 172.853 115.054C172.84 115.069 172.826 115.084 172.812 115.099C172.797 115.114 172.783 115.128 172.768 115.142C172.753 115.156 172.738 115.169 172.722 115.183C172.707 115.196 172.691 115.208 172.674 115.221C172.658 115.234 172.642 115.246 172.625 115.257C172.608 115.269 172.591 115.28 172.573 115.291C172.556 115.302 172.538 115.312 172.52 115.322C172.502 115.332 172.484 115.342 172.466 115.351C172.447 115.36 172.429 115.369 172.41 115.377C172.391 115.385 172.372 115.393 172.353 115.401C172.333 115.408 172.314 115.415 172.294 115.421C172.241 115.439 172.187 115.453 172.132 115.464C172.076 115.474 172.021 115.481 171.964 115.484C171.908 115.488 171.852 115.487 171.796 115.483C171.74 115.479 171.684 115.472 171.629 115.46C171.574 115.449 171.52 115.435 171.467 115.416C171.413 115.398 171.362 115.377 171.312 115.352C171.261 115.327 171.213 115.299 171.167 115.268C171.12 115.237 171.076 115.203 171.034 115.166C170.993 115.129 170.953 115.089 170.917 115.047C170.88 115.005 170.847 114.961 170.816 114.915C170.786 114.869 170.759 114.821 170.735 114.771C170.711 114.721 170.69 114.67 170.673 114.617C170.656 114.565 170.642 114.512 170.633 114.457C170.623 114.403 170.617 114.348 170.614 114.293C170.612 114.238 170.613 114.183 170.618 114.129C170.623 114.074 170.632 114.019 170.644 113.966C170.656 113.912 170.672 113.859 170.691 113.807C170.711 113.756 170.734 113.706 170.76 113.657C170.786 113.608 170.816 113.561 170.848 113.517C170.881 113.472 170.917 113.429 170.955 113.389C170.993 113.348 171.034 113.311 171.078 113.276C171.121 113.241 171.167 113.209 171.215 113.179C171.262 113.151 171.312 113.125 171.363 113.102C171.415 113.079 171.467 113.06 171.521 113.044Z" fill="#FEFEFE"/>
<path d="M134.387 119.993C134.407 119.987 134.427 119.981 134.447 119.975C134.467 119.969 134.488 119.964 134.508 119.96C134.529 119.955 134.549 119.951 134.57 119.947C134.59 119.944 134.611 119.941 134.632 119.938C134.653 119.935 134.673 119.933 134.694 119.932C134.715 119.93 134.736 119.929 134.757 119.928C134.778 119.928 134.799 119.928 134.82 119.928C134.841 119.928 134.862 119.929 134.883 119.931C134.904 119.932 134.924 119.934 134.945 119.936C134.966 119.939 134.987 119.942 135.007 119.945C135.028 119.949 135.049 119.953 135.069 119.957C135.089 119.961 135.11 119.966 135.13 119.972C135.15 119.977 135.17 119.983 135.19 119.989C135.21 119.996 135.23 120.002 135.249 120.01C135.269 120.017 135.288 120.025 135.307 120.033C135.327 120.041 135.346 120.05 135.364 120.059C135.383 120.068 135.402 120.078 135.42 120.088C135.438 120.098 135.456 120.109 135.474 120.12C135.492 120.13 135.509 120.142 135.526 120.154C135.543 120.165 135.56 120.178 135.577 120.19C135.593 120.203 135.609 120.216 135.625 120.229C135.641 120.243 135.657 120.256 135.672 120.27C135.687 120.284 135.702 120.299 135.716 120.314C135.731 120.329 135.745 120.344 135.759 120.359C135.772 120.375 135.786 120.391 135.798 120.407C135.811 120.423 135.824 120.44 135.836 120.456C135.848 120.473 135.859 120.49 135.871 120.507C135.882 120.525 135.893 120.542 135.903 120.56C135.913 120.578 135.923 120.596 135.933 120.614C135.942 120.633 135.951 120.651 135.959 120.67C135.968 120.689 135.976 120.708 135.983 120.727C135.991 120.746 135.998 120.765 136.004 120.785C136.011 120.804 136.017 120.824 136.022 120.844C136.028 120.863 136.033 120.883 136.037 120.903C136.042 120.923 136.046 120.943 136.05 120.964C136.053 120.984 136.056 121.004 136.059 121.024C136.061 121.045 136.063 121.065 136.065 121.086C136.066 121.106 136.067 121.127 136.067 121.147C136.068 121.168 136.068 121.188 136.067 121.209C136.067 121.229 136.065 121.249 136.064 121.27C136.062 121.29 136.06 121.311 136.057 121.331C136.055 121.351 136.052 121.372 136.048 121.392C136.044 121.412 136.04 121.432 136.035 121.452C136.031 121.472 136.025 121.492 136.02 121.512C136.014 121.531 136.008 121.551 136.001 121.57C135.995 121.59 135.987 121.609 135.98 121.628C135.972 121.647 135.964 121.666 135.955 121.685C135.947 121.704 135.938 121.722 135.928 121.74C135.918 121.758 135.908 121.776 135.898 121.794C135.888 121.812 135.877 121.829 135.865 121.847C135.854 121.864 135.842 121.881 135.83 121.898C135.818 121.914 135.805 121.931 135.792 121.947C135.779 121.963 135.766 121.978 135.752 121.994C135.738 122.009 135.724 122.024 135.709 122.039C135.695 122.054 135.68 122.068 135.665 122.082C135.649 122.096 135.634 122.11 135.618 122.123C135.602 122.136 135.585 122.149 135.569 122.162C135.552 122.174 135.535 122.186 135.518 122.198C135.501 122.209 135.483 122.221 135.465 122.231C135.448 122.242 135.43 122.253 135.411 122.262C135.393 122.272 135.374 122.282 135.355 122.291C135.337 122.3 135.318 122.308 135.298 122.316C135.279 122.325 135.26 122.332 135.24 122.339C135.22 122.347 135.201 122.353 135.181 122.36C135.161 122.366 135.141 122.371 135.121 122.376C135.101 122.382 135.081 122.386 135.061 122.391C135.04 122.395 135.02 122.399 135 122.402C134.979 122.405 134.959 122.408 134.938 122.41C134.918 122.412 134.897 122.414 134.876 122.416C134.856 122.417 134.835 122.417 134.814 122.418C134.793 122.418 134.773 122.418 134.752 122.417C134.731 122.417 134.711 122.415 134.69 122.414C134.669 122.412 134.649 122.41 134.628 122.407C134.608 122.405 134.587 122.401 134.567 122.398C134.547 122.394 134.526 122.39 134.506 122.386C134.486 122.381 134.466 122.376 134.446 122.37C134.426 122.365 134.406 122.359 134.387 122.352C134.367 122.346 134.348 122.339 134.328 122.331C134.309 122.324 134.29 122.316 134.271 122.308C134.252 122.299 134.234 122.291 134.215 122.281C134.197 122.272 134.179 122.262 134.161 122.252C134.143 122.242 134.125 122.232 134.108 122.221C134.09 122.21 134.073 122.198 134.056 122.187C134.039 122.175 134.023 122.163 134.007 122.15C133.99 122.138 133.974 122.125 133.959 122.111C133.943 122.098 133.928 122.084 133.913 122.07C133.898 122.056 133.883 122.042 133.869 122.027C133.855 122.012 133.841 121.997 133.828 121.982C133.814 121.967 133.801 121.951 133.789 121.935C133.776 121.919 133.764 121.903 133.752 121.886C133.74 121.869 133.729 121.852 133.718 121.835C133.706 121.818 133.696 121.801 133.686 121.783C133.675 121.765 133.666 121.747 133.657 121.729C133.647 121.711 133.639 121.693 133.63 121.674C133.622 121.656 133.614 121.637 133.607 121.618C133.599 121.599 133.592 121.58 133.586 121.561C133.579 121.542 133.573 121.522 133.568 121.503C133.562 121.483 133.557 121.464 133.553 121.444C133.548 121.424 133.544 121.404 133.541 121.384C133.537 121.364 133.534 121.344 133.532 121.324C133.529 121.304 133.527 121.284 133.526 121.264C133.524 121.244 133.523 121.223 133.523 121.203C133.522 121.183 133.522 121.162 133.523 121.142C133.523 121.122 133.524 121.102 133.526 121.082C133.527 121.061 133.529 121.041 133.532 121.021C133.534 121.001 133.537 120.981 133.541 120.961C133.544 120.941 133.549 120.921 133.553 120.901C133.558 120.882 133.563 120.862 133.568 120.842C133.574 120.823 133.58 120.803 133.586 120.784C133.592 120.765 133.599 120.746 133.607 120.727C133.614 120.708 133.622 120.689 133.63 120.671C133.639 120.652 133.648 120.634 133.657 120.616C133.666 120.598 133.676 120.58 133.686 120.562C133.696 120.544 133.707 120.527 133.718 120.51C133.729 120.493 133.74 120.476 133.752 120.459C133.764 120.443 133.776 120.427 133.789 120.41C133.802 120.394 133.815 120.379 133.828 120.363C133.842 120.348 133.855 120.333 133.87 120.318C133.884 120.303 133.898 120.289 133.913 120.275C133.928 120.261 133.943 120.247 133.959 120.234C133.975 120.221 133.991 120.208 134.007 120.195C134.023 120.183 134.04 120.17 134.057 120.159C134.074 120.147 134.091 120.136 134.108 120.125C134.125 120.114 134.143 120.103 134.161 120.093C134.179 120.083 134.197 120.073 134.216 120.064C134.234 120.055 134.253 120.046 134.272 120.038C134.291 120.03 134.31 120.022 134.329 120.014C134.348 120.007 134.368 120 134.387 119.993Z" fill="#FEFEFE"/>
<path d="M146.281 120.308C146.301 120.302 146.321 120.296 146.341 120.291C146.361 120.286 146.382 120.281 146.402 120.277C146.423 120.273 146.443 120.269 146.464 120.265C146.485 120.262 146.505 120.26 146.526 120.257C146.547 120.255 146.568 120.253 146.588 120.252C146.609 120.251 146.63 120.25 146.651 120.25C146.672 120.25 146.693 120.25 146.714 120.251C146.735 120.251 146.756 120.253 146.776 120.255C146.797 120.256 146.818 120.259 146.839 120.261C146.859 120.264 146.88 120.267 146.901 120.271C146.921 120.275 146.942 120.279 146.962 120.284C146.982 120.289 147.003 120.294 147.023 120.3C147.043 120.306 147.063 120.312 147.082 120.318C147.102 120.325 147.122 120.332 147.141 120.34C147.161 120.347 147.18 120.356 147.199 120.364C147.218 120.373 147.236 120.382 147.255 120.391C147.274 120.401 147.292 120.411 147.31 120.421C147.328 120.431 147.346 120.442 147.363 120.453C147.381 120.465 147.398 120.476 147.415 120.488C147.432 120.5 147.448 120.513 147.464 120.526C147.481 120.538 147.497 120.552 147.512 120.565C147.528 120.579 147.543 120.593 147.558 120.607C147.573 120.622 147.588 120.636 147.602 120.651C147.616 120.666 147.63 120.682 147.643 120.697C147.656 120.713 147.669 120.729 147.682 120.745C147.695 120.762 147.707 120.778 147.719 120.795C147.73 120.812 147.742 120.829 147.752 120.847C147.763 120.864 147.774 120.882 147.784 120.9C147.794 120.918 147.803 120.936 147.813 120.955C147.822 120.973 147.83 120.992 147.838 121.011C147.846 121.029 147.854 121.048 147.861 121.068C147.868 121.087 147.875 121.106 147.881 121.126C147.887 121.145 147.893 121.165 147.898 121.185C147.904 121.205 147.908 121.224 147.913 121.245C147.917 121.265 147.921 121.285 147.924 121.305C147.927 121.325 147.93 121.345 147.932 121.366C147.934 121.386 147.936 121.407 147.937 121.427C147.938 121.447 147.938 121.468 147.939 121.488C147.939 121.509 147.938 121.529 147.937 121.55C147.937 121.57 147.935 121.59 147.933 121.611C147.931 121.631 147.929 121.651 147.926 121.672C147.923 121.692 147.919 121.712 147.915 121.732C147.911 121.752 147.907 121.772 147.902 121.792C147.897 121.812 147.891 121.832 147.886 121.851C147.88 121.871 147.873 121.89 147.866 121.91C147.859 121.929 147.852 121.948 147.844 121.967C147.836 121.986 147.827 122.005 147.819 122.023C147.81 122.042 147.8 122.06 147.791 122.078C147.781 122.096 147.771 122.114 147.76 122.132C147.749 122.149 147.738 122.166 147.727 122.183C147.715 122.2 147.703 122.217 147.691 122.234C147.678 122.25 147.665 122.266 147.652 122.282C147.639 122.298 147.625 122.314 147.612 122.329C147.598 122.344 147.583 122.359 147.568 122.373C147.554 122.388 147.539 122.402 147.523 122.416C147.508 122.43 147.492 122.443 147.476 122.456C147.46 122.469 147.443 122.482 147.426 122.494C147.41 122.506 147.393 122.518 147.375 122.529C147.358 122.541 147.34 122.552 147.322 122.562C147.304 122.573 147.286 122.583 147.268 122.593C147.249 122.602 147.231 122.611 147.212 122.62C147.193 122.629 147.174 122.637 147.154 122.645C147.135 122.653 147.116 122.66 147.096 122.667C147.076 122.674 147.056 122.681 147.036 122.687C147.017 122.692 146.997 122.698 146.976 122.703C146.956 122.708 146.936 122.712 146.916 122.716C146.895 122.72 146.875 122.724 146.854 122.727C146.834 122.73 146.813 122.732 146.793 122.734C146.772 122.736 146.751 122.738 146.731 122.739C146.71 122.74 146.689 122.741 146.668 122.741C146.648 122.741 146.627 122.74 146.606 122.739C146.586 122.738 146.565 122.737 146.544 122.735C146.523 122.733 146.503 122.731 146.482 122.728C146.462 122.725 146.441 122.721 146.421 122.717C146.401 122.713 146.38 122.709 146.36 122.704C146.34 122.699 146.32 122.694 146.3 122.688C146.28 122.682 146.261 122.676 146.241 122.669C146.221 122.662 146.202 122.655 146.183 122.648C146.164 122.64 146.145 122.632 146.126 122.623C146.107 122.614 146.088 122.605 146.07 122.596C146.052 122.586 146.034 122.576 146.016 122.566C145.998 122.556 145.98 122.545 145.963 122.534C145.946 122.522 145.929 122.511 145.912 122.499C145.895 122.487 145.879 122.474 145.863 122.461C145.847 122.449 145.831 122.435 145.815 122.422C145.8 122.408 145.785 122.395 145.77 122.38C145.756 122.366 145.741 122.351 145.727 122.336C145.713 122.321 145.699 122.306 145.686 122.29C145.673 122.275 145.66 122.259 145.648 122.243C145.635 122.226 145.623 122.21 145.611 122.193C145.6 122.176 145.589 122.159 145.578 122.142C145.567 122.125 145.557 122.107 145.547 122.089C145.537 122.071 145.528 122.053 145.519 122.035C145.509 122.016 145.501 121.998 145.493 121.979C145.485 121.961 145.477 121.942 145.47 121.922C145.463 121.904 145.456 121.884 145.45 121.865C145.444 121.845 145.438 121.826 145.433 121.806C145.428 121.787 145.423 121.767 145.419 121.747C145.415 121.727 145.411 121.707 145.408 121.687C145.405 121.667 145.402 121.647 145.4 121.627C145.398 121.606 145.396 121.586 145.395 121.566C145.394 121.546 145.393 121.525 145.393 121.505C145.393 121.485 145.393 121.465 145.394 121.444C145.395 121.424 145.396 121.404 145.398 121.383C145.4 121.363 145.402 121.343 145.405 121.323C145.408 121.303 145.411 121.283 145.415 121.263C145.419 121.243 145.423 121.223 145.428 121.203C145.433 121.184 145.438 121.164 145.444 121.145C145.45 121.125 145.456 121.106 145.463 121.086C145.47 121.067 145.477 121.048 145.485 121.029C145.493 121.01 145.501 120.992 145.51 120.973C145.519 120.955 145.528 120.937 145.537 120.919C145.547 120.901 145.557 120.883 145.567 120.866C145.578 120.848 145.589 120.831 145.6 120.814C145.612 120.797 145.623 120.78 145.636 120.764C145.648 120.747 145.66 120.731 145.673 120.715C145.686 120.699 145.7 120.684 145.714 120.669C145.727 120.654 145.741 120.639 145.756 120.624C145.77 120.61 145.785 120.595 145.801 120.582C145.816 120.568 145.831 120.554 145.847 120.541C145.863 120.528 145.879 120.516 145.896 120.503C145.912 120.491 145.929 120.479 145.946 120.468C145.964 120.456 145.981 120.445 145.999 120.435C146.016 120.424 146.034 120.414 146.052 120.404C146.071 120.394 146.089 120.385 146.108 120.376C146.126 120.367 146.145 120.359 146.164 120.35C146.183 120.342 146.203 120.335 146.222 120.328C146.242 120.321 146.261 120.314 146.281 120.308Z" fill="#FEFEFE"/>
<path d="M153.923 116.558C153.975 116.538 154.027 116.521 154.081 116.508C154.134 116.495 154.189 116.485 154.243 116.479C154.298 116.473 154.353 116.471 154.409 116.472C154.464 116.473 154.519 116.477 154.573 116.485C154.628 116.493 154.682 116.505 154.735 116.52C154.788 116.535 154.84 116.554 154.89 116.576C154.941 116.598 154.99 116.623 155.037 116.651C155.084 116.679 155.129 116.71 155.172 116.744C155.215 116.778 155.255 116.815 155.293 116.854C155.331 116.894 155.366 116.935 155.398 116.979C155.431 117.023 155.46 117.069 155.486 117.116C155.512 117.164 155.535 117.213 155.554 117.264C155.574 117.314 155.589 117.366 155.602 117.418C155.614 117.471 155.623 117.524 155.628 117.578C155.634 117.632 155.635 117.686 155.633 117.74C155.631 117.794 155.625 117.848 155.616 117.901C155.606 117.954 155.593 118.007 155.577 118.058C155.56 118.11 155.54 118.16 155.517 118.209C155.494 118.258 155.467 118.305 155.438 118.351C155.408 118.397 155.375 118.44 155.339 118.481C155.304 118.523 155.265 118.561 155.225 118.598C155.184 118.634 155.14 118.668 155.095 118.698C155.05 118.729 155.002 118.757 154.953 118.781C154.904 118.806 154.853 118.827 154.801 118.845C154.782 118.852 154.763 118.858 154.744 118.864C154.724 118.869 154.705 118.875 154.685 118.879C154.666 118.884 154.646 118.888 154.626 118.892C154.606 118.896 154.586 118.899 154.567 118.902C154.547 118.905 154.526 118.907 154.506 118.909C154.486 118.911 154.466 118.913 154.446 118.914C154.426 118.915 154.406 118.915 154.385 118.915C154.365 118.915 154.345 118.915 154.325 118.914C154.305 118.913 154.285 118.911 154.264 118.909C154.244 118.907 154.224 118.905 154.204 118.902C154.184 118.899 154.165 118.896 154.145 118.892C154.125 118.889 154.105 118.884 154.086 118.88C154.066 118.875 154.047 118.87 154.027 118.864C154.008 118.858 153.989 118.852 153.97 118.846C153.951 118.839 153.932 118.832 153.913 118.825C153.894 118.817 153.876 118.809 153.858 118.801C153.839 118.793 153.821 118.784 153.803 118.774C153.786 118.765 153.768 118.756 153.751 118.746C153.733 118.736 153.716 118.725 153.699 118.714C153.682 118.703 153.666 118.692 153.65 118.681C153.633 118.669 153.617 118.657 153.601 118.644C153.586 118.632 153.57 118.619 153.555 118.606C153.54 118.593 153.525 118.58 153.511 118.566C153.497 118.552 153.482 118.538 153.469 118.523C153.455 118.509 153.442 118.494 153.429 118.479C153.416 118.464 153.403 118.448 153.391 118.433C153.379 118.417 153.367 118.401 153.356 118.385C153.344 118.368 153.333 118.352 153.322 118.335C153.312 118.318 153.302 118.301 153.292 118.284C153.282 118.267 153.273 118.249 153.264 118.232C153.255 118.214 153.247 118.196 153.238 118.178C153.231 118.16 153.223 118.141 153.216 118.123C153.209 118.104 153.202 118.086 153.196 118.067C153.19 118.048 153.184 118.029 153.179 118.01C153.174 117.991 153.169 117.972 153.165 117.952C153.16 117.933 153.157 117.914 153.153 117.894C153.15 117.875 153.147 117.855 153.145 117.836C153.142 117.816 153.141 117.796 153.139 117.777C153.138 117.757 153.137 117.737 153.137 117.718C153.136 117.698 153.136 117.678 153.137 117.658C153.137 117.638 153.138 117.619 153.14 117.599C153.141 117.58 153.143 117.56 153.146 117.54C153.149 117.521 153.152 117.501 153.155 117.482C153.159 117.462 153.163 117.443 153.167 117.424C153.171 117.404 153.176 117.385 153.182 117.366C153.187 117.347 153.193 117.328 153.199 117.309C153.206 117.291 153.213 117.272 153.22 117.254C153.227 117.235 153.235 117.217 153.243 117.199C153.251 117.181 153.26 117.163 153.269 117.145C153.278 117.128 153.287 117.11 153.297 117.093C153.307 117.076 153.317 117.059 153.328 117.042C153.339 117.026 153.35 117.009 153.362 116.993C153.373 116.977 153.385 116.961 153.398 116.945C153.41 116.93 153.423 116.914 153.436 116.899C153.449 116.884 153.462 116.87 153.476 116.855C153.49 116.841 153.504 116.827 153.519 116.813C153.533 116.799 153.548 116.786 153.564 116.773C153.579 116.76 153.594 116.747 153.61 116.735C153.626 116.723 153.642 116.711 153.658 116.7C153.675 116.688 153.691 116.677 153.708 116.666C153.725 116.656 153.743 116.645 153.76 116.635C153.777 116.626 153.795 116.616 153.813 116.607C153.831 116.598 153.849 116.589 153.868 116.581C153.886 116.573 153.905 116.565 153.923 116.558Z" fill="#FEFEFE"/>
<path d="M163.377 128.302C163.396 128.296 163.415 128.29 163.434 128.284C163.453 128.279 163.472 128.273 163.491 128.269C163.51 128.264 163.53 128.26 163.549 128.256C163.569 128.252 163.588 128.249 163.608 128.246C163.628 128.243 163.647 128.241 163.667 128.239C163.687 128.237 163.707 128.236 163.727 128.235C163.746 128.234 163.766 128.233 163.786 128.233C163.806 128.233 163.826 128.234 163.846 128.235C163.866 128.236 163.886 128.237 163.905 128.239C163.925 128.241 163.945 128.243 163.965 128.246C163.984 128.248 164.004 128.252 164.023 128.255C164.043 128.259 164.062 128.263 164.081 128.268C164.101 128.272 164.12 128.277 164.139 128.283C164.158 128.289 164.177 128.294 164.196 128.301C164.215 128.307 164.233 128.314 164.252 128.321C164.27 128.329 164.288 128.336 164.306 128.344C164.324 128.353 164.342 128.361 164.36 128.37C164.377 128.379 164.395 128.389 164.412 128.398C164.429 128.408 164.446 128.418 164.463 128.429C164.479 128.44 164.496 128.451 164.512 128.462C164.528 128.473 164.544 128.485 164.559 128.497C164.575 128.509 164.59 128.522 164.605 128.535C164.62 128.547 164.635 128.561 164.649 128.574C164.663 128.588 164.677 128.602 164.691 128.616C164.704 128.63 164.717 128.645 164.73 128.659C164.743 128.674 164.756 128.689 164.768 128.705C164.78 128.72 164.792 128.736 164.803 128.752C164.815 128.768 164.826 128.784 164.836 128.8C164.847 128.817 164.857 128.833 164.867 128.85C164.876 128.867 164.886 128.885 164.895 128.902C164.904 128.919 164.912 128.937 164.92 128.955C164.928 128.972 164.936 128.99 164.943 129.009C164.95 129.027 164.957 129.045 164.963 129.063C164.969 129.082 164.975 129.1 164.98 129.119C164.985 129.138 164.99 129.157 164.995 129.176C164.999 129.195 165.003 129.214 165.007 129.233C165.01 129.252 165.013 129.271 165.016 129.291C165.018 129.31 165.02 129.329 165.022 129.349C165.023 129.368 165.024 129.387 165.025 129.407C165.025 129.426 165.026 129.446 165.025 129.465C165.025 129.485 165.024 129.504 165.023 129.523C165.021 129.543 165.02 129.562 165.017 129.581C165.015 129.601 165.012 129.62 165.009 129.639C165.006 129.658 165.002 129.677 164.998 129.696C164.994 129.716 164.989 129.734 164.984 129.753C164.979 129.772 164.974 129.791 164.968 129.809C164.962 129.828 164.955 129.846 164.948 129.864C164.941 129.883 164.934 129.901 164.926 129.918C164.918 129.936 164.91 129.954 164.901 129.972C164.893 129.989 164.884 130.006 164.874 130.024C164.865 130.041 164.855 130.057 164.844 130.074C164.834 130.091 164.823 130.107 164.812 130.123C164.801 130.139 164.789 130.155 164.778 130.171C164.766 130.186 164.753 130.201 164.741 130.216C164.728 130.231 164.715 130.246 164.702 130.26C164.688 130.275 164.674 130.289 164.66 130.302C164.646 130.316 164.632 130.329 164.617 130.342C164.602 130.355 164.587 130.368 164.572 130.38C164.556 130.393 164.541 130.405 164.525 130.416C164.509 130.428 164.493 130.439 164.476 130.45C164.459 130.461 164.443 130.471 164.426 130.481C164.409 130.491 164.391 130.501 164.374 130.51C164.356 130.519 164.339 130.528 164.321 130.536C164.303 130.545 164.285 130.553 164.266 130.56C164.215 130.581 164.163 130.598 164.11 130.612C164.057 130.626 164.003 130.637 163.949 130.644C163.894 130.651 163.839 130.654 163.784 130.654C163.729 130.654 163.674 130.65 163.62 130.643C163.565 130.635 163.511 130.624 163.458 130.61C163.405 130.596 163.353 130.578 163.303 130.557C163.252 130.536 163.203 130.511 163.156 130.484C163.109 130.456 163.063 130.426 163.02 130.392C162.977 130.359 162.936 130.323 162.898 130.284C162.86 130.245 162.825 130.204 162.792 130.161C162.759 130.117 162.73 130.072 162.703 130.025C162.677 129.978 162.654 129.929 162.634 129.879C162.614 129.828 162.598 129.777 162.585 129.725C162.572 129.672 162.563 129.619 162.558 129.566C162.552 129.512 162.55 129.459 162.552 129.405C162.554 129.351 162.559 129.297 162.568 129.244C162.577 129.191 162.59 129.139 162.606 129.087C162.622 129.036 162.642 128.986 162.665 128.937C162.688 128.888 162.714 128.841 162.744 128.795C162.773 128.75 162.806 128.707 162.841 128.665C162.876 128.624 162.915 128.585 162.955 128.549C162.996 128.513 163.039 128.479 163.084 128.449C163.129 128.418 163.177 128.39 163.226 128.366C163.275 128.341 163.325 128.32 163.377 128.302Z" fill="#FEFEFE"/>
<path d="M56.8556 180.013L56.8569 152.695C56.8556 150.579 56.5867 141.716 57.0408 140.358C57.3834 140.151 63.9866 140.165 64.675 140.331C64.8625 140.377 64.9884 140.442 65.1296 140.574C65.3838 141.844 65.2428 143.287 65.2313 144.579L65.1885 150.858L65.1531 180.054L68.6948 180.041C71.3982 180.032 74.1151 180.075 76.8165 179.994C77.8438 179.97 78.8755 179.984 79.9032 179.979C79.9641 172.59 79.9844 165.2 79.9639 157.811C82.5674 157.849 85.2979 157.635 87.877 157.93C88.0582 159.912 87.9454 161.965 87.9961 163.958C88.1545 169.342 88.2323 174.728 88.2296 180.114C90.3113 180.138 93.6732 179.867 95.5934 180.207C95.8375 180.251 95.9866 180.242 96.1321 180.441C95.8544 180.662 95.5648 180.631 95.228 180.638C88.7566 180.781 82.266 180.507 75.7921 180.506L37.7999 180.551C37.7284 177.71 37.7917 174.852 37.7899 172.01L37.7755 154.95C37.7735 153.353 37.5384 144.882 37.833 143.966C37.907 143.736 37.8502 143.811 38.0577 143.704C38.2199 143.89 38.2438 144.078 38.2634 144.318C38.3611 145.515 38.281 146.781 38.2828 147.983L38.2975 155.374L38.2871 180.029C41.8245 180.243 45.4655 180.078 49.0133 180.079C51.3158 180.079 54.6453 180.263 56.8556 180.013Z" fill="black"/>
<path d="M68.701 147.105C69.8233 147.101 76.0016 146.907 76.6565 147.316C77.0619 149.961 76.8081 154.545 76.8061 157.367C76.8011 164.898 76.6615 172.468 76.8167 179.994C74.1153 180.075 71.3983 180.032 68.6949 180.041L68.6938 158.232C68.6922 154.536 68.5643 150.796 68.701 147.105Z" fill="#4075D7"/>
<path d="M45.4285 179.992L45.4569 163.896C45.4576 162.165 45.2322 156.719 45.6103 155.536C46.1438 155.124 52.139 155.228 53.2184 155.344C53.3842 155.527 53.4704 155.674 53.4957 155.923C53.5638 156.594 53.4726 157.329 53.4733 158.008L53.4857 163.191L53.469 179.993C54.5913 179.991 55.7359 179.942 56.8551 180.014C54.6448 180.263 51.3154 180.079 49.0128 180.079C45.465 180.078 41.8241 180.243 38.2867 180.03C40.6598 179.928 43.0528 179.99 45.4285 179.992Z" fill="#FDBE50"/>
<path d="M37.7341 107.839C41.031 107.76 44.3444 107.825 47.6431 107.826L66.3625 107.829L89.2552 107.824C92.2117 107.826 95.1912 107.746 98.1439 107.796C98.4855 107.802 98.9179 107.789 99.2263 107.932C99.4009 108.014 99.3878 108.195 99.435 108.363C96.6192 108.463 93.7775 108.388 90.9593 108.386L75.8676 108.384L39.1264 108.405C38.7029 108.401 38.1918 108.432 37.8069 108.257L37.7341 107.839Z" fill="black"/>
<path d="M37.6641 118.555C39.2396 118.23 41.8616 118.459 43.5693 118.466L55.7432 118.492L83.3232 118.521C88.3023 118.517 93.3053 118.395 98.2811 118.499C98.6411 118.506 99.0713 118.44 99.3783 118.629L99.3601 118.984C83.8564 119.264 68.3115 119.045 52.8043 119.022L42.2361 118.997C40.9845 118.996 39.2795 119.25 38.0855 118.962C37.7992 118.893 37.7997 118.794 37.6641 118.555Z" fill="black"/>
<path d="M37.6711 113.199C43.4114 113.339 49.1762 113.241 54.9194 113.237L85.4775 113.216C89.7954 113.216 94.154 113.072 98.4665 113.185C98.7993 113.194 99.12 113.182 99.4049 113.37L99.4537 113.71C94.2377 113.849 88.9851 113.734 83.7646 113.737L53.78 113.758L41.8535 113.768C40.9326 113.768 38.6849 113.932 37.9418 113.752C37.8611 113.732 37.8026 113.663 37.7329 113.618L37.6711 113.199Z" fill="black"/>
<path d="M37.769 123.819C40.4855 123.727 43.2284 123.805 45.9488 123.806L61.6642 123.816L77.3758 123.831C79.6635 123.835 81.9895 123.744 84.2711 123.821C84.6571 123.835 84.995 123.852 85.3498 124.01L85.4773 124.35C78.6511 124.575 71.7526 124.377 64.9167 124.385C55.9727 124.394 46.9889 124.555 38.0494 124.359C37.7871 124.171 37.8387 124.117 37.769 123.819Z" fill="black"/>
<path d="M172.357 154.88C183.027 154.787 193.75 154.681 204.419 154.89L204.436 195.501L188.504 195.505L156.265 195.491L156.224 154.89C161.598 154.822 166.981 154.895 172.357 154.88Z" fill="#C3D1E2"/>
<path d="M161.263 160.679C164.318 160.713 167.374 160.721 170.429 160.704L170.427 169.742C167.366 169.7 164.304 169.705 161.243 169.755L161.263 160.679Z" fill="black"/>
<path d="M162.306 161.663L169.389 161.685L169.386 168.722C167.041 168.804 164.656 168.724 162.307 168.721L162.306 161.663Z" fill="#FEFEFE"/>
<path d="M161.271 172.122C164.299 172.193 167.338 172.143 170.367 172.14C170.448 175.165 170.408 178.198 170.408 181.224L161.306 181.208L161.271 172.122Z" fill="black"/>
<path d="M162.313 173.159L169.406 173.164L169.416 180.196L162.317 180.196L162.313 173.159Z" fill="#FEFEFE"/>
<path d="M161.368 183.676C164.379 183.716 167.393 183.698 170.404 183.704C170.439 186.552 170.449 189.399 170.433 192.246C167.437 192.369 164.396 192.254 161.395 192.234C161.349 189.383 161.372 186.528 161.368 183.676Z" fill="black"/>
<path d="M162.357 184.736C164.715 184.705 167.074 184.702 169.432 184.728C169.585 186.889 169.48 189.106 169.464 191.273C167.119 191.274 164.729 191.371 162.391 191.215C162.168 189.132 162.273 186.831 162.357 184.736Z" fill="#FEFEFE"/>
<path d="M175.813 175.714C178.095 175.757 195.061 175.524 195.577 175.792L195.649 176.322C191.374 176.398 187.086 176.349 182.809 176.348C180.602 176.347 178.249 176.512 176.057 176.34C175.804 176.125 175.85 176.031 175.813 175.714Z" fill="black"/>
<path d="M175.517 164.143C177.528 164.167 194.766 163.918 195.483 164.193L195.633 164.539C195.518 164.625 195.446 164.69 195.296 164.731C194.443 164.962 189.016 164.758 187.691 164.755C184.004 164.746 180.295 164.875 176.613 164.784C176.301 164.776 175.9 164.805 175.635 164.646L175.517 164.143Z" fill="black"/>
<path d="M175.754 187.379C177.687 187.262 195.089 187.219 195.485 187.432C195.616 187.502 195.645 187.797 195.683 187.936C193.804 187.973 176.384 188.11 175.985 187.937C175.844 187.876 175.797 187.526 175.754 187.379Z" fill="black"/>
<path d="M110.9 141.171C116.212 141.105 121.532 141.189 126.845 141.19L149.832 141.184C149.6 141.715 149.301 142.283 149.245 142.862C149.121 144.138 149.198 145.475 149.202 146.757L149.223 153.946L149.19 176.349L149.113 176.589C148.301 176.896 140.243 176.684 138.64 176.684L110.897 176.639L110.9 141.171Z" fill="#FDBE50"/>
<path d="M8.29875 197.006C15.7262 196.83 23.1907 196.987 30.6235 196.977L76.6645 196.962L119.555 196.967C129.428 196.955 139.325 196.841 149.197 197.05C149.22 198.382 148.98 199.792 149.302 201.102C149.656 202.54 150.552 203.488 151.813 204.234L148.155 204.231L52.7084 204.193L23.8076 204.226C19.0335 204.233 14.1869 204.409 9.41998 204.219C8.55925 204.185 7.76054 204.081 7.01191 203.631C6.11904 203.093 5.42383 202.182 5.21702 201.17C5.03258 200.267 5.22281 199.369 5.7439 198.605C6.38943 197.658 7.18079 197.234 8.29875 197.006Z" fill="#FEFEFE"/>
<path d="M152.77 140.05C152.915 140.042 153.059 140.036 153.203 140.031C156.831 139.907 160.508 140.026 164.14 140.022L186.272 139.999L199.514 139.991C201.815 139.991 204.271 139.829 206.557 140.072C207.449 140.167 208.279 140.623 208.917 141.228C209.55 141.829 210.082 142.672 210.217 143.534C210.494 145.306 210.333 147.271 210.332 149.063L210.326 158.918L210.367 195.519L204.974 195.521L205.026 147.181L205.022 145.311C188.54 145.083 172.031 145.302 155.546 145.321L155.665 195.474L149.677 195.503L149.753 163.374L149.745 150.281C149.743 148.118 149.64 145.914 149.737 143.755C149.761 143.201 149.823 142.648 150.076 142.143C150.608 141.085 151.662 140.416 152.77 140.05Z" fill="#FEFEFE"/>
<path d="M149.697 196.089C159.701 195.901 169.733 196.084 179.741 196.071C195.238 196.051 210.753 195.925 226.248 196.102C226.306 198.653 226.266 200.447 224.386 202.448C223.478 203.315 222.349 204.021 221.073 204.203C218.916 204.51 216.485 204.294 214.3 204.29L201.23 204.29L154.949 204.281C153.331 204.275 152.156 204.078 150.975 202.863C149.243 201.082 149.671 198.354 149.697 196.089Z" fill="#FEFEFE"/>
<path d="M156.222 145.9L204.438 145.895C204.455 148.685 204.428 151.477 204.401 154.267C199.047 154.387 193.668 154.285 188.31 154.289L156.221 154.29L156.222 145.9Z" fill="#FEFEFE"/>
<path d="M193.573 149.997C194.248 149.955 194.97 149.842 195.623 150.038C195.892 150.298 195.837 150.37 195.849 150.729C195.16 150.763 194.353 150.904 193.704 150.646C193.518 150.376 193.552 150.328 193.573 149.997Z" fill="black"/>
<path d="M113.71 34.7311C114.008 34.7172 114.306 34.7106 114.605 34.7112C114.903 34.7118 115.201 34.7196 115.499 34.7346C115.797 34.7495 116.094 34.7715 116.391 34.8008C116.688 34.8301 116.984 34.8664 117.279 34.9098C117.574 34.9534 117.868 35.004 118.16 35.0617C118.453 35.1192 118.744 35.1838 119.033 35.2555C119.322 35.3271 119.609 35.4056 119.895 35.491C120.18 35.5764 120.463 35.6687 120.744 35.7677C121.024 35.8669 121.302 35.9727 121.578 36.0851C121.853 36.1975 122.126 36.3165 122.395 36.442C122.664 36.5676 122.93 36.6996 123.193 36.8379C123.456 36.9762 123.715 37.1208 123.97 37.2716C124.226 37.4224 124.477 37.5793 124.725 37.7421C124.973 37.9052 125.216 38.0739 125.455 38.2484C125.694 38.4231 125.929 38.6034 126.159 38.7894C126.389 38.9752 126.614 39.1665 126.834 39.3632C127.055 39.5601 127.27 39.762 127.48 39.969C127.691 40.1762 127.895 40.3883 128.095 40.6053C128.295 40.8222 128.489 41.0438 128.677 41.2701C128.866 41.4964 129.048 41.7271 129.225 41.9622C129.402 42.1973 129.573 42.4366 129.738 42.6799C129.903 42.9233 130.061 43.1704 130.214 43.4213C130.366 43.6723 130.512 43.9268 130.652 44.1847C130.791 44.4426 130.924 44.7038 131.051 44.9682C131.177 45.2326 131.297 45.4998 131.41 45.77C131.523 46.0401 131.629 46.3128 131.729 46.5881C131.828 46.8634 131.92 47.1409 132.006 47.4206C132.091 47.7003 132.169 47.9819 132.241 48.2653C132.312 48.5488 132.376 48.8338 132.433 49.1203C132.49 49.4069 132.54 49.6947 132.582 49.9837C132.624 50.2725 132.66 50.5623 132.688 50.853C132.715 51.1436 132.736 51.4347 132.749 51.7263C132.762 52.0179 132.768 52.3097 132.767 52.6016C132.765 52.8936 132.757 53.1852 132.741 53.4767C132.724 53.7682 132.701 54.0591 132.67 54.3494C132.64 54.6398 132.601 54.9293 132.556 55.2178C132.511 55.5064 132.458 55.7936 132.399 56.0795C132.339 56.3655 132.272 56.6499 132.198 56.9327C132.124 57.2155 132.043 57.4964 131.955 57.7754C131.867 58.0542 131.772 58.3307 131.67 58.605C131.568 58.8794 131.459 59.1511 131.343 59.42C131.228 59.6891 131.105 59.9553 130.976 60.2185C130.847 60.4818 130.711 60.7417 130.569 60.9983C130.427 61.2549 130.279 61.508 130.124 61.7575C129.969 62.007 129.808 62.2527 129.641 62.4944C129.474 62.7362 129.3 62.9738 129.121 63.2073C128.942 63.4407 128.757 63.6696 128.567 63.8941C128.376 64.1187 128.18 64.3385 127.978 64.5536C127.776 64.7687 127.569 64.9788 127.357 65.1839C127.145 65.389 126.927 65.5889 126.705 65.7836C126.483 65.9782 126.256 66.1674 126.024 66.3512C125.792 66.535 125.556 66.7131 125.315 66.8855C125.074 67.0578 124.829 67.2243 124.58 67.385C124.331 67.5455 124.078 67.7 123.821 67.8485C123.564 67.9968 123.303 68.1389 123.039 68.2749C122.775 68.4107 122.508 68.5402 122.237 68.6633C121.967 68.7863 121.693 68.9027 121.417 69.0125C121.14 69.1224 120.861 69.2255 120.58 69.3219C120.298 69.4183 120.014 69.5079 119.728 69.5907C119.442 69.6735 119.154 69.7494 118.864 69.8182C118.574 69.8871 118.283 69.949 117.989 70.0039C117.697 70.0587 117.402 70.1066 117.107 70.1473C116.811 70.1881 116.515 70.2217 116.218 70.2482C115.921 70.2745 115.623 70.2938 115.325 70.306C115.028 70.3181 114.731 70.3231 114.434 70.321C114.136 70.3188 113.839 70.3095 113.542 70.2932C113.245 70.2767 112.949 70.2532 112.653 70.2226C112.358 70.192 112.063 70.1543 111.769 70.1096C111.476 70.0648 111.183 70.0131 110.892 69.9544C110.601 69.8957 110.311 69.83 110.023 69.7573C109.735 69.6846 109.45 69.6051 109.166 69.5188C108.882 69.4325 108.6 69.3395 108.321 69.2396C108.042 69.1397 107.765 69.0332 107.491 68.9202C107.217 68.8071 106.946 68.6874 106.678 68.5613C106.411 68.4352 106.146 68.3027 105.885 68.1639C105.623 68.0251 105.366 67.8802 105.112 67.7291C104.858 67.578 104.608 67.4208 104.361 67.2577C104.115 67.0945 103.873 66.9256 103.636 66.7509C103.398 66.5761 103.165 66.3958 102.936 66.21C102.707 66.024 102.484 65.8327 102.265 65.6361C102.045 65.4394 101.831 65.2376 101.622 65.0308C101.413 64.8239 101.21 64.6121 101.011 64.3953C100.813 64.1786 100.62 63.9573 100.433 63.7315C100.246 63.5055 100.064 63.2752 99.8884 63.0407C99.7128 62.806 99.543 62.5673 99.3791 62.3245C99.2153 62.0817 99.0578 61.8352 98.9065 61.5849C98.755 61.3346 98.6099 61.0808 98.4711 60.8235C98.3324 60.5663 98.2002 60.3059 98.0745 60.0422C97.9489 59.7785 97.83 59.5121 97.7176 59.2428C97.6053 58.9734 97.4998 58.7016 97.4011 58.4273C97.3023 58.1529 97.2105 57.8763 97.1257 57.5975C97.0409 57.3186 96.9631 57.038 96.8922 56.7555C96.8215 56.473 96.7579 56.1889 96.7014 55.9034C96.6448 55.6178 96.5954 55.3311 96.5532 55.0433C96.5109 54.7553 96.4759 54.4665 96.4483 54.1768C96.4206 53.8872 96.4001 53.5972 96.3869 53.3066C96.3737 53.016 96.3677 52.7252 96.3691 52.4343C96.3704 52.1435 96.3791 51.8528 96.395 51.5623C96.411 51.2719 96.4342 50.982 96.4647 50.6926C96.4951 50.4033 96.5328 50.1149 96.5777 49.8274C96.6226 49.5397 96.6746 49.2534 96.7339 48.9684C96.7931 48.6834 96.8595 48.4 96.933 48.1181C97.0064 47.8361 97.0869 47.5562 97.1744 47.2783C97.2618 47.0002 97.3562 46.7245 97.4575 46.4511C97.5587 46.1776 97.6668 45.9067 97.7817 45.6385C97.8966 45.3701 98.0181 45.1046 98.1462 44.8422C98.2744 44.5797 98.409 44.3204 98.55 44.0644C98.6913 43.8084 98.8387 43.5559 98.9924 43.3069C99.1463 43.058 99.3062 42.8129 99.4722 42.5716C99.6383 42.3304 99.8102 42.0933 99.9882 41.8602C100.166 41.6272 100.35 41.3985 100.539 41.1743C100.729 40.9501 100.924 40.7305 101.124 40.5157C101.324 40.3007 101.53 40.0908 101.741 39.8858C101.952 39.6807 102.168 39.4808 102.389 39.2862C102.61 39.0915 102.835 38.9023 103.066 38.7185C103.296 38.5346 103.531 38.3563 103.77 38.1838C104.01 38.0112 104.253 37.8445 104.501 37.6836C104.748 37.5227 105 37.3678 105.255 37.2191C105.511 37.0702 105.77 36.9275 106.032 36.7911C106.295 36.6547 106.561 36.5247 106.83 36.4009C107.099 36.2772 107.371 36.1601 107.646 36.0496C107.921 35.9389 108.199 35.8349 108.479 35.7375C108.759 35.6402 109.041 35.5497 109.326 35.4658C109.611 35.3821 109.897 35.3052 110.186 35.2352C110.475 35.1651 110.765 35.102 111.057 35.0458C111.348 34.9897 111.641 34.9407 111.935 34.8986C112.23 34.8565 112.525 34.8215 112.82 34.7935C113.116 34.7656 113.413 34.7448 113.71 34.7311Z" fill="black"/>
<path d="M118.663 41.2095C119.251 41.179 120.156 41.0528 120.652 41.4171C120.848 41.5613 120.951 41.8038 120.989 42.0347C121.152 43.0232 121.145 44.6277 120.52 45.4611C119.793 46.4311 118.382 46.5397 117.266 46.7043L117.259 48.6511C117.905 48.6617 118.554 48.6063 119.2 48.5796C119.61 48.5626 120.181 48.4807 120.506 48.773C120.737 49.2936 120.772 49.8195 120.788 50.3799C120.809 51.1362 120.963 53.016 120.402 53.594C119.486 53.8441 118.262 53.6982 117.309 53.7017C117.297 55.4464 117.609 62.6534 117.069 63.7035C116.387 64.2273 115.559 64.0767 114.739 64.0558C113.892 64.0694 112.827 64.2008 112.048 63.8269C111.517 63.0809 111.761 55.2694 111.696 53.7165C110.951 53.6565 109.277 53.9334 108.757 53.4609C108.348 52.2678 108.337 50.1045 108.781 48.9138C109.327 48.4364 110.959 48.6544 111.697 48.6697C111.654 46.5531 111.727 44.533 113.34 42.9036C114.843 41.3856 116.656 41.2774 118.663 41.2095Z" fill="#FEFEFE"/>
<path d="M117.263 42.6366C118.019 42.5777 118.793 42.6033 119.552 42.6013C119.574 43.1078 119.674 43.8317 119.477 44.3014C118.824 45.8595 117.052 44.8169 116.253 45.2566C116.006 45.5616 115.926 45.8046 115.873 46.1906C115.761 47.0153 115.533 49.1431 116.141 49.7432C116.692 50.2866 118.571 50.0019 119.339 50.005L119.335 52.329C118.792 52.3533 116.493 52.1665 116.16 52.515C115.531 53.1745 115.817 61.1922 115.821 62.6349C114.984 62.7504 114.071 62.6802 113.224 62.6755C113.211 60.59 113.209 58.5046 113.219 56.4193C113.221 55.3308 113.325 54.146 113.168 53.0705C112.956 51.6294 110.88 52.7869 110.007 52.159C109.806 51.5543 109.929 50.6907 109.947 50.0469L113.126 50.0213C113.109 48.0301 112.785 45.6176 114.201 43.9902C115.018 43.0519 116.061 42.7522 117.263 42.6366Z" fill="black"/>
<path d="M184.006 52.3174C185.388 54.8643 186.355 57.4046 186.469 60.3133C186.656 65.061 185.169 69.4671 181.839 72.9847C178.58 76.4255 174.131 78.2935 169.355 78.4429C164.54 78.5937 160.004 76.821 156.518 73.5941C152.9 70.244 150.911 66.0277 150.82 61.1334C150.733 56.43 152.577 51.5496 155.939 48.1594C156.137 47.9579 156.34 47.7614 156.547 47.5699C156.755 47.3783 156.968 47.1919 157.185 47.0106C157.402 46.8292 157.623 46.6531 157.849 46.4825C158.075 46.3118 158.306 46.1467 158.54 45.9872C158.774 45.8276 159.012 45.6737 159.254 45.5257C159.496 45.3777 159.742 45.2356 159.991 45.0993C160.24 44.9631 160.493 44.8329 160.749 44.7089C161.004 44.5847 161.263 44.4669 161.525 44.3553C161.786 44.2436 162.051 44.1384 162.318 44.0397C162.585 43.9408 162.854 43.8484 163.126 43.7625C163.398 43.6767 163.671 43.5975 163.947 43.5248C164.223 43.4521 164.5 43.3861 164.779 43.3268C165.058 43.2676 165.338 43.215 165.62 43.1693C165.901 43.1235 166.184 43.0845 166.467 43.0523C166.751 43.0202 167.035 42.9949 167.32 42.9764C167.605 42.958 167.89 42.9464 168.176 42.9417C172.971 42.879 177.029 44.7427 180.4 47.9802L180.936 48.4898C181.42 48.8137 181.762 49.2958 182.128 49.738C182.62 50.3584 183.104 50.9758 183.548 51.6306L184.006 52.3174Z" fill="#FDBE50"/>
<path d="M178.545 55.2651C178.724 55.6549 179.001 56.0212 179.21 56.3997C180.458 58.6602 180.656 61.3324 179.917 63.7834C179.861 63.9668 179.8 64.1488 179.735 64.3294C179.67 64.5099 179.601 64.6888 179.527 64.8661C179.453 65.0434 179.374 65.2189 179.292 65.3925C179.209 65.566 179.122 65.7375 179.031 65.907C178.94 66.0763 178.845 66.2435 178.745 66.4084C178.646 66.5733 178.542 66.7358 178.435 66.8957C178.327 67.0558 178.216 67.2132 178.101 67.3678C177.985 67.5226 177.866 67.6745 177.743 67.8235C177.621 67.9726 177.494 68.1186 177.364 68.2616C177.234 68.4047 177.101 68.5445 176.963 68.6812C176.826 68.8179 176.686 68.9513 176.542 69.0813C176.399 69.2114 176.252 69.3379 176.102 69.4609C175.952 69.5841 175.799 69.7036 175.643 69.8194C175.488 69.9352 175.329 70.0472 175.168 70.1555C175.006 70.2638 174.842 70.3682 174.676 70.4687C174.509 70.5692 174.34 70.6656 174.169 70.758C174.006 70.8429 173.842 70.9238 173.675 71.0008C173.509 71.0777 173.34 71.1506 173.17 71.2195C173 71.2884 172.828 71.3531 172.655 71.4137C172.482 71.4745 172.307 71.531 172.131 71.5832C171.954 71.6355 171.777 71.6835 171.598 71.7273C171.42 71.7712 171.24 71.8107 171.059 71.8459C170.879 71.881 170.697 71.9118 170.515 71.9383C170.333 71.9648 170.15 71.987 169.967 72.0048C169.784 72.0224 169.6 72.0357 169.416 72.0447C169.232 72.0537 169.048 72.0583 168.864 72.0584C168.68 72.0585 168.496 72.0543 168.312 72.0456C168.128 72.0369 167.945 72.0238 167.761 72.0063C167.578 71.9888 167.395 71.967 167.213 71.9408C167.031 71.9144 166.849 71.8838 166.669 71.8489C166.488 71.8139 166.309 71.7747 166.13 71.7313C165.951 71.6878 165.774 71.6399 165.597 71.5879C162.634 70.7183 160.163 68.5843 158.711 65.9332C157.289 63.3362 157.018 60.0855 157.91 57.2761C158.806 54.4503 161.093 51.9894 163.75 50.6288C164.973 50.0027 166.924 49.2172 168.3 49.6314C168.232 52.4057 168.414 55.1737 168.439 57.9469C168.445 58.5968 168.265 59.9859 168.407 60.5229C168.43 60.6107 168.494 60.6831 168.538 60.7633C168.778 60.8273 168.794 60.8412 169.021 60.7185C169.912 60.2362 170.735 59.552 171.621 59.036C172.954 58.2592 174.422 57.6052 175.706 56.7626C176.499 56.43 177.392 55.9407 178.101 55.4582L178.545 55.2651Z" fill="#FEFEFE"/>
<path d="M180.398 47.9802L180.934 48.4898C181.418 48.8138 181.76 49.2958 182.126 49.7381C182.618 50.3585 183.102 50.9758 183.546 51.6307C181.975 52.5488 180.386 53.453 178.888 54.4826C178.578 54.715 178.207 54.9341 178.049 55.2934L178.099 55.4583C177.39 55.9408 176.498 56.4301 175.705 56.7627C174.421 57.6053 172.953 58.2593 171.619 59.0361C170.734 59.5521 169.911 60.2363 169.019 60.7185C168.792 60.8413 168.776 60.8273 168.536 60.7633C168.493 60.6832 168.429 60.6108 168.405 60.523C168.263 59.986 168.444 58.5969 168.438 57.947C168.413 55.1738 168.23 52.4058 168.299 49.6315C168.474 49.705 168.624 49.7913 168.787 49.8871C168.983 50.7103 168.858 51.7889 168.879 52.6417C168.927 54.4519 168.997 56.2613 169.087 58.0699C172.924 54.7845 176.541 51.2471 180.398 47.9802Z" fill="black"/>
<path d="M177.412 51.5105C178.123 51.7778 178.565 52.1037 179.071 52.6546L178.284 53.3993C177.48 54.1179 176.522 54.7246 175.754 55.4633C173.567 56.8124 171.519 58.6432 169.149 59.6884L169.036 59.6118L169.028 59.3651C169.586 58.1276 175.88 52.8082 177.412 51.5105Z" fill="#FEFEFE"/>
<path d="M182.127 49.738C182.619 50.3584 183.102 50.9757 183.546 51.6306C181.975 52.5487 180.387 53.4529 178.888 54.4825C178.764 54.0936 178.503 53.7436 178.283 53.3993L179.07 52.6546C180.145 51.7636 181.162 50.742 182.127 49.738Z" fill="#4075D7"/>
<path d="M180.935 48.49C181.419 48.814 181.761 49.296 182.127 49.7383C181.163 50.7423 180.146 51.7639 179.071 52.6549C178.565 52.104 178.123 51.778 177.412 51.5108L180.935 48.49Z" fill="#4075D7"/>
<path d="M178.283 53.3994C178.503 53.7437 178.764 54.0937 178.888 54.4826C178.578 54.715 178.208 54.9342 178.049 55.2935L178.099 55.4584C177.39 55.9408 176.498 56.4301 175.705 56.7627C176.001 56.2708 176.594 56.0543 177.093 55.7905L177.083 55.736C176.872 55.6563 176.822 55.6444 176.675 55.467C176.698 55.4098 176.811 55.1255 176.824 55.0728C176.837 55.0218 176.831 54.9677 176.84 54.9159C176.842 54.9055 176.851 54.8982 176.857 54.8892C176.579 55.0849 176.219 55.399 175.884 55.4575C175.841 55.4652 175.797 55.4614 175.753 55.4634C176.521 54.7247 177.478 54.118 178.283 53.3994Z" fill="#212021"/>
<path d="M178.888 54.4825C180.386 53.453 181.975 52.5487 183.545 51.6306L184.004 52.3174C182.064 52.995 180.33 54.2775 178.543 55.2652L178.099 55.4583L178.049 55.2934C178.207 54.9341 178.578 54.7149 178.888 54.4825Z" fill="black"/>
<path d="M58.6973 47.3012C58.9862 47.2773 59.2755 47.2605 59.5652 47.2506C59.8548 47.2406 60.1445 47.2377 60.4343 47.2418C60.7243 47.2458 61.0139 47.2567 61.3031 47.2747C61.5924 47.2926 61.8811 47.3175 62.1691 47.3493C62.4572 47.3811 62.7443 47.4198 63.0304 47.4654C63.3164 47.511 63.6012 47.5634 63.8847 47.6227C64.1682 47.682 64.45 47.7481 64.7302 47.8209C65.0104 47.8936 65.2885 47.9731 65.5646 48.0593C65.8407 48.1455 66.1146 48.2383 66.3862 48.3376C66.6577 48.437 66.9265 48.5429 67.1927 48.6552C67.4589 48.7674 67.722 48.886 67.9822 49.011C68.2425 49.1359 68.4995 49.267 68.753 49.4042C69.0068 49.5415 69.2569 49.6848 69.5033 49.834C69.7498 49.9833 69.9924 50.1384 70.2311 50.2994C70.4698 50.4604 70.7042 50.6269 70.9345 50.7991C71.1647 50.9714 71.3906 51.149 71.6121 51.3321C71.8335 51.5151 72.0501 51.7034 72.262 51.8969C72.4739 52.0903 72.6809 52.2888 72.8828 52.4923C73.0848 52.6957 73.2816 52.9038 73.4732 53.1167C73.6647 53.3296 73.8507 53.5469 74.0313 53.7686C74.2119 53.9905 74.3868 54.2166 74.556 54.4469C74.7254 54.677 74.8888 54.9112 75.0462 55.1494C75.2038 55.3874 75.3553 55.6291 75.5005 55.8744C75.646 56.1198 75.7851 56.3685 75.9179 56.6206C76.0508 56.8726 76.1773 57.1277 76.2973 57.3858C76.4175 57.6438 76.531 57.9047 76.638 58.1684C76.745 58.4319 76.8453 58.6978 76.9389 58.9662C77.0326 59.2347 77.1194 59.5052 77.1994 59.7777C77.2794 60.0504 77.3526 60.3247 77.4189 60.6007C77.4851 60.8768 77.5444 61.1543 77.5969 61.4332C77.6493 61.7122 77.6945 61.9923 77.7327 62.2734C77.7711 62.5545 77.8023 62.8363 77.8263 63.119C77.8504 63.4016 77.8674 63.6846 77.8773 63.968C77.8872 64.2514 77.8901 64.5349 77.8859 64.8186C77.8815 65.1021 77.8701 65.3854 77.8516 65.6685C77.833 65.9515 77.8073 66.2338 77.7747 66.5156C77.7419 66.7973 77.7021 67.0781 77.6553 67.358C77.6086 67.638 77.5547 67.9166 77.4938 68.1938C77.4331 68.4712 77.3654 68.7468 77.2908 69.0208C77.2161 69.2949 77.1345 69.567 77.0463 69.8372C76.958 70.1073 76.8629 70.3751 76.7611 70.6405C76.6595 70.9061 76.5511 71.1691 76.4361 71.4295C76.3212 71.6898 76.1998 71.9472 76.072 72.2018C75.944 72.4563 75.8098 72.7076 75.6693 72.9555C75.5288 73.2035 75.3822 73.4481 75.2294 73.6891C75.0766 73.9302 74.9179 74.1675 74.7532 74.4009C74.5885 74.6342 74.4181 74.8635 74.242 75.0886C74.0657 75.3138 73.884 75.5347 73.6968 75.7511C73.5094 75.9676 73.3167 76.1794 73.1188 76.3867C72.9209 76.5939 72.7179 76.7962 72.51 76.9937C72.3018 77.1911 72.0889 77.3834 71.8711 77.5706C71.6535 77.7579 71.4312 77.9398 71.2043 78.1164C70.9775 78.2928 70.7463 78.4638 70.5108 78.6293C70.2755 78.7947 70.036 78.9543 69.7926 79.1082C69.5491 79.2621 69.3018 79.4102 69.0508 79.5523C68.8 79.6943 68.5457 79.8302 68.2881 79.9599C68.0303 80.0898 67.7695 80.2134 67.5056 80.3307C67.2416 80.448 66.9749 80.5588 66.7054 80.6633C66.4359 80.7678 66.164 80.8657 65.8897 80.9571C65.6152 81.0484 65.3387 81.1332 65.06 81.2113C64.7813 81.2894 64.5008 81.3608 64.2185 81.4254C63.9364 81.4901 63.6528 81.548 63.3676 81.5989C63.0823 81.6499 62.7961 81.6941 62.5088 81.7313C62.2214 81.7685 61.9333 81.7988 61.6444 81.8222C61.3558 81.8456 61.0667 81.862 60.7772 81.8714C60.4879 81.881 60.1984 81.8836 59.9087 81.8792C59.6192 81.8748 59.3299 81.8634 59.0409 81.8452C58.752 81.8268 58.4636 81.8015 58.1758 81.7695C57.8881 81.7374 57.6014 81.6984 57.3156 81.6525C57.0299 81.6066 56.7454 81.5538 56.4622 81.4943C56.1792 81.4347 55.8977 81.3683 55.6179 81.2952C55.3381 81.2222 55.0604 81.1425 54.7845 81.0559C54.5087 80.9696 54.2352 80.8767 53.9641 80.7772C53.6929 80.6776 53.4244 80.5716 53.1585 80.4592C52.8928 80.3468 52.63 80.228 52.3701 80.1029C52.1102 79.9779 51.8537 79.8466 51.6004 79.7092C51.3471 79.5719 51.0974 79.4286 50.8512 79.2791C50.6052 79.1297 50.363 78.9746 50.1246 78.8136C49.8864 78.6526 49.6523 78.4861 49.4224 78.3139C49.1924 78.1416 48.9669 77.964 48.7458 77.7809C48.5248 77.5979 48.3084 77.4096 48.0968 77.2162C47.8852 77.0227 47.6786 76.8243 47.4769 76.6209C47.2752 76.4176 47.0788 76.2095 46.8877 75.9968C46.6965 75.784 46.5108 75.5668 46.3305 75.345C46.1502 75.1233 45.9755 74.8974 45.8064 74.6672C45.6374 74.4371 45.4743 74.2031 45.3171 73.9652C45.1598 73.7273 45.0086 73.4858 44.8635 73.2406C44.7184 72.9954 44.5795 72.7468 44.4468 72.4949C44.3142 72.2431 44.1879 71.9883 44.0681 71.7304C43.9482 71.4724 43.8349 71.2118 43.7281 70.9484C43.6213 70.685 43.5212 70.4192 43.4276 70.151C43.3341 69.8829 43.2474 69.6127 43.1675 69.3404C43.0877 69.068 43.0147 68.7939 42.9485 68.518C42.8823 68.2423 42.8231 67.9651 42.7707 67.6864C42.7185 67.4077 42.6733 67.128 42.6349 66.8471C42.5967 66.5662 42.5656 66.2846 42.5415 66.0022C42.5175 65.7199 42.5005 65.4371 42.4906 65.1541C42.4806 64.8708 42.4778 64.5876 42.482 64.3044C42.4863 64.021 42.4978 63.7379 42.5163 63.4551C42.5348 63.1724 42.5603 62.8903 42.593 62.6087C42.6256 62.3272 42.6652 62.0466 42.7119 61.7669C42.7586 61.4874 42.8123 61.2091 42.8729 60.932C42.9337 60.655 43.0013 60.3795 43.0757 60.1057C43.1502 59.8319 43.2315 59.56 43.3196 59.2902C43.4077 59.0204 43.5025 58.7527 43.604 58.4873C43.7056 58.222 43.8137 57.9593 43.9284 57.6992C44.0432 57.439 44.1644 57.1817 44.2921 56.9274C44.4196 56.6731 44.5535 56.422 44.6939 56.1741C44.834 55.9262 44.9803 55.6818 45.1328 55.4409C45.2853 55.2001 45.4438 54.9629 45.6082 54.7296C45.7725 54.4964 45.9426 54.2672 46.1184 54.0421C46.2944 53.817 46.4758 53.5962 46.6628 53.3798C46.8497 53.1635 47.0419 52.9518 47.2394 52.7446C47.437 52.5374 47.6396 52.3351 47.8473 52.1377C48.055 51.9402 48.2676 51.7479 48.4851 51.5607C48.7024 51.3734 48.9243 51.1915 49.1508 51.0149C49.3772 50.8384 49.608 50.6673 49.8431 50.5018C50.0781 50.3363 50.3172 50.1766 50.5602 50.0227C50.8034 49.8686 51.0502 49.7205 51.3006 49.5784C51.5511 49.4361 51.8051 49.3 52.0624 49.1701C52.3197 49.0402 52.5801 48.9164 52.8436 48.7989C53.1072 48.6814 53.3736 48.5704 53.6426 48.4656C53.9117 48.361 54.1833 48.2628 54.4574 48.1712C54.7315 48.0795 55.0076 47.9945 55.2858 47.916C55.5642 47.8378 55.8443 47.7661 56.1261 47.7011C56.4079 47.6362 56.6913 47.5781 56.9761 47.5267C57.2609 47.4754 57.5469 47.4309 57.834 47.3932C58.121 47.3557 58.4087 47.325 58.6973 47.3012Z" fill="#4075D7"/>
<path d="M59.4062 54.3347C59.5811 54.3208 59.7562 54.3112 59.9316 54.3057C60.1069 54.3003 60.2823 54.2991 60.4576 54.3022C60.633 54.3052 60.8082 54.3124 60.9833 54.3238C61.1583 54.3353 61.333 54.351 61.5073 54.3709C61.6816 54.3907 61.8552 54.4147 62.0282 54.4428C62.2013 54.4711 62.3735 54.5034 62.545 54.5399C62.7164 54.5764 62.8868 54.617 63.0562 54.6617C63.2257 54.7065 63.3938 54.7552 63.5606 54.8078C63.7277 54.8607 63.8932 54.9175 64.0573 54.9782C64.2214 55.039 64.3838 55.1037 64.5446 55.1722C64.7054 55.2408 64.8644 55.3132 65.0217 55.3894C65.1789 55.4656 65.334 55.5456 65.4871 55.6293C65.6403 55.713 65.7913 55.8003 65.9401 55.8913C66.0888 55.9822 66.2352 56.0767 66.3793 56.1747C66.5234 56.2727 66.6649 56.3741 66.8038 56.479C66.9426 56.5838 67.0788 56.6918 67.2124 56.8032C67.3459 56.9146 67.4765 57.0291 67.6042 57.1466C67.732 57.2643 67.8568 57.385 67.9785 57.5086C68.1001 57.6323 68.2186 57.7589 68.3338 57.8882C68.4491 58.0175 68.5611 58.1496 68.6699 58.2844C68.7785 58.4191 68.8837 58.5564 68.9855 58.6962C69.0873 58.836 69.1855 58.9781 69.2801 59.1226C69.3747 59.2672 69.4657 59.414 69.553 59.5629C69.6403 59.7118 69.7237 59.8627 69.8032 60.0156C69.8829 60.1684 69.9587 60.3231 70.0306 60.4797C70.1025 60.6364 70.1704 60.7946 70.2343 60.9544C70.2982 61.1142 70.3582 61.2755 70.4141 61.4382C70.4699 61.6009 70.5216 61.7649 70.5691 61.9302C70.6168 62.0954 70.6601 62.2617 70.6992 62.4289C70.7385 62.5962 70.7735 62.7643 70.8044 62.9332C70.8351 63.1023 70.8615 63.272 70.8838 63.4422C70.906 63.6124 70.924 63.7831 70.9377 63.9542C70.9514 64.1253 70.9607 64.2967 70.9657 64.4682C70.9708 64.6398 70.9715 64.8114 70.9679 64.9829C70.9643 65.1546 70.9564 65.326 70.9442 65.4972C70.9321 65.6684 70.9156 65.8393 70.8948 66.0099C70.8741 66.1802 70.849 66.35 70.8197 66.5192C70.7904 66.6884 70.7568 66.8568 70.7189 67.0244C70.6811 67.192 70.6392 67.3586 70.593 67.5243C70.5468 67.6898 70.4965 67.8542 70.4421 68.0174C70.3876 68.1805 70.3291 68.3423 70.2666 68.5027C70.204 68.6631 70.1375 68.8218 70.0669 68.979C69.9964 69.1361 69.922 69.2915 69.8436 69.4451C69.7652 69.5987 69.6831 69.7503 69.597 69.8997C69.5112 70.0494 69.4215 70.1969 69.3281 70.3423C69.2347 70.4875 69.1377 70.6304 69.0371 70.7711C68.9365 70.9117 68.8325 71.0499 68.7249 71.1856C68.6174 71.3212 68.5066 71.4542 68.3924 71.5844C68.2781 71.7147 68.1607 71.8422 68.04 71.9668C67.9194 72.0915 67.7958 72.2132 67.6692 72.3319C67.5424 72.4505 67.4128 72.5661 67.2803 72.6786C67.1476 72.791 67.0123 72.9002 66.8744 73.0061C66.7364 73.1121 66.5958 73.2146 66.4526 73.3138C66.3094 73.413 66.1638 73.5086 66.0159 73.6007C65.8677 73.693 65.7175 73.7815 65.5651 73.8664C65.4126 73.9513 65.2581 74.0326 65.1016 74.1101C64.945 74.1876 64.7866 74.2614 64.6265 74.3312C64.4662 74.4011 64.3043 74.4671 64.1408 74.5292C63.9772 74.5913 63.8121 74.6494 63.6456 74.7036C63.4791 74.7577 63.3115 74.8078 63.1426 74.8539C62.9735 74.8999 62.8034 74.9419 62.6323 74.9799C62.4612 75.0179 62.2892 75.0516 62.1164 75.0812C61.9436 75.1108 61.7702 75.1362 61.5962 75.1576C61.422 75.1789 61.2475 75.196 61.0726 75.2088C60.8983 75.2216 60.7238 75.2302 60.549 75.2348C60.3743 75.2392 60.1995 75.2394 60.0247 75.2355C59.85 75.2316 59.6755 75.2235 59.5012 75.2112C59.3267 75.199 59.1527 75.1826 58.9792 75.162C58.8058 75.1412 58.6329 75.1164 58.4605 75.0876C58.2882 75.0586 58.1167 75.0256 57.9462 74.9885C57.7755 74.9514 57.6059 74.9102 57.4373 74.8649C57.2687 74.8196 57.1014 74.7703 56.9353 74.717C56.7692 74.6638 56.6045 74.6065 56.4413 74.5453C56.278 74.4841 56.1164 74.4191 55.9565 74.3502C55.7965 74.2812 55.6383 74.2085 55.4819 74.132C55.3256 74.0554 55.1713 73.9752 55.019 73.8914C54.8666 73.8074 54.7166 73.7198 54.5687 73.6287C54.4207 73.5377 54.2752 73.4431 54.132 73.3449C53.9888 73.2469 53.8481 73.1455 53.7099 73.0406C53.5719 72.9357 53.4365 72.8276 53.3039 72.7164C53.1711 72.605 53.0412 72.4905 52.9143 72.3729C52.7873 72.2554 52.6634 72.1349 52.5425 72.0114C52.4216 71.888 52.3038 71.7617 52.1892 71.6325C52.0746 71.5033 51.9634 71.3715 51.8554 71.237C51.7474 71.1025 51.6428 70.9655 51.5416 70.826C51.4405 70.6866 51.343 70.5447 51.249 70.4005C51.1549 70.2563 51.0645 70.11 50.9778 69.9615C50.8911 69.8129 50.8081 69.6624 50.729 69.51C50.6499 69.3576 50.5746 69.2033 50.5032 69.0472C50.4318 68.8911 50.3643 68.7333 50.3006 68.574C50.2372 68.4146 50.1777 68.2539 50.1222 68.0917C50.0667 67.9296 50.0153 67.7662 49.9681 67.6016C49.9208 67.4369 49.8776 67.2712 49.8386 67.1045C49.7997 66.9378 49.7649 66.7702 49.7342 66.6018C49.7037 66.4335 49.6773 66.2645 49.6552 66.0948C49.6331 65.9252 49.6152 65.7551 49.6015 65.5846C49.5879 65.414 49.5785 65.2433 49.5736 65.0723C49.5685 64.9013 49.5677 64.7304 49.5713 64.5594C49.5748 64.3884 49.5825 64.2177 49.5946 64.0471C49.6066 63.8765 49.6229 63.7062 49.6435 63.5364C49.6641 63.3666 49.6889 63.1974 49.7179 63.0286C49.7471 62.86 49.7804 62.6922 49.8179 62.5252C49.8553 62.3582 49.8969 62.1921 49.9426 62.027C49.9885 61.862 50.0384 61.6981 50.0924 61.5355C50.1464 61.3728 50.2045 61.2115 50.2666 61.0518C50.3287 60.8918 50.3947 60.7335 50.4646 60.5768C50.5347 60.4201 50.6086 60.2652 50.6864 60.112C50.7641 59.9588 50.8457 59.8076 50.9309 59.6582C51.0163 59.509 51.1054 59.362 51.198 59.2171C51.2908 59.072 51.3871 58.9293 51.487 58.7889C51.5869 58.6485 51.6902 58.5107 51.7969 58.3753C51.9037 58.2399 52.0138 58.1071 52.1272 57.9769C52.2406 57.8469 52.3572 57.7195 52.4771 57.5949C52.5968 57.4704 52.7196 57.3488 52.8455 57.2301C52.9714 57.1115 53.1002 56.9959 53.2319 56.8833C53.3635 56.7709 53.4979 56.6617 53.635 56.5556C53.7722 56.4495 53.912 56.3468 54.0544 56.2475C54.1967 56.1482 54.3413 56.0523 54.4884 55.9599C54.6355 55.8675 54.7848 55.7787 54.9364 55.6935C55.0879 55.6083 55.2414 55.5267 55.3971 55.4488C55.5527 55.3709 55.7102 55.2968 55.8695 55.2265C56.0289 55.1562 56.1899 55.0898 56.3527 55.0272C56.5152 54.9645 56.6794 54.9058 56.8451 54.8511C57.0107 54.7964 57.1775 54.7457 57.3457 54.699C57.5138 54.6522 57.683 54.6095 57.8533 54.5708C58.0237 54.5323 58.1948 54.4978 58.3667 54.4673C58.5387 54.437 58.7115 54.4107 58.8849 54.3885C59.0581 54.3664 59.2319 54.3485 59.4062 54.3347Z" fill="#FEFEFE"/>
<path d="M59.0801 55.8078C59.231 55.7891 59.3822 55.7741 59.5338 55.763C59.6855 55.7516 59.8373 55.7439 59.9892 55.7398C60.1413 55.7358 60.2933 55.7355 60.4454 55.7389C60.5974 55.7421 60.7493 55.7491 60.9011 55.7599C61.0527 55.7705 61.2039 55.7847 61.3549 55.8027C61.5059 55.8206 61.6563 55.8422 61.8061 55.8674C61.956 55.8925 62.1052 55.9213 62.2537 55.9537C62.4021 55.986 62.5496 56.022 62.6963 56.0616C62.8428 56.101 62.9883 56.144 63.1328 56.1905C63.2772 56.237 63.4203 56.2869 63.5623 56.3403C63.7043 56.3937 63.8448 56.4505 63.9839 56.5107C64.1229 56.5709 64.2603 56.6344 64.3963 56.7012C64.5321 56.768 64.6662 56.838 64.7985 56.9113C64.9309 56.9846 65.0613 57.061 65.1899 57.1406C65.3183 57.22 65.4447 57.3026 65.5691 57.3882C65.6935 57.474 65.8156 57.5627 65.9355 57.6542C66.0553 57.7457 66.1729 57.84 66.288 57.9371C66.4031 58.0344 66.5157 58.1343 66.6258 58.237C66.7358 58.3396 66.8433 58.4448 66.9481 58.5526C67.0529 58.6604 67.155 58.7706 67.2542 58.8835C67.3535 58.9962 67.4498 59.1112 67.5432 59.2284C67.6368 59.3459 67.7272 59.4654 67.8146 59.5871C67.902 59.7089 67.9863 59.8327 68.0675 59.9585C68.1487 60.0842 68.2267 60.2118 68.3014 60.3415C68.3763 60.4709 68.4478 60.6022 68.5159 60.7352C68.5841 60.8682 68.6488 61.0028 68.7102 61.1389C68.7715 61.275 68.8295 61.4125 68.8841 61.5516C68.9385 61.6905 68.9894 61.8305 69.0368 61.9718C69.0842 62.1132 69.128 62.2556 69.1683 62.3991C69.2085 62.5425 69.245 62.6869 69.278 62.8323C69.3109 62.9775 69.3402 63.1234 69.3659 63.27C69.3915 63.4167 69.4134 63.5639 69.4316 63.7116C69.4498 63.8593 69.4642 64.0074 69.4749 64.1559C69.4857 64.3042 69.4927 64.4527 69.4959 64.6015C69.4992 64.7502 69.4987 64.899 69.4945 65.0477C69.4903 65.1963 69.4823 65.3449 69.4706 65.4933C69.4589 65.6416 69.4435 65.7896 69.4244 65.9372C69.4051 66.0847 69.3823 66.2318 69.3558 66.3783C69.3292 66.5247 69.2989 66.6705 69.2651 66.8156C69.2311 66.9606 69.1935 67.1047 69.1523 67.2479C69.1113 67.3911 69.0665 67.5332 69.0181 67.6743C68.9698 67.8154 68.918 67.9553 68.8627 68.0939C68.8073 68.2323 68.7485 68.3695 68.6862 68.5053C68.624 68.6409 68.5583 68.775 68.4893 68.9076C68.4203 69.0402 68.3479 69.171 68.2723 69.3002C68.1967 69.4293 68.1178 69.5564 68.0359 69.6816C67.9539 69.807 67.8688 69.9302 67.7805 70.0513C67.6922 70.1725 67.601 70.2916 67.5069 70.4084C67.4126 70.5251 67.3155 70.6395 67.2157 70.7516C67.1156 70.8637 67.0129 70.9733 66.9073 71.0804C66.8019 71.1877 66.6937 71.2922 66.5829 71.394C66.4722 71.496 66.359 71.5953 66.2432 71.6918C66.1274 71.7883 66.0092 71.8819 65.8888 71.9727C65.7683 72.0635 65.6457 72.1513 65.5208 72.2362C65.3959 72.321 65.2689 72.4028 65.1398 72.4817C65.0108 72.5604 64.8799 72.6359 64.7471 72.7083C64.6143 72.7809 64.4798 72.8501 64.3435 72.916C64.2071 72.9819 64.0692 73.0445 63.9298 73.1038C63.7904 73.1631 63.6495 73.219 63.5073 73.2716C63.365 73.3241 63.2214 73.3732 63.0766 73.4188C62.9319 73.4644 62.7861 73.5065 62.6392 73.545C62.4923 73.5836 62.3445 73.6186 62.1959 73.6501C62.0473 73.6816 61.898 73.7094 61.7479 73.7337C61.598 73.7578 61.4474 73.7784 61.2963 73.7955C61.1462 73.8124 60.9958 73.8257 60.8451 73.8355C60.6944 73.845 60.5436 73.8511 60.3926 73.8536C60.2416 73.8561 60.0907 73.8549 59.9398 73.85C59.7888 73.8453 59.6381 73.837 59.4875 73.8251C59.3371 73.813 59.1871 73.7974 59.0373 73.7783C58.8875 73.7592 58.7383 73.7364 58.5897 73.7101C58.4411 73.6838 58.2933 73.6539 58.1462 73.6205C57.9991 73.5871 57.8529 73.5502 57.7077 73.5099C57.5624 73.4695 57.4182 73.4256 57.2752 73.3784C57.132 73.3312 56.9902 73.2805 56.8498 73.2263C56.7091 73.1723 56.57 73.1149 56.4324 73.0542C56.2948 72.9934 56.1588 72.9294 56.0243 72.8622C55.8897 72.7949 55.757 72.7245 55.6262 72.6509C55.4952 72.5774 55.3662 72.5007 55.2391 72.421C55.112 72.3411 54.9869 72.2583 54.8639 72.1727C54.7409 72.0869 54.6201 71.9983 54.5016 71.9067C54.3831 71.8152 54.267 71.7209 54.1531 71.6238C54.0393 71.5267 53.928 71.4269 53.8192 71.3245C53.7104 71.2221 53.6041 71.1171 53.5005 71.0096C53.3969 70.902 53.296 70.7921 53.198 70.6798C53.0999 70.5674 53.0047 70.4528 52.9124 70.336C52.82 70.219 52.7306 70.1 52.6442 69.9789C52.5578 69.8577 52.4745 69.7345 52.3942 69.6094C52.3141 69.4842 52.237 69.3572 52.163 69.2283C52.0891 69.0994 52.0185 68.9689 51.9512 68.8368C51.8838 68.7045 51.8198 68.5707 51.7592 68.4355C51.6984 68.3002 51.6411 68.1635 51.5873 68.0255C51.5334 67.8874 51.4831 67.7482 51.4364 67.6077C51.3895 67.4673 51.3461 67.3258 51.3062 67.1832C51.2665 67.0407 51.2303 66.8973 51.1977 66.7531C51.1651 66.6089 51.136 66.464 51.1106 66.3183C51.0852 66.1726 51.0635 66.0265 51.0454 65.8798C51.0274 65.7331 51.013 65.586 51.0023 65.4386C50.9915 65.2913 50.9844 65.1438 50.9811 64.9961C50.9778 64.8484 50.9782 64.7006 50.9823 64.5529C50.9863 64.4053 50.9941 64.2578 51.0055 64.1104C51.0169 63.9631 51.032 63.8162 51.0506 63.6697C51.0694 63.523 51.0919 63.3769 51.1181 63.2313C51.1441 63.0858 51.1738 62.941 51.2072 62.797C51.2404 62.6529 51.2773 62.5097 51.3177 62.3673C51.3583 62.225 51.4024 62.0838 51.4499 61.9435C51.4974 61.8033 51.5484 61.6643 51.6029 61.5264C51.6574 61.3887 51.7153 61.2523 51.7766 61.1172C51.8379 60.9823 51.9026 60.8488 51.9706 60.7169C52.0385 60.5849 52.1098 60.4547 52.1844 60.3262C52.2589 60.1978 52.3365 60.0711 52.4174 59.9462C52.4982 59.8214 52.582 59.6986 52.669 59.5778C52.756 59.4572 52.8461 59.3386 52.939 59.222C53.0318 59.1057 53.1275 58.9915 53.2262 58.8795C53.3248 58.7677 53.4262 58.6582 53.5303 58.5511C53.6343 58.4441 53.741 58.3397 53.8504 58.2377C53.9597 58.1357 54.0715 58.0365 54.1858 57.94C54.3001 57.8435 54.4167 57.7497 54.5357 57.6586C54.6547 57.5677 54.7758 57.4796 54.8991 57.3944C55.0226 57.3092 55.1481 57.227 55.2756 57.1479C55.403 57.0686 55.5323 56.9924 55.6636 56.9194C55.7949 56.8465 55.9279 56.7767 56.0627 56.71C56.1976 56.6433 56.334 56.58 56.4719 56.52C56.6098 56.4599 56.7491 56.4031 56.8899 56.3496C57.0308 56.2962 57.1729 56.2462 57.316 56.1995C57.4594 56.153 57.6037 56.1099 57.7492 56.0702C57.8948 56.0305 58.0412 55.9942 58.1884 55.9614C58.3356 55.9287 58.4836 55.8996 58.6323 55.874C58.7811 55.8484 58.9303 55.8263 59.0801 55.8078Z" fill="#4075D7"/>
<path d="M59.8282 65.8146C60.1402 65.7932 60.458 65.8113 60.77 65.8247C62.158 65.8847 63.7031 66.2432 64.6528 67.3076C65.6465 68.4217 65.4732 69.7738 65.3943 71.1377C63.9011 71.4173 62.2636 71.2946 60.7477 71.2895C59.1115 71.2851 56.8126 71.5211 55.3135 70.8881C55.1132 70.6341 55.0654 70.4134 55.0239 70.1028C54.8971 69.1503 55.0893 68.2505 55.723 67.5007C56.7419 66.2957 58.3123 65.9311 59.8282 65.8146Z" fill="#FEFEFE"/>
<path d="M59.9384 58.9305C59.9851 58.9275 60.0319 58.9257 60.0787 58.925C60.1256 58.9242 60.1724 58.9245 60.2192 58.9258C60.2661 58.9273 60.3129 58.9299 60.3595 58.9336C60.4063 58.9372 60.4529 58.9419 60.4994 58.9477C60.5459 58.9536 60.5922 58.9606 60.6383 58.9687C60.6845 58.9766 60.7304 58.9856 60.776 58.9958C60.8217 59.0059 60.8671 59.0172 60.9122 59.0296C60.9575 59.0419 61.0023 59.0552 61.0467 59.0695C61.0912 59.0839 61.1353 59.0994 61.1791 59.1159C61.2228 59.1323 61.2662 59.1499 61.309 59.1684C61.3519 59.1869 61.3942 59.2064 61.436 59.2269C61.478 59.2475 61.5194 59.269 61.5603 59.2913C61.6011 59.3138 61.6413 59.3373 61.681 59.3617C61.7207 59.386 61.7598 59.4112 61.7983 59.4374C61.8368 59.4636 61.8746 59.4907 61.9118 59.5186C61.9489 59.5466 61.9853 59.5754 62.021 59.6052C62.0568 59.6347 62.0917 59.6652 62.1259 59.6965C62.1601 59.7279 62.1936 59.76 62.2262 59.793C62.2589 59.8258 62.2907 59.8594 62.3217 59.8938C62.3527 59.9281 62.3828 59.9632 62.4121 59.9991C62.4413 60.0349 62.4697 60.0713 62.4972 60.1084C62.5247 60.1456 62.5512 60.1834 62.5768 60.2218C62.6024 60.2601 62.627 60.299 62.6508 60.3386C62.6746 60.3781 62.6973 60.4182 62.7189 60.4588C62.7407 60.4994 62.7615 60.5406 62.7812 60.5822C62.8009 60.6237 62.8196 60.6657 62.8374 60.7082C62.855 60.7506 62.8716 60.7934 62.8872 60.8367C62.9027 60.8799 62.9171 60.9236 62.9305 60.9676C62.9441 61.0114 62.9564 61.0556 62.9675 61.1002C62.9788 61.1446 62.989 61.1894 62.998 61.2344C63.0071 61.2793 63.0151 61.3244 63.0219 61.3699C63.0287 61.4152 63.0344 61.4607 63.039 61.5063C63.0437 61.5519 63.0472 61.5976 63.0494 61.6434C63.0518 61.6891 63.0531 61.7349 63.0532 61.7809C63.0532 61.8268 63.0522 61.8726 63.0501 61.9183C63.048 61.9641 63.0447 62.0098 63.0404 62.0554C63.036 62.1012 63.0305 62.1467 63.0239 62.192C63.0171 62.2373 63.0094 62.2825 63.0007 62.3275C62.9918 62.3726 62.9818 62.4174 62.9707 62.4619C62.9597 62.5065 62.9476 62.5508 62.9344 62.5948C62.9211 62.6388 62.9068 62.6824 62.8915 62.7257C62.8762 62.7691 62.8598 62.8121 62.8423 62.8546C62.8249 62.8971 62.8064 62.9392 62.7868 62.9808C62.7673 63.0225 62.7467 63.0637 62.7252 63.1044C62.7036 63.1452 62.681 63.1853 62.6576 63.2249C62.634 63.2646 62.6094 63.3037 62.584 63.3421C62.5586 63.3807 62.5322 63.4185 62.5048 63.4558C62.4776 63.493 62.4494 63.5296 62.4202 63.5655C62.3912 63.6015 62.3613 63.6367 62.3305 63.6712C62.2996 63.7058 62.268 63.7395 62.2355 63.7725C62.203 63.8056 62.1697 63.8379 62.1356 63.8694C62.1014 63.9009 62.0666 63.9315 62.0311 63.9612C61.9955 63.991 61.9591 64.02 61.9222 64.0481C61.8852 64.0762 61.8475 64.1035 61.8091 64.13C61.7708 64.1564 61.7318 64.1817 61.6923 64.2062C61.6527 64.2307 61.6126 64.2543 61.5718 64.277C61.5311 64.2997 61.4898 64.3213 61.448 64.3419C61.4062 64.3626 61.3638 64.3824 61.321 64.401C61.2783 64.4197 61.235 64.4375 61.1913 64.4542C61.1476 64.4709 61.1037 64.4865 61.0593 64.501C61.0149 64.5156 60.9702 64.5291 60.9251 64.5416C60.8799 64.5541 60.8345 64.5656 60.7888 64.5761C60.7432 64.5864 60.6974 64.5956 60.6512 64.6039C60.6052 64.6121 60.5589 64.6192 60.5125 64.6253C60.4478 64.6337 60.3829 64.6399 60.3178 64.644C60.2527 64.6483 60.1875 64.6504 60.1222 64.6502C60.0571 64.6501 59.992 64.6479 59.9269 64.6436C59.8617 64.6392 59.7968 64.6327 59.7322 64.6242C59.6675 64.6155 59.6032 64.6048 59.5393 64.592C59.4754 64.5792 59.412 64.5643 59.3491 64.5474C59.2863 64.5303 59.2241 64.5112 59.1626 64.4902C59.1009 64.4692 59.0401 64.4461 58.9801 64.4211C58.9201 64.3961 58.861 64.3692 58.8028 64.3403C58.7446 64.3115 58.6874 64.2808 58.6313 64.2481C58.5752 64.2154 58.5203 64.181 58.4666 64.1448C58.4129 64.1086 58.3605 64.0707 58.3094 64.0311C58.2583 63.9914 58.2086 63.9501 58.1603 63.9071C58.112 63.8643 58.0652 63.8199 58.02 63.774C57.9747 63.728 57.931 63.6805 57.8889 63.6317C57.8469 63.583 57.8066 63.5329 57.768 63.4814C57.7293 63.4299 57.6926 63.3772 57.6577 63.3233C57.6226 63.2695 57.5895 63.2145 57.5582 63.1585C57.5269 63.1026 57.4976 63.0456 57.4702 62.9877C57.443 62.9297 57.4177 62.8709 57.3942 62.8113C57.3709 62.7517 57.3497 62.6914 57.3306 62.6303C57.3113 62.5694 57.2942 62.5078 57.2791 62.4456C57.2641 62.3835 57.2512 62.321 57.2406 62.258C57.2299 62.195 57.2213 62.1318 57.2149 62.0684C57.2085 62.0049 57.2043 61.9412 57.2022 61.8775C57.2001 61.8137 57.2003 61.7498 57.2027 61.6859C57.2049 61.6222 57.2094 61.5586 57.216 61.495C57.2227 61.4316 57.2316 61.3684 57.2426 61.3055C57.2536 61.2426 57.2667 61.1802 57.2818 61.1181C57.297 61.056 57.3144 60.9945 57.334 60.9336C57.3534 60.8727 57.3749 60.8125 57.3985 60.753C57.4221 60.6934 57.4477 60.6347 57.4752 60.5769C57.5027 60.5191 57.5323 60.4622 57.5638 60.4063C57.5953 60.3504 57.6286 60.2956 57.6638 60.2419C57.699 60.1882 57.736 60.1357 57.7748 60.0843C57.8136 60.033 57.8541 59.983 57.8963 59.9345C57.9386 59.8858 57.9824 59.8385 58.0279 59.7928C58.0733 59.7469 58.1203 59.7026 58.1689 59.6599C58.2173 59.6172 58.2671 59.5762 58.3184 59.5367C58.3697 59.4973 58.4223 59.4596 58.4761 59.4235C58.5301 59.3875 58.5851 59.3533 58.6412 59.3209C58.6975 59.2885 58.7548 59.258 58.8131 59.2293C58.8713 59.2006 58.9305 59.1739 58.9907 59.1492C59.0508 59.1243 59.1117 59.1015 59.1734 59.0808C59.235 59.06 59.2974 59.0413 59.3604 59.0245C59.4233 59.0077 59.4867 58.9931 59.5508 58.9806C59.6147 58.9681 59.679 58.9576 59.7437 58.9492C59.8083 58.9408 59.8732 58.9346 59.9384 58.9305Z" fill="#FEFEFE"/>
</svg>
