<svg width="45" height="45" viewBox="0 0 45 45" fill="none" xmlns="http://www.w3.org/2000/svg">
<path fill-rule="evenodd" clip-rule="evenodd" d="M7.03125 0H37.9688C41.852 0 45 3.148 45 7.03125V37.9688C45 41.852 41.852 45 37.9688 45H7.03125C3.148 45 0 41.852 0 37.9688V7.03125C0 3.148 3.148 0 7.03125 0ZM23.4729 16.8854C21.4578 17.7235 17.4303 19.4584 11.3905 22.0898C10.4097 22.4798 9.89597 22.8614 9.8492 23.2344C9.77016 23.865 10.5597 24.1132 11.6349 24.4513C11.7812 24.4973 11.9327 24.545 12.0881 24.5955C13.1459 24.9393 14.5689 25.3416 15.3087 25.3576C15.9797 25.3721 16.7286 25.0954 17.5555 24.5277C23.1986 20.7184 26.1117 18.793 26.2945 18.7515C26.4236 18.7222 26.6024 18.6854 26.7235 18.793C26.8446 18.9007 26.8327 19.1046 26.8199 19.1593C26.7417 19.4928 23.6423 22.3743 22.0383 23.8654C21.5383 24.3303 21.1836 24.6601 21.1111 24.7354C20.9487 24.9041 20.7832 25.0636 20.6241 25.217C19.6413 26.1644 18.9043 26.8748 20.6649 28.035C21.5109 28.5925 22.1879 29.0536 22.8633 29.5135C23.6009 30.0158 24.3366 30.5168 25.2885 31.1408C25.531 31.2998 25.7626 31.4649 25.9882 31.6257C26.8466 32.2377 27.6178 32.7875 28.5706 32.6998C29.1242 32.6489 29.696 32.1283 29.9865 30.5757C30.6728 26.9065 32.022 18.9564 32.3337 15.6803C32.3611 15.3933 32.3267 15.026 32.2991 14.8647C32.2715 14.7035 32.2138 14.4737 32.0042 14.3037C31.756 14.1022 31.3728 14.0598 31.2014 14.0626C30.4222 14.0765 29.2266 14.4922 23.4729 16.8854Z" fill="white"/>
</svg>
