<svg width="168" height="168" viewBox="0 0 168 168" fill="none" xmlns="http://www.w3.org/2000/svg">
<path d="M42.1509 98.0534C40.8057 97.0197 38.9999 96.2431 37.4764 95.513C31.4647 92.6554 25.2626 90.2166 18.9145 88.2141C17.3402 87.7303 15.7603 87.2653 14.175 86.819C13.1928 86.5473 12.0081 86.3473 11.099 85.9033C10.8662 85.7896 10.6926 85.701 10.639 85.4237C10.6182 85.3157 10.6324 85.1733 10.6986 85.0832C11.0279 84.6345 11.9287 84.2991 12.4323 84.0636C53.5178 64.5824 94.7245 45.358 136.05 26.3917L151.472 19.1521C153.856 18.0021 156.246 16.8668 158.643 15.7463C159.511 15.3351 161.397 14.2374 162.262 14.1272C162.464 14.1015 162.488 14.1391 162.644 14.2532C162.997 15.0658 161.839 17.6057 161.512 18.5153C160.724 20.4817 160.077 22.5084 159.346 24.496C157.097 30.6428 154.898 36.807 152.746 42.9882L135.512 92.7003L119.989 136.452L115.465 149.052C114.91 150.627 114.259 152.203 113.786 153.8C113.453 155.015 112.871 156.392 112.248 157.488C110.576 155.713 108.64 154.122 106.858 152.456L95.3847 141.781L84.3175 131.481C82.8066 130.096 81.3397 128.596 79.7509 127.306C78.9077 126.585 78.1095 125.816 77.3055 125.052C75.6793 126.669 73.9356 128.153 72.2259 129.679C68.9149 132.596 65.6405 135.554 62.4034 138.553C61.8153 139.106 61.1699 139.618 60.5994 140.184C59.2219 141.226 56.9555 144 55.6135 144.686C55.3401 144.826 55.1289 144.876 54.8292 144.772C54.6298 144.56 54.5361 144.315 54.4595 144.037C53.3925 140.161 52.5435 136.216 51.5518 132.32C49.3561 123.475 47.0401 114.66 44.6045 105.878C43.9009 103.235 43.0823 100.625 42.1509 98.0534ZM156.596 17.9007C155.175 18.4151 153.869 19.2135 152.493 19.8375C147.882 21.9288 143.339 24.161 138.735 26.2673C123.186 33.3391 107.689 40.5283 92.2484 47.8343L34.2286 74.9889L22.245 80.6792C19.023 82.1721 15.7259 83.5901 12.5961 85.2696C14.874 85.8526 17.1196 86.481 19.3618 87.192C20.1846 87.453 21.0466 87.6821 21.8478 87.9971C27.0273 89.8169 32.1234 91.727 37.0895 94.0794C38.8781 94.9267 40.7532 95.7822 42.3863 96.9098C50.2397 91.2915 58.3831 86.0651 66.3348 80.5847L154.967 19.0484C155.225 18.8719 156.568 18.1012 156.617 17.9092L156.596 17.9007ZM157.089 19.0427C138.163 34.1036 119.613 49.6323 101.458 65.6143L78.5674 85.4162L56.5741 104.857C54.6831 106.534 52.7599 108.195 50.8404 109.84C49.7353 110.787 48.5477 111.706 47.5256 112.741C49.6608 120.623 51.5837 128.558 53.6891 136.446C53.9668 137.647 54.2862 138.836 54.5735 140.034C54.7816 140.901 54.9499 141.788 55.2157 142.64C57.0506 136.084 59.1349 129.574 61.172 123.077C61.5955 121.726 62.6297 117.805 63.2427 116.855C63.7653 116.045 64.6247 115.328 65.3019 114.646C66.1837 113.754 67.0582 112.855 67.9255 111.95L81.2418 98.2026L137.969 38.8635C142.831 33.7388 147.623 28.5716 152.595 23.5508C153.109 23.0315 156.976 19.4301 157.082 19.1357C157.092 19.1065 157.087 19.0737 157.089 19.0427ZM157.926 19.5216C156.737 20.6626 155.611 21.8614 154.452 23.0326C149.503 28.0343 144.754 33.2049 139.886 38.2809L103.043 76.939L75.5036 105.557L68.5723 112.746C67.2489 114.107 65.8671 115.422 64.6047 116.839C68.4453 118.209 72.2113 119.948 75.5592 122.297C77.5751 123.711 79.3773 125.463 81.1853 127.127C83.4764 129.218 85.7535 131.325 88.0165 133.446C94.8294 139.676 101.589 145.963 108.295 152.307C109.489 153.429 110.667 154.671 111.943 155.694C112.227 154.939 112.468 154.142 112.8 153.409L112.719 153.316C111.828 152.297 110.728 151.398 109.74 150.471L103.213 144.405L80.909 123.785C79.8668 122.818 78.8472 121.766 77.7462 120.869C76.4964 119.85 75.0655 119.176 74.0178 117.898C73.1185 116.801 72.6008 115.211 72.687 113.789C72.7647 112.504 73.2908 111.322 74.1184 110.345C75.8114 108.347 77.8867 106.42 79.6976 104.497L92.0535 91.557C93.3128 90.2562 94.614 88.9956 95.8674 87.6897L122.82 59.1647C128.47 53.2535 134.043 47.2687 139.536 41.2119C140.636 40.0046 141.788 38.8465 142.876 37.6277C145.76 34.3963 148.549 31.0586 151.321 27.7304C153.435 25.1935 155.468 22.5635 157.639 20.0787C157.759 19.941 158.03 19.6952 157.926 19.5216ZM145.848 26.5019C140.352 30.4622 134.819 34.3699 129.249 38.2245L85.8063 68.2805C75.6253 75.4803 65.3806 82.5895 55.0736 89.6076C51.1273 92.2667 47.2615 95.1 43.1883 97.5635C43.8678 99.5408 44.5404 101.51 45.1189 103.519C45.5831 105.132 45.9623 106.779 46.4447 108.383C46.6898 109.413 46.8878 110.497 47.2752 111.483C48.4309 110.599 49.5085 109.581 50.6154 108.633C53.8053 105.902 56.9113 103.075 60.0751 100.314L90.6537 73.4962C101.815 63.7499 113.046 54.0839 124.347 44.4995L139.153 32.1525C141.381 30.2997 143.762 28.5567 145.891 26.5946C145.879 26.5628 145.876 26.5211 145.848 26.5019Z" fill="#080717"/>
<path d="M161.512 18.5152C163.383 18.1469 165.137 17.2871 166.902 16.5968C165.209 21.0944 163.72 25.6586 162.124 30.1898C157.713 42.6391 153.417 55.1289 149.236 67.6574L130.198 121.946L122.938 142.431C121.856 145.64 120.743 148.838 119.599 152.025C119.001 153.74 118.461 155.464 117.779 157.151C116.391 156.103 115.138 154.89 113.786 153.8C114.259 152.203 114.911 150.627 115.465 149.052L119.989 136.452L135.512 92.7002L152.746 42.9881C154.898 36.8069 157.097 30.6427 159.346 24.4959C160.077 22.5083 160.724 20.4816 161.512 18.5152Z" fill="#4075D7"/>
<path d="M12.5961 85.2696C15.7259 83.5901 19.0229 82.1721 22.245 80.6791L34.2285 74.9888L92.2484 47.8342C107.689 40.5282 123.185 33.3391 138.735 26.2672C143.339 24.1609 147.882 21.9288 152.493 19.8374C153.869 19.2134 155.175 18.415 156.596 17.9006L156.617 17.9092C156.568 18.1011 155.225 18.8718 154.967 19.0484L66.3347 80.5846C58.3831 86.065 50.2396 91.2915 42.3863 96.9097C40.7532 95.7822 38.8781 94.9267 37.0894 94.0794C32.1234 91.7269 27.0272 89.8169 21.8477 87.9971C21.0465 87.6821 20.1846 87.453 19.3617 87.1919C17.1196 86.481 14.8739 85.8526 12.5961 85.2696Z" fill="#F8F7FE"/>
<path d="M47.5256 112.74C48.5477 111.706 49.7353 110.787 50.8404 109.84C52.76 108.195 54.6831 106.534 56.5742 104.857L78.5674 85.4161L101.458 65.6142C119.613 49.6322 138.163 34.1035 157.089 19.0426C157.087 19.0736 157.092 19.1064 157.082 19.1356C156.976 19.43 153.109 23.0314 152.595 23.5507C147.623 28.5715 142.831 33.7388 137.969 38.8635L81.2418 98.2025L67.9255 111.95C67.0582 112.855 66.1837 113.754 65.3019 114.646C64.6247 115.328 63.7653 116.045 63.2427 116.855C62.6297 117.805 61.5955 121.726 61.172 123.077C59.135 129.574 57.0506 136.084 55.2157 142.64C54.9499 141.788 54.7816 140.901 54.5735 140.034C54.2862 138.836 53.9668 137.647 53.6891 136.446C51.5837 128.558 49.6608 120.623 47.5256 112.74Z" fill="#F8F7FE"/>
<path d="M64.6047 116.839C65.8672 115.422 67.2489 114.107 68.5724 112.746L75.5036 105.557L103.043 76.9389L139.886 38.2809C144.754 33.2049 149.503 28.0342 154.452 23.0326C155.611 21.8614 156.737 20.6626 157.926 19.5216C158.03 19.6952 157.759 19.941 157.639 20.0787C155.468 22.5635 153.435 25.1935 151.321 27.7304C148.549 31.0586 145.76 34.3963 142.876 37.6277C141.788 38.8465 140.636 40.0045 139.536 41.2118C134.043 47.2687 128.47 53.2535 122.82 59.1646L95.8674 87.6896C94.614 88.9955 93.3128 90.2562 92.0535 91.557L79.6976 104.496C77.8867 106.42 75.8114 108.347 74.1184 110.345C73.2908 111.322 72.7648 112.504 72.687 113.789C72.6008 115.211 73.1185 116.801 74.0178 117.898C75.0655 119.176 76.4964 119.85 77.7462 120.869C78.8472 121.766 79.8668 122.818 80.909 123.785L103.213 144.405L109.74 150.471C110.728 151.398 111.828 152.297 112.719 153.316L112.8 153.409C112.468 154.142 112.227 154.939 111.943 155.694C110.667 154.671 109.489 153.429 108.295 152.307C101.589 145.963 94.8294 139.676 88.0165 133.446C85.7535 131.325 83.4764 129.218 81.1853 127.127C79.3773 125.463 77.5751 123.711 75.5592 122.297C72.2113 119.948 68.4454 118.209 64.6047 116.839Z" fill="#F8F7FE"/>
<path d="M43.1884 97.5634C47.2615 95.0999 51.1274 92.2666 55.0737 89.6075C65.3807 82.5895 75.6253 75.4802 85.8063 68.2804L129.249 38.2244C134.819 34.3698 140.352 30.4621 145.848 26.5018C145.876 26.521 145.879 26.5627 145.891 26.5945C143.762 28.5566 141.381 30.2996 139.153 32.1524L124.347 44.4994C113.046 54.0838 101.815 63.7498 90.6537 73.4961L60.0751 100.314C56.9113 103.075 53.8053 105.902 50.6154 108.633C49.5086 109.581 48.4309 110.599 47.2753 111.483C46.8879 110.497 46.6898 109.413 46.4447 108.383C45.9623 106.779 45.5831 105.132 45.1189 103.519C44.5404 101.51 43.8678 99.5407 43.1884 97.5634Z" fill="#F8F7FE"/>
<path d="M79.7509 127.306C78.7968 128.101 77.9313 129.008 77.0454 129.878C75.876 131.022 74.6984 132.159 73.5128 133.287L67.1161 139.427C65.266 141.196 63.3767 142.953 61.5947 144.789C61.2447 143.258 60.9128 141.723 60.5994 140.184C61.1699 139.618 61.8154 139.106 62.4034 138.553C65.6406 135.554 68.9149 132.596 72.2259 129.679C73.9356 128.153 75.6793 126.669 77.3055 125.052C78.1095 125.816 78.9077 126.585 79.7509 127.306Z" fill="#4075D7"/>
</svg>
