<svg width="45" height="45" viewBox="0 0 45 45" fill="none" xmlns="http://www.w3.org/2000/svg">
<path fill-rule="evenodd" clip-rule="evenodd" d="M17.7188 30.5156C19.125 31.3594 20.8125 31.7812 22.5 31.7812C27.7031 31.7812 31.7813 27.5625 31.7813 22.6406C31.7813 20.1094 30.9375 17.8594 29.1094 16.0313C27.2813 14.3437 25.0313 13.3594 22.5 13.3594C17.4375 13.3594 13.2187 17.5781 13.2187 22.6406C13.2187 24.3281 13.6406 26.0156 14.625 27.5625L14.9063 27.9844L13.9219 31.3594L17.4375 30.375L17.7188 30.5156ZM25.5938 23.9062C25.875 23.9062 27.2813 24.6094 27.5625 24.75C27.6063 24.7719 27.6501 24.7904 27.6934 24.8086C27.9279 24.9077 28.1469 25.0001 28.2656 25.5937C28.4063 25.5937 28.4062 26.1562 28.125 26.8594C27.9844 27.4219 26.8594 28.125 26.2969 28.125C26.2016 28.125 26.1103 28.1331 26.0128 28.1417C25.5349 28.184 24.9075 28.2395 22.9219 27.4219C20.4575 26.4361 18.7488 24.0468 18.2691 23.3758C18.2013 23.281 18.158 23.2205 18.1406 23.2031C18.1167 23.1552 18.0683 23.0788 18.0044 22.978C17.6933 22.4868 17.0156 21.4168 17.0156 20.25C17.0156 18.8438 17.7187 18.1406 18 17.8594C18.2812 17.5781 18.5625 17.5781 18.7031 17.5781H19.2656C19.4063 17.5781 19.6875 17.5781 19.8281 18C20.1094 18.5625 20.6719 19.9687 20.6719 20.1094C20.6719 20.1563 20.6875 20.2031 20.7031 20.25C20.7344 20.3438 20.7656 20.4375 20.6719 20.5312C20.6016 20.6016 20.5664 20.6719 20.5313 20.7422C20.4961 20.8125 20.4609 20.8828 20.3906 20.9531L19.9688 21.375C19.8281 21.5156 19.6875 21.6563 19.8281 21.9375C19.9688 22.2188 20.5313 23.2031 21.375 23.9062C22.3244 24.737 23.0734 25.0669 23.4532 25.2342C23.5235 25.2652 23.5811 25.2905 23.625 25.3125C23.9062 25.3125 24.0469 25.3125 24.1875 25.1719C24.2578 25.0313 24.4336 24.8203 24.6094 24.6094C24.7851 24.3984 24.9609 24.1875 25.0312 24.0469C25.1719 23.7656 25.3125 23.7656 25.5938 23.9062Z" fill="white"/>
<path fill-rule="evenodd" clip-rule="evenodd" d="M0 7.03125C0 3.148 3.148 0 7.03125 0H37.9688C41.852 0 45 3.148 45 7.03125V37.9688C45 41.852 41.852 45 37.9688 45H7.03125C3.148 45 0 41.852 0 37.9688V7.03125ZM22.5 11.25C25.4531 11.25 28.2656 12.375 30.375 14.4844C32.4844 16.5938 33.75 19.4063 33.75 22.3594C33.75 28.5469 28.6875 33.6094 22.5 33.6094C20.6719 33.6094 18.8438 33.0469 17.1563 32.2031L11.25 33.75L12.7969 28.125C11.8125 26.4375 11.25 24.4688 11.25 22.5C11.25 16.3125 16.3125 11.25 22.5 11.25Z" fill="white"/>
</svg>
