<svg width="239" height="239" viewBox="0 0 239 239" fill="none" xmlns="http://www.w3.org/2000/svg">
<path d="M198.491 123.853C196.38 164.229 164.168 196.519 123.797 198.727C83.426 200.935 47.8847 172.352 41.3827 132.447C34.8807 92.5414 59.5099 54.1538 98.4939 43.4322C123.002 36.6919 149.256 42.136 169.062 58.0653C188.869 73.9948 199.818 98.4702 198.491 123.853ZM94.4048 45.7844C83.6671 49.729 72.7583 55.514 64.898 64.0066C66.5483 65.7561 68.2516 67.4363 69.8601 69.2269C74.7611 64.5236 79.5745 61.0615 85.393 57.5935C95.3126 52.4475 105.9 49.3352 117.109 48.9431C137.431 48.2323 154.561 55.4549 169.306 69.2143C170.841 67.401 172.644 65.8681 174.209 64.092C168.871 58.622 162.684 54.0497 155.889 50.5514C136.34 40.611 115.25 39.0184 94.4048 45.7844ZM169.992 69.9806C179.051 79.9704 185.609 90.8622 188.533 104.161C189.139 106.916 189.451 109.712 189.838 112.502C191.533 132.39 186.115 150.334 173.205 165.651C172.103 166.949 170.96 168.211 169.777 169.435C171.52 171.12 173.24 172.829 174.937 174.561C189.168 160.395 197.242 141.19 197.406 121.11C197.415 120.847 197.422 120.584 197.425 120.321C197.558 99.627 189.529 79.7146 175.078 64.9015C173.258 66.3404 171.55 68.2579 169.992 69.9806ZM55.203 148.881C53.7576 145.585 52.4458 142.236 51.4636 138.77C47.3322 123.912 48.1646 108.111 53.8342 93.769C56.2938 87.4059 59.667 81.4349 63.8478 76.0445C65.5273 73.917 67.37 71.9297 69.1792 69.9141C67.4545 68.2603 65.8602 66.307 64.0481 64.7718C60.8255 67.8317 58.0251 71.2922 55.4847 74.9313C46.6781 87.5063 41.8435 102.433 41.6051 117.783C41.3449 128.507 43.2492 139.173 47.2045 149.145C48.1429 151.556 49.1286 154.051 50.454 156.282C53.5667 162.648 58.9158 169.65 63.9848 174.591C65.8646 173.039 67.5884 171.171 69.2324 169.373C63.5841 163.546 58.4226 156.355 55.203 148.881ZM117.609 49.9991C79.1249 51.0581 48.7951 83.13 49.8847 121.613C50.9743 160.096 83.0702 190.4 121.552 189.28C159.991 188.161 190.254 156.109 189.166 117.669C188.078 79.2298 156.05 48.9415 117.609 49.9991ZM69.985 170.245C68.242 171.937 66.5511 173.681 64.8086 175.373C76.1163 186.578 90.6142 194.008 106.313 196.646C110.654 197.392 115.109 197.846 119.517 197.783C135.446 197.553 150.589 193.169 163.73 184.055C165.985 182.491 168.107 180.733 170.231 178.998C171.579 177.866 172.857 176.712 174.047 175.41C172.636 173.533 170.751 171.81 169.047 170.191C165.992 172.932 162.982 175.634 159.591 177.962C146.517 186.807 130.913 191.145 115.15 190.316C101.922 189.54 89.1883 185.019 78.4324 177.28C76.8082 176.102 75.1936 174.846 73.6955 173.511C72.5216 172.465 71.309 171.063 69.985 170.245Z" fill="black"/>
<path d="M94.4048 45.7844C115.25 39.0184 136.34 40.611 155.889 50.5513C162.684 54.0497 168.871 58.622 174.209 64.092C172.644 65.8681 170.841 67.401 169.306 69.2142C154.561 55.4549 137.431 48.2323 117.109 48.9431C105.9 49.3352 95.3126 52.4474 85.393 57.5935C85.8781 56.0368 92.4814 49.0163 93.817 47.2575C94.1994 46.7542 94.4989 46.4447 94.4048 45.7844Z" fill="#ECEEF8"/>
<path d="M64.898 64.0065C72.7583 55.5139 83.6671 49.7289 94.4048 45.7843C94.4989 46.4447 94.1994 46.7542 93.817 47.2574C92.4814 49.0163 85.8781 56.0367 85.393 57.5934C79.5745 61.0614 74.761 64.5235 69.8601 69.2268C68.2516 67.4362 66.5483 65.756 64.898 64.0065Z" fill="#FEFEFE"/>
<path d="M121.552 189.28C83.0702 190.4 50.9743 160.096 49.8847 121.613C48.795 83.13 79.1249 51.0581 117.609 49.999C156.05 48.9414 188.078 79.2297 189.166 117.669C190.254 156.109 159.991 188.161 121.552 189.28ZM117.438 61.1193C85.1227 62.3205 59.9093 89.5076 61.1422 121.822C62.3749 154.136 89.5867 179.323 121.9 178.058C154.168 176.795 179.312 149.629 178.081 117.36C176.85 85.0907 149.709 59.9198 117.438 61.1193Z" fill="#FDBE50"/>
<path d="M121.9 178.058C89.5867 179.323 62.3749 154.136 61.1422 121.821C59.9093 89.5075 85.1227 62.3205 117.438 61.1193C149.709 59.9197 176.85 85.0907 178.081 117.36C179.312 149.629 154.168 176.795 121.9 178.058ZM117.028 62.2131C85.3211 63.6449 60.7816 90.5143 62.2237 122.221C63.6657 153.927 90.543 178.458 122.249 177.005C153.94 175.554 178.457 148.691 177.016 117C175.574 85.308 148.72 60.782 117.028 62.2131Z" fill="black"/>
<path d="M122.249 177.005C90.543 178.458 63.6657 153.927 62.2236 122.221C60.7816 90.5143 85.3211 63.645 117.028 62.2131C148.72 60.782 175.574 85.3081 177.016 117C178.457 148.691 153.94 175.554 122.249 177.005ZM117.039 64.8616C86.7996 66.2607 63.4122 91.8964 64.7866 122.137C66.1613 152.378 91.7776 175.786 122.019 174.437C152.297 173.086 175.738 147.433 174.362 117.157C172.986 86.8811 147.314 63.4606 117.039 64.8616Z" fill="#FDBE50"/>
<path d="M122.019 174.437C91.7776 175.786 66.1613 152.378 64.7866 122.137C63.4122 91.8965 86.7996 66.2607 117.039 64.8616C147.314 63.4606 172.986 86.8811 174.362 117.157C175.738 147.433 152.297 173.086 122.019 174.437ZM101.058 95.5299L94.1837 95.5393C92.3693 95.543 90.3717 95.3843 88.5998 95.8124C87.2459 96.1394 85.9178 96.8292 84.9276 97.8158C83.8326 98.9127 83.0371 100.272 82.6171 101.764C82.095 103.671 82.3307 106.481 82.32 108.489C82.2997 111.989 82.2974 115.488 82.313 118.988L82.3877 129.514C82.3875 132.141 82.0684 135.196 82.6657 137.758C82.961 139.024 83.8597 140.342 84.7754 141.244C86.0146 142.466 87.4609 143.229 89.174 143.514C91.0533 143.826 93.0729 143.698 94.9762 143.698L104.484 143.686L137.661 143.691L144.702 143.715C146.686 143.72 148.927 143.93 150.852 143.429C152.067 143.108 153.178 142.477 154.076 141.598C155.1 140.588 155.926 139.124 156.205 137.709C156.617 135.617 156.384 132.225 156.388 129.988L156.39 114.177C156.385 111.387 156.672 103.214 156.05 100.861C155.755 99.7458 155.11 98.5861 154.309 97.7598C153.22 96.6366 151.917 95.9909 150.389 95.733C148.604 95.4321 146.679 95.5484 144.868 95.5407L135.909 95.5099L101.058 95.5299Z" fill="black"/>
<path d="M69.1792 69.914C67.3699 71.9297 65.5273 73.917 63.8478 76.0444C59.667 81.4349 56.2938 87.4059 53.8342 93.769C48.1646 108.111 47.3322 123.912 51.4635 138.77C52.4458 142.236 53.7576 145.585 55.203 148.881C55.0237 149.416 54.8241 149.915 54.5391 150.404C54.122 151.119 50.8543 155.942 50.454 156.282C49.1286 154.051 48.1429 151.556 47.2045 149.145C43.2491 139.173 41.3449 128.507 41.6051 117.783C41.8435 102.433 46.6781 87.5062 55.4847 74.9312C58.0251 71.2922 60.8254 67.8317 64.0481 64.7717C65.8601 66.307 67.4544 68.2602 69.1792 69.914Z" fill="#FEFEFE"/>
<path d="M189.838 112.502C189.451 109.712 189.139 106.916 188.533 104.161C185.609 90.8621 179.051 79.9704 169.992 69.9805C171.55 68.2579 173.258 66.3403 175.078 64.9015C189.529 79.7145 197.558 99.6269 197.425 120.321C197.422 120.584 197.415 120.847 197.406 121.11C196.138 120.389 192.5 114.111 190.63 112.704C190.324 112.474 190.214 112.455 189.838 112.502Z" fill="#ECEEF8"/>
<path d="M137.661 143.691L104.484 143.686L94.9762 143.698C93.0729 143.698 91.0533 143.826 89.174 143.514C87.4609 143.229 86.0146 142.466 84.7754 141.244C83.8597 140.342 82.961 139.024 82.6657 137.758C82.0684 135.196 82.3875 132.141 82.3877 129.514L82.313 118.987C82.2974 115.488 82.2997 111.989 82.32 108.489C82.3307 106.481 82.095 103.671 82.6171 101.764C83.0371 100.272 83.8326 98.9126 84.9276 97.8158C85.9177 96.8291 87.2459 96.1393 88.5998 95.8123C90.3717 95.3842 92.3693 95.5429 94.1837 95.5392L101.058 95.5298L135.909 95.5098L144.868 95.5406C146.679 95.5483 148.604 95.432 150.389 95.7329C151.917 95.9908 153.22 96.6365 154.309 97.7597C155.11 98.586 155.755 99.7457 156.05 100.861C156.672 103.214 156.385 111.387 156.39 114.177L156.388 129.988C156.384 132.225 156.617 135.617 156.205 137.709C155.926 139.124 155.1 140.588 154.076 141.598C153.178 142.477 152.067 143.108 150.852 143.429C148.927 143.929 146.686 143.72 144.702 143.715L137.661 143.691ZM91.8852 99.1437C90.2125 99.2574 88.656 99.6652 87.5027 100.984C86.7985 101.789 86.4668 102.711 86.3363 103.761C86.087 105.765 86.2529 107.938 86.2567 109.964L86.2793 121.728C86.2873 124.626 86.2763 127.524 86.2466 130.421C86.2329 132.019 86.1019 133.72 86.2663 135.306C86.4035 136.632 86.8577 137.7 87.9224 138.535C88.6705 139.121 89.4445 139.401 90.3824 139.49C92.3647 139.679 94.4405 139.506 96.433 139.49L107.276 139.472C120.539 139.464 133.825 139.335 147.086 139.551C148.586 139.552 149.792 139.425 150.909 138.29C151.677 137.512 152.135 136.537 152.304 135.463C152.507 134.175 152.39 132.766 152.38 131.462L152.354 125.127C152.344 118.291 152.54 111.406 152.323 104.576C152.273 103.006 151.911 101.729 150.731 100.611C149.935 99.8582 149 99.3907 147.912 99.2611C145.723 99.0006 143.343 99.1659 141.137 99.157L127.818 99.1269L108.413 99.1386C102.91 99.1164 97.3858 99.016 91.8852 99.1437Z" fill="#4075D7"/>
<path d="M147.086 139.551C133.825 139.335 120.539 139.464 107.276 139.472L96.433 139.49C94.4405 139.506 92.3647 139.679 90.3824 139.49C89.4446 139.401 88.6705 139.121 87.9224 138.535C86.8578 137.7 86.4035 136.632 86.2663 135.306C86.1019 133.721 86.2329 132.019 86.2466 130.421C86.2763 127.524 86.2873 124.626 86.2793 121.728L86.2567 109.964C86.253 107.938 86.087 105.765 86.3363 103.761C86.4668 102.711 86.7985 101.789 87.5027 100.984C88.656 99.6652 90.2125 99.2575 91.8852 99.1438C97.3858 99.0161 102.91 99.1165 108.413 99.1386L127.818 99.127L141.137 99.1571C143.343 99.166 145.723 99.0007 147.912 99.2612C149 99.3907 149.935 99.8583 150.731 100.611C151.911 101.729 152.273 103.006 152.323 104.576C152.54 111.406 152.344 118.291 152.354 125.127L152.38 131.462C152.39 132.767 152.507 134.175 152.304 135.463C152.135 136.537 151.677 137.512 150.909 138.291C149.792 139.425 148.586 139.552 147.086 139.551ZM92.1756 100.2C90.7657 100.217 89.5396 100.406 88.5057 101.477C87.942 102.062 87.5865 102.73 87.4768 103.533C87.2842 104.946 87.3837 106.459 87.3862 107.883L87.3876 115.003C87.3727 121.494 87.0942 128.051 87.3367 134.531C87.3799 135.683 87.5398 136.851 88.4506 137.651C88.9677 138.105 89.5531 138.402 90.2391 138.484C92.2216 138.722 94.3987 138.549 96.3987 138.543L108.297 138.515L146.478 138.539C147.886 138.541 149.249 138.597 150.324 137.517C150.924 136.914 151.218 136.129 151.331 135.299C151.501 134.054 151.383 132.689 151.373 131.434L151.359 125.234C151.357 118.534 151.517 111.799 151.378 105.102C151.347 103.625 151.112 102.374 149.973 101.331C149.435 100.837 148.753 100.422 148.019 100.314C145.875 100.001 143.49 100.178 141.317 100.17L128.55 100.153L101.546 100.157C98.4271 100.178 95.2918 100.102 92.1756 100.2Z" fill="black"/>
<path d="M146.478 138.539L108.297 138.515L96.3987 138.543C94.3987 138.549 92.2216 138.722 90.2391 138.484C89.5531 138.402 88.9677 138.105 88.4506 137.651C87.5398 136.851 87.3799 135.683 87.3367 134.531C87.0942 128.051 87.3727 121.494 87.3876 115.003L87.3862 107.883C87.3837 106.459 87.2842 104.946 87.4768 103.533C87.5865 102.73 87.942 102.062 88.5057 101.477C89.5395 100.406 90.7657 100.217 92.1756 100.2C95.2918 100.102 98.4271 100.178 101.546 100.157L128.55 100.153L141.317 100.17C143.49 100.178 145.875 100.001 148.019 100.314C148.753 100.422 149.435 100.837 149.973 101.331C151.112 102.374 151.347 103.625 151.378 105.102C151.517 111.799 151.357 118.534 151.359 125.234L151.373 131.434C151.383 132.689 151.501 134.054 151.331 135.299C151.218 136.129 150.924 136.914 150.324 137.517C149.249 138.597 147.886 138.541 146.478 138.539ZM113.238 108.068C112.819 108.307 112.434 108.485 112.276 108.978C112.098 109.532 112.072 127.587 112.195 129.479C112.223 129.917 112.27 130.326 112.517 130.701C112.733 131.029 113.053 131.201 113.433 131.266C113.633 131.3 113.757 131.285 113.949 131.208C115.207 130.701 116.515 129.699 117.679 128.983C119.999 127.559 122.315 126.16 124.692 124.831C126.511 123.766 130.1 121.859 131.623 120.576C131.989 120.268 132.264 119.962 132.438 119.515C132.393 119.086 132.124 118.837 131.798 118.57C130.891 117.828 129.768 117.275 128.755 116.687C126.546 115.407 124.31 114.178 122.087 112.921C120.241 111.882 118.402 110.827 116.573 109.758C115.725 109.26 114.888 108.682 114.015 108.234C113.769 108.107 113.512 108.071 113.238 108.068Z" fill="#FEFEFE"/>
<path d="M124.692 124.831C122.315 126.16 119.999 127.559 117.679 128.983C116.515 129.699 115.207 130.701 113.949 131.208C113.757 131.285 113.633 131.3 113.433 131.266C113.053 131.201 112.733 131.029 112.517 130.701C112.27 130.326 112.223 129.917 112.195 129.479C112.072 127.587 112.098 109.532 112.276 108.978C112.434 108.485 112.819 108.307 113.238 108.068C113.512 108.071 113.769 108.107 114.015 108.234C114.888 108.682 115.725 109.26 116.573 109.758C118.402 110.827 120.241 111.882 122.087 112.921C124.31 114.178 126.546 115.407 128.755 116.687C129.768 117.275 130.891 117.828 131.798 118.57C132.124 118.837 132.393 119.086 132.438 119.515C132.264 119.962 131.989 120.268 131.623 120.576C130.1 121.859 126.511 123.766 124.692 124.831ZM113.205 109.03C113.007 112.869 113.127 116.768 113.12 120.615C113.115 123.421 112.95 126.309 113.118 129.102C113.141 129.48 113.175 129.814 113.339 130.157C113.592 130.247 113.59 130.186 113.831 130.072C115.151 129.449 116.416 128.57 117.665 127.813L124.708 123.559C126.984 122.254 129.364 121.013 131.464 119.435C127.627 117.126 123.674 115.012 119.795 112.777C117.723 111.584 115.408 109.899 113.205 109.03Z" fill="black"/>
<path d="M124.708 123.559L117.665 127.813C116.416 128.57 115.151 129.449 113.831 130.072C113.59 130.186 113.591 130.246 113.339 130.157C113.175 129.813 113.141 129.48 113.118 129.102C112.95 126.309 113.115 123.421 113.12 120.614C113.127 116.768 113.007 112.869 113.205 109.03C115.408 109.898 117.723 111.584 119.795 112.777C123.674 115.012 127.627 117.126 131.464 119.435C129.364 121.013 126.984 122.254 124.708 123.559Z" fill="#4075D7"/>
<path d="M189.838 112.502C190.214 112.455 190.324 112.474 190.63 112.704C192.5 114.111 196.138 120.389 197.406 121.11C197.242 141.19 189.168 160.395 174.937 174.561C173.24 172.829 171.52 171.12 169.777 169.435C170.96 168.211 172.103 166.949 173.205 165.651C186.115 150.333 191.533 132.39 189.838 112.502Z" fill="#FEFEFE"/>
<path d="M55.203 148.881C58.4226 156.355 63.584 163.545 69.2324 169.373C67.5884 171.17 65.8646 173.039 63.9848 174.591C58.9158 169.65 53.5667 162.648 50.454 156.282C50.8543 155.942 54.122 151.119 54.5391 150.403C54.8241 149.915 55.0237 149.416 55.203 148.881Z" fill="#ECEEF8"/>
<path d="M64.8086 175.373C66.5511 173.681 68.242 171.937 69.985 170.245C71.309 171.063 72.5216 172.465 73.6955 173.511C75.1936 174.846 76.8082 176.102 78.4323 177.28C89.1883 185.019 101.922 189.539 115.15 190.316C130.913 191.145 146.517 186.807 159.591 177.962C162.982 175.634 165.992 172.932 169.047 170.191C170.752 171.81 172.636 173.533 174.047 175.409C172.857 176.711 171.579 177.866 170.231 178.998C168.107 180.733 165.985 182.491 163.73 184.055C150.589 193.169 135.446 197.553 119.517 197.783C115.109 197.846 110.654 197.392 106.313 196.646C90.6142 194.008 76.1163 186.578 64.8086 175.373Z" fill="#FEFEFE"/>
</svg>
